{
DisplayStrings = (
/ul
);
copyright = "Copyright (c) 2014 by SAPO. All rights reserved.";
customParameters = (
{
name = description;
value = "Copyright (c) 2014 by Pedro Correia & Gon\U00E7alo Fonseca. All rights reserved.";
},
{
name = license;
value = "The MIT License (MIT)\012\012Copyright (c) 2014 SAPO\012\012Permission is hereby granted, free of charge, to any person obtaining a copy\012of this software and associated documentation files (the \"Software\"), to deal\012in the Software without restriction, including without limitation the rights\012to use, copy, modify, merge, publish, distribute, sublicense, and/or sell\012copies of the Software, and to permit persons to whom the Software is\012furnished to do so, subject to the following conditions:\012\012The above copyright notice and this permission notice shall be included in all\012copies or substantial portions of the Software.\012\012THE SOFTWARE IS PROVIDED \"AS IS\", WITHOUT WARRANTY OF ANY KIND, EXPRESS OR\012IMPLIED, INCLUDING BUT NOT LIMITED TO THE WARRANTIES OF MERCHANTABILITY,\012FITNESS FOR A PARTICULAR PURPOSE AND NONINFRINGEMENT. IN NO EVENT SHALL THE\012AUTHORS OR COPYRIGHT HOLDERS BE LIABLE FOR ANY CLAIM, DAMAGES OR OTHER\012LIABILITY, WHETHER IN AN ACTION OF CONTRACT, TORT OR OTHERWISE, ARISING FROM,\012OUT OF OR IN CONNECTION WITH THE SOFTWARE OR THE USE OR OTHER DEALINGS IN THE\012SOFTWARE.";
},
{
name = vendorID;
value = SAPO;
},
{
name = glyphOrder;
value = (
    ".notdef",
    NULL,
    uni000D,
    space,
    "triangle.up",
    "triangle.right",
    "triangle.down",
    "triangle.left",
    "chevron.up",
    "chevron.down",
    "chevron.left",
    "chevron.right",
    "arrow.up",
    "arrow.right",
    "arrow.down",
    "arrow.left",
    "circle.triangle.up.outline",
    "circle.triangle.down.outline",
    "circle.triangle.left.outline",
    "circle.triangle.right.outline",
    "circle.triangle.up",
    "circle.triangle.down",
    "circle.triangle.left",
    "circle.triangle.right",

glyphs = (
{
glyphname = triangle.up;
lastChange = "2014-06-03 11:00:08 +0000";
layers = (
{
hints = (
{
horizontal = 1;
origin = "{0, 0}";
target = "{0, 13}";
},
{
origin = "{0, 6}";
target = "{0, 20}";
}
);
layerId = "D0C94BA9-7956-4545-877F-F891ABB04BC1";
name = Regular;
paths = (
{
closed = 1;
nodes = (
"128 102 LINE SMOOTH",
"115 102 OFFCURVE",
"107 108 OFFCURVE",
"102 119 CURVE",
"101 122 OFFCURVE",
"100 125 OFFCURVE",
"100 130 CURVE SMOOTH",
"100 138 OFFCURVE",
"103 145 OFFCURVE",
"108 150 CURVE SMOOTH",
"383 426 LINE",
"390 431 OFFCURVE",
"396 434 OFFCURVE",
"403 434 CURVE SMOOTH",
"411 434 OFFCURVE",
"418 431 OFFCURVE",
"423 426 CURVE SMOOTH",
"699 150 LINE SMOOTH",
"704 145 OFFCURVE",
"707 138 OFFCURVE",
"707 130 CURVE SMOOTH",
"707 126 OFFCURVE",
"706 123 OFFCURVE",
"705 119 CURVE",
"699 108 OFFCURVE",
"690 102 OFFCURVE",
"679 102 CURVE SMOOTH"
);
}
);
width = 807;
}
);
unicode = E000;
},
{
glyphname = triangle.right;
lastChange = "2014-06-03 11:00:08 +0000";
layers = (
{
hints = (
{
horizontal = 1;
origin = "{0, 20}";
target = "{0, 6}";
},
{
origin = "{0, 26}";
target = "{0, 13}";
}
);
layerId = "D0C94BA9-7956-4545-877F-F891ABB04BC1";
name = Regular;
paths = (
{
closed = 1;
nodes = (
"100 549 LINE SMOOTH",
"100 562 OFFCURVE",
"106 570 OFFCURVE",
"117 575 CURVE",
"120 576 OFFCURVE",
"123 577 OFFCURVE",
"128 577 CURVE SMOOTH",
"136 577 OFFCURVE",
"143 574 OFFCURVE",
"148 569 CURVE SMOOTH",
"424 294 LINE",
"429 287 OFFCURVE",
"432 281 OFFCURVE",
"432 274 CURVE SMOOTH",
"432 266 OFFCURVE",
"429 259 OFFCURVE",
"424 254 CURVE SMOOTH",
"148 -22 LINE SMOOTH",
"143 -27 OFFCURVE",
"136 -30 OFFCURVE",
"128 -30 CURVE SMOOTH",
"124 -30 OFFCURVE",
"121 -29 OFFCURVE",
"117 -28 CURVE",
"106 -23 OFFCURVE",
"100 -14 OFFCURVE",
"100 -2 CURVE SMOOTH"
);
}
);
width = 532;
}
);
unicode = E001;
},
{
glyphname = triangle.down;
lastChange = "2014-06-03 11:00:08 +0000";
layers = (
{
hints = (
{
horizontal = 1;
origin = "{0, 13}";
target = "{0, 26}";
},
{
origin = "{0, 20}";
target = "{0, 6}";
}
);
layerId = "D0C94BA9-7956-4545-877F-F891ABB04BC1";
name = Regular;
paths = (
{
closed = 1;
nodes = (
"679 445 LINE SMOOTH",
"690 445 OFFCURVE",
"699 439 OFFCURVE",
"705 428 CURVE",
"706 424 OFFCURVE",
"707 421 OFFCURVE",
"707 417 CURVE SMOOTH",
"707 409 OFFCURVE",
"704 402 OFFCURVE",
"699 397 CURVE SMOOTH",
"423 121 LINE SMOOTH",
"418 116 OFFCURVE",
"411 113 OFFCURVE",
"403 113 CURVE SMOOTH",
"396 113 OFFCURVE",
"390 116 OFFCURVE",
"383 121 CURVE",
"108 397 LINE SMOOTH",
"103 402 OFFCURVE",
"100 409 OFFCURVE",
"100 417 CURVE SMOOTH",
"100 422 OFFCURVE",
"101 425 OFFCURVE",
"102 428 CURVE",
"107 439 OFFCURVE",
"115 445 OFFCURVE",
"128 445 CURVE SMOOTH"
);
}
);
width = 807;
}
);
unicode = E002;
},
{
glyphname = triangle.left;
lastChange = "2014-06-03 11:00:08 +0000";
layers = (
{
guideLines = (
{
position = "{405, -31}";
},
{
position = "{404, 577}";
}
);
hints = (
{
horizontal = 1;
place = "{-3060.000000, 100.000000}";
},
{
origin = "{0, 7}";
target = "{0, 0}";
},
{
horizontal = 1;
place = "{-31.000000, 608.000000}";
},
{
horizontal = 1;
place = "{-33.601562, 0.000000}";
}
);
layerId = "D0C94BA9-7956-4545-877F-F891ABB04BC1";
name = Regular;
paths = (
{
closed = 1;
nodes = (
"432 -2 LINE SMOOTH",
"432 -27 OFFCURVE",
"403 -41 OFFCURVE",
"384 -22 CURVE SMOOTH",
"108 253 LINE",
"103 260 OFFCURVE",
"100 266 OFFCURVE",
"100 273 CURVE SMOOTH",
"100 281 OFFCURVE",
"103 288 OFFCURVE",
"108 293 CURVE SMOOTH",
"384 569 LINE SMOOTH",
"389 574 OFFCURVE",
"396 577 OFFCURVE",
"404 577 CURVE SMOOTH",
"408 577 OFFCURVE",
"411 576 OFFCURVE",
"415 575 CURVE",
"426 569 OFFCURVE",
"432 560 OFFCURVE",
"432 549 CURVE SMOOTH"
);
}
);
width = 532;
}
);
unicode = E003;
},
{
glyphname = chevron.up;
lastChange = "2014-06-03 11:00:08 +0000";
layers = (
{
hints = (
{
horizontal = 1;
origin = "{0, 4}";
target = "{0, 11}";
},
{
horizontal = 1;
place = "{10552.000000, 100.000000}";
}
);
layerId = "D0C94BA9-7956-4545-877F-F891ABB04BC1";
name = Regular;
paths = (
{
closed = 1;
nodes = (
"248 115 LINE SMOOTH",
"243 110 OFFCURVE",
"236 107 OFFCURVE",
"228 107 CURVE SMOOTH",
"128 107 LINE SMOOTH",
"104 107 OFFCURVE",
"91 138 OFFCURVE",
"108 155 CURVE SMOOTH",
"383 431 LINE",
"390 436 OFFCURVE",
"396 439 OFFCURVE",
"403 439 CURVE SMOOTH",
"411 439 OFFCURVE",
"418 436 OFFCURVE",
"423 431 CURVE SMOOTH",
"698 155 LINE SMOOTH",
"717 136 OFFCURVE",
"703 107 OFFCURVE",
"678 107 CURVE SMOOTH",
"578 107 LINE SMOOTH",
"571 107 OFFCURVE",
"565 110 OFFCURVE",
"558 115 CURVE",
"423 250 LINE",
"418 256 OFFCURVE",
"411 259 OFFCURVE",
"403 259 CURVE SMOOTH",
"394 259 OFFCURVE",
"388 256 OFFCURVE",
"383 250 CURVE"
);
}
);
width = 807;
}
);
unicode = E00C;
},
{
glyphname = chevron.down;
lastChange = "2014-06-03 15:49:08 +0000";
layers = (
{
hints = (
{
horizontal = 1;
origin = "{0, 11}";
target = "{0, 18}";
},
{
horizontal = 1;
place = "{10052.000000, 100.000000}";
}
);
layerId = "D0C94BA9-7956-4545-877F-F891ABB04BC1";
name = Regular;
paths = (
{
closed = 1;
nodes = (
"558 431 LINE",
"565 436 OFFCURVE",
"571 439 OFFCURVE",
"578 439 CURVE SMOOTH",
"678 439 LINE SMOOTH",
"703 439 OFFCURVE",
"717 410 OFFCURVE",
"698 390 CURVE SMOOTH",
"423 115 LINE SMOOTH",
"418 110 OFFCURVE",
"411 107 OFFCURVE",
"403 107 CURVE SMOOTH",
"396 107 OFFCURVE",
"390 110 OFFCURVE",
"383 115 CURVE",
"108 390 LINE",
"91 409 OFFCURVE",
"104 439 OFFCURVE",
"128 439 CURVE SMOOTH",
"228 439 LINE SMOOTH",
"236 439 OFFCURVE",
"243 436 OFFCURVE",
"248 431 CURVE SMOOTH",
"383 295 LINE SMOOTH",
"388 290 OFFCURVE",
"395 287 OFFCURVE",
"403 287 CURVE SMOOTH",
"411 287 OFFCURVE",
"418 290 OFFCURVE",
"423 295 CURVE SMOOTH"
);
}
);
width = 807;
}
);
unicode = E00D;
},
{
glyphname = chevron.left;
lastChange = "2014-06-03 15:49:14 +0000";
layers = (
{
hints = (
{
horizontal = 1;
place = "{-2887.000000, 100.000000}";
},
{
horizontal = 1;
place = "{155.441406, 0.000000}";
},
{
origin = "{0, 14}";
target = "{0, 4}";
}
);
layerId = "D0C94BA9-7956-4545-877F-F891ABB04BC1";
name = Regular;
paths = (
{
closed = 1;
nodes = (
"424 119 LINE SMOOTH",
"429 114 OFFCURVE",
"432 107 OFFCURVE",
"432 99 CURVE SMOOTH",
"432 -1 LINE SMOOTH",
"432 -14 OFFCURVE",
"426 -22 OFFCURVE",
"414 -27 CURVE",
"403 -31 OFFCURVE",
"391 -29 OFFCURVE",
"383 -21 CURVE SMOOTH",
"108 254 LINE SMOOTH",
"103 259 OFFCURVE",
"100 266 OFFCURVE",
"100 274 CURVE SMOOTH",
"100 282 OFFCURVE",
"103 289 OFFCURVE",
"108 294 CURVE SMOOTH",
"383 569 LINE SMOOTH",
"391 577 OFFCURVE",
"403 579 OFFCURVE",
"414 575 CURVE",
"426 570 OFFCURVE",
"432 562 OFFCURVE",
"432 549 CURVE SMOOTH",
"432 449 LINE SMOOTH",
"432 440 OFFCURVE",
"429 434 OFFCURVE",
"423 429 CURVE",
"288 294 LINE SMOOTH",
"283 289 OFFCURVE",
"280 282 OFFCURVE",
"280 274 CURVE SMOOTH",
"280 266 OFFCURVE",
"283 259 OFFCURVE",
"288 254 CURVE SMOOTH"
);
}
);
width = 532;
}
);
unicode = E00E;
},
{
glyphname = chevron.right;
lastChange = "2014-06-03 11:30:26 +0000";
layers = (
{
hints = (
{
horizontal = 1;
place = "{-2973.000000, 100.000000}";
},
{
horizontal = 1;
place = "{80.921875, 0.000000}";
},
{
origin = "{0, 18}";
target = "{0, 11}";
}
);
layerId = "D0C94BA9-7956-4545-877F-F891ABB04BC1";
name = Regular;
paths = (
{
closed = 1;
nodes = (
"108 428 LINE SMOOTH",
"103 433 OFFCURVE",
"100 440 OFFCURVE",
"100 448 CURVE SMOOTH",
"100 548 LINE SMOOTH",
"100 573 OFFCURVE",
"131 585 OFFCURVE",
"148 568 CURVE SMOOTH",
"424 293 LINE SMOOTH",
"429 288 OFFCURVE",
"432 281 OFFCURVE",
"432 273 CURVE SMOOTH",
"432 265 OFFCURVE",
"429 258 OFFCURVE",
"424 253 CURVE SMOOTH",
"148 -22 LINE SMOOTH",
"131 -39 OFFCURVE",
"100 -27 OFFCURVE",
"100 -2 CURVE SMOOTH",
"100 98 LINE SMOOTH",
"100 106 OFFCURVE",
"103 113 OFFCURVE",
"108 118 CURVE SMOOTH",
"243 253 LINE",
"249 258 OFFCURVE",
"252 264 OFFCURVE",
"252 273 CURVE SMOOTH",
"252 281 OFFCURVE",
"249 288 OFFCURVE",
"243 293 CURVE"
);
}
);
width = 532;
}
);
unicode = E00F;
},
{
glyphname = arrow.up;
lastChange = "2014-06-03 11:30:12 +0000";
layers = (
{
hints = (
{
horizontal = 1;
origin = "{0, 18}";
target = "{0, 39}";
},
{
origin = "{0, 32}";
target = "{0, 3}";
}
);
layerId = "D0C94BA9-7956-4545-877F-F891ABB04BC1";
name = Regular;
paths = (
{
closed = 1;
nodes = (
"699 313 LINE SMOOTH",
"704 308 OFFCURVE",
"707 301 OFFCURVE",
"707 293 CURVE SMOOTH",
"707 288 OFFCURVE",
"706 285 OFFCURVE",
"705 282 CURVE",
"700 271 OFFCURVE",
"692 265 OFFCURVE",
"679 265 CURVE SMOOTH",
"559 265 LINE SMOOTH",
"544 265 OFFCURVE",
"531 252 OFFCURVE",
"531 237 CURVE SMOOTH",
"531 -33 LINE SMOOTH",
"531 -48 OFFCURVE",
"518 -61 OFFCURVE",
"503 -61 CURVE SMOOTH",
"303 -61 LINE SMOOTH",
"288 -61 OFFCURVE",
"275 -48 OFFCURVE",
"275 -33 CURVE SMOOTH",
"275 237 LINE SMOOTH",
"275 252 OFFCURVE",
"262 265 OFFCURVE",
"247 265 CURVE SMOOTH",
"128 265 LINE SMOOTH",
"115 265 OFFCURVE",
"107 271 OFFCURVE",
"102 282 CURVE",
"101 286 OFFCURVE",
"100 289 OFFCURVE",
"100 293 CURVE SMOOTH",
"100 301 OFFCURVE",
"103 308 OFFCURVE",
"108 313 CURVE SMOOTH",
"384 589 LINE SMOOTH",
"389 594 OFFCURVE",
"396 597 OFFCURVE",
"404 597 CURVE SMOOTH",
"411 597 OFFCURVE",
"418 594 OFFCURVE",
"423 589 CURVE SMOOTH"
);
}
);
width = 807;
}
);
unicode = E018;
},
{
glyphname = arrow.right;
lastChange = "2014-06-03 11:30:19 +0000";
layers = (
{
hints = (
{
horizontal = 1;
origin = "{0, 3}";
target = "{0, 32}";
},
{
origin = "{0, 17}";
target = "{0, 39}";
}
);
layerId = "D0C94BA9-7956-4545-877F-F891ABB04BC1";
name = Regular;
paths = (
{
closed = 1;
nodes = (
"473 -22 LINE SMOOTH",
"468 -27 OFFCURVE",
"461 -30 OFFCURVE",
"454 -30 CURVE SMOOTH",
"449 -30 OFFCURVE",
"446 -29 OFFCURVE",
"443 -28 CURVE",
"432 -23 OFFCURVE",
"426 -15 OFFCURVE",
"426 -2 CURVE SMOOTH",
"426 118 LINE SMOOTH",
"426 133 OFFCURVE",
"413 146 OFFCURVE",
"398 146 CURVE SMOOTH",
"128 146 LINE SMOOTH",
"112 146 OFFCURVE",
"100 159 OFFCURVE",
"100 174 CURVE SMOOTH",
"100 374 LINE SMOOTH",
"100 389 OFFCURVE",
"112 402 OFFCURVE",
"128 402 CURVE SMOOTH",
"398 402 LINE SMOOTH",
"413 402 OFFCURVE",
"426 415 OFFCURVE",
"426 430 CURVE SMOOTH",
"426 549 LINE SMOOTH",
"426 560 OFFCURVE",
"432 569 OFFCURVE",
"443 575 CURVE",
"447 576 OFFCURVE",
"450 577 OFFCURVE",
"454 577 CURVE SMOOTH",
"461 577 OFFCURVE",
"468 574 OFFCURVE",
"473 569 CURVE SMOOTH",
"749 293 LINE SMOOTH",
"754 288 OFFCURVE",
"757 281 OFFCURVE",
"757 273 CURVE SMOOTH",
"757 266 OFFCURVE",
"754 259 OFFCURVE",
"749 254 CURVE SMOOTH"
);
}
);
width = 857;
}
);
unicode = E019;
},
{
glyphname = arrow.down;
lastChange = "2014-06-03 15:49:25 +0000";
layers = (
{
hints = (
{
horizontal = 1;
origin = "{0, 39}";
target = "{0, 17}";
},
{
origin = "{0, 3}";
target = "{0, 32}";
}
);
layerId = "D0C94BA9-7956-4545-877F-F891ABB04BC1";
name = Regular;
paths = (
{
closed = 1;
nodes = (
"108 234 LINE SMOOTH",
"103 239 OFFCURVE",
"100 246 OFFCURVE",
"100 254 CURVE SMOOTH",
"100 259 OFFCURVE",
"101 262 OFFCURVE",
"102 265 CURVE",
"107 276 OFFCURVE",
"115 282 OFFCURVE",
"128 282 CURVE SMOOTH",
"247 282 LINE SMOOTH",
"262 282 OFFCURVE",
"275 295 OFFCURVE",
"275 310 CURVE SMOOTH",
"275 580 LINE SMOOTH",
"275 595 OFFCURVE",
"287 608 OFFCURVE",
"303 608 CURVE SMOOTH",
"503 608 LINE SMOOTH",
"518 608 OFFCURVE",
"531 595 OFFCURVE",
"531 580 CURVE SMOOTH",
"531 310 LINE SMOOTH",
"531 295 OFFCURVE",
"543 282 OFFCURVE",
"559 282 CURVE SMOOTH",
"679 282 LINE SMOOTH",
"690 282 OFFCURVE",
"699 276 OFFCURVE",
"705 265 CURVE",
"706 261 OFFCURVE",
"707 258 OFFCURVE",
"707 254 CURVE SMOOTH",
"707 246 OFFCURVE",
"704 239 OFFCURVE",
"699 234 CURVE SMOOTH",
"423 -42 LINE SMOOTH",
"418 -47 OFFCURVE",
"411 -50 OFFCURVE",
"403 -50 CURVE SMOOTH",
"396 -50 OFFCURVE",
"390 -47 OFFCURVE",
"383 -42 CURVE"
);
}
);
width = 807;
}
);
unicode = E01A;
},
{
glyphname = arrow.left;
lastChange = "2014-06-03 15:49:30 +0000";
layers = (
{
hints = (
{
horizontal = 1;
origin = "{0, 32}";
target = "{0, 3}";
},
{
origin = "{0, 39}";
target = "{0, 18}";
}
);
layerId = "D0C94BA9-7956-4545-877F-F891ABB04BC1";
name = Regular;
paths = (
{
closed = 1;
nodes = (
"384 569 LINE SMOOTH",
"389 574 OFFCURVE",
"396 577 OFFCURVE",
"404 577 CURVE SMOOTH",
"407 577 OFFCURVE",
"410 576 OFFCURVE",
"414 575 CURVE",
"426 570 OFFCURVE",
"432 561 OFFCURVE",
"432 549 CURVE SMOOTH",
"432 429 LINE SMOOTH",
"432 414 OFFCURVE",
"444 401 OFFCURVE",
"460 401 CURVE SMOOTH",
"730 401 LINE SMOOTH",
"745 401 OFFCURVE",
"758 388 OFFCURVE",
"758 373 CURVE SMOOTH",
"758 173 LINE SMOOTH",
"758 158 OFFCURVE",
"745 145 OFFCURVE",
"730 145 CURVE SMOOTH",
"460 145 LINE SMOOTH",
"444 145 OFFCURVE",
"432 132 OFFCURVE",
"432 117 CURVE SMOOTH",
"432 -2 LINE SMOOTH",
"432 -15 OFFCURVE",
"426 -23 OFFCURVE",
"414 -28 CURVE",
"412 -29 OFFCURVE",
"409 -30 OFFCURVE",
"404 -30 CURVE SMOOTH",
"396 -30 OFFCURVE",
"389 -27 OFFCURVE",
"384 -22 CURVE SMOOTH",
"108 254 LINE SMOOTH",
"103 259 OFFCURVE",
"100 266 OFFCURVE",
"100 273 CURVE SMOOTH",
"100 281 OFFCURVE",
"103 288 OFFCURVE",
"108 293 CURVE SMOOTH"
);
}
);
width = 858;
}
);
unicode = E01B;
},
{
glyphname = circle.triangle.up.outline;
lastChange = "2014-06-03 11:15:38 +0000";
layers = (
{
hints = (
{
horizontal = 1;
origin = "{2, 17}";
target = "{0, 0}";
},
{
horizontal = 1;
origin = "{0, 10}";
target = "{2, 5}";
},
{
origin = "{2, 11}";
target = "{0, 6}";
},
{
origin = "{0, 20}";
target = "{2, 23}";
}
);
layerId = "D0C94BA9-7956-4545-877F-F891ABB04BC1";
name = Regular;
paths = (
{
closed = 1;
nodes = (
"335 195 LINE SMOOTH",
"326 195 OFFCURVE",
"320 199 OFFCURVE",
"317 207 CURVE",
"316 210 OFFCURVE",
"315 212 OFFCURVE",
"315 215 CURVE SMOOTH",
"315 220 OFFCURVE",
"317 225 OFFCURVE",
"321 228 CURVE",
"516 424 LINE",
"521 428 OFFCURVE",
"526 430 OFFCURVE",
"530 430 CURVE SMOOTH",
"534 430 OFFCURVE",
"539 428 OFFCURVE",
"544 424 CURVE",
"739 228 LINE",
"743 225 OFFCURVE",
"745 220 OFFCURVE",
"745 215 CURVE SMOOTH",
"745 212 OFFCURVE",
"744 210 OFFCURVE",
"743 207 CURVE",
"740 199 OFFCURVE",
"734 195 OFFCURVE",
"725 195 CURVE SMOOTH"
);
},
{
closed = 1;
nodes = (
"649 703 OFFCURVE",
"756 655 OFFCURVE",
"834 577 CURVE SMOOTH",
"912 499 OFFCURVE",
"960 392 OFFCURVE",
"960 273 CURVE SMOOTH",
"960 154 OFFCURVE",
"912 47 OFFCURVE",
"834 -31 CURVE SMOOTH",
"756 -109 OFFCURVE",
"649 -157 OFFCURVE",
"530 -157 CURVE SMOOTH",
"411 -157 OFFCURVE",
"305 -109 OFFCURVE",
"227 -31 CURVE SMOOTH",
"149 47 OFFCURVE",
"100 154 OFFCURVE",
"100 273 CURVE SMOOTH",
"100 392 OFFCURVE",
"149 499 OFFCURVE",
"227 577 CURVE SMOOTH",
"305 655 OFFCURVE",
"411 703 OFFCURVE",
"530 703 CURVE SMOOTH"
);
},
{
closed = 1;
nodes = (
"860 364 OFFCURVE",
"823 446 OFFCURVE",
"763 506 CURVE SMOOTH",
"703 566 OFFCURVE",
"621 603 OFFCURVE",
"530 603 CURVE SMOOTH",
"439 603 OFFCURVE",
"357 566 OFFCURVE",
"297 506 CURVE SMOOTH",
"237 446 OFFCURVE",
"200 364 OFFCURVE",
"200 273 CURVE SMOOTH",
"200 182 OFFCURVE",
"237 100 OFFCURVE",
"297 40 CURVE SMOOTH",
"357 -20 OFFCURVE",
"439 -57 OFFCURVE",
"530 -57 CURVE SMOOTH",
"621 -57 OFFCURVE",
"703 -20 OFFCURVE",
"763 40 CURVE SMOOTH",
"823 100 OFFCURVE",
"860 182 OFFCURVE",
"860 273 CURVE SMOOTH"
);
}
);
width = 1060;
}
);
unicode = E004;
},
{
glyphname = circle.triangle.down.outline;
lastChange = "2014-06-03 11:30:05 +0000";
layers = (
{
hints = (
{
horizontal = 1;
origin = "{2, 5}";
target = "{0, 16}";
},
{
horizontal = 1;
origin = "{0, 26}";
target = "{2, 17}";
},
{
origin = "{2, 23}";
target = "{0, 20}";
},
{
origin = "{0, 6}";
target = "{2, 11}";
}
);
layerId = "D0C94BA9-7956-4545-877F-F891ABB04BC1";
name = Regular;
paths = (
{
closed = 1;
nodes = (
"725 351 LINE SMOOTH",
"734 351 OFFCURVE",
"740 347 OFFCURVE",
"743 339 CURVE",
"744 336 OFFCURVE",
"745 334 OFFCURVE",
"745 331 CURVE SMOOTH",
"745 325 OFFCURVE",
"743 321 OFFCURVE",
"739 318 CURVE",
"544 122 LINE",
"539 118 OFFCURVE",
"534 116 OFFCURVE",
"530 116 CURVE SMOOTH",
"525 116 OFFCURVE",
"520 118 OFFCURVE",
"516 122 CURVE SMOOTH",
"321 317 LINE SMOOTH",
"317 321 OFFCURVE",
"315 326 OFFCURVE",
"315 331 CURVE SMOOTH",
"315 334 OFFCURVE",
"316 336 OFFCURVE",
"317 339 CURVE",
"320 347 OFFCURVE",
"326 351 OFFCURVE",
"335 351 CURVE SMOOTH"
);
},
{
closed = 1;
nodes = (
"411 -157 OFFCURVE",
"305 -109 OFFCURVE",
"227 -31 CURVE SMOOTH",
"149 47 OFFCURVE",
"100 154 OFFCURVE",
"100 273 CURVE SMOOTH",
"100 392 OFFCURVE",
"149 499 OFFCURVE",
"227 577 CURVE SMOOTH",
"305 655 OFFCURVE",
"411 703 OFFCURVE",
"530 703 CURVE SMOOTH",
"649 703 OFFCURVE",
"756 655 OFFCURVE",
"834 577 CURVE SMOOTH",
"912 499 OFFCURVE",
"960 392 OFFCURVE",
"960 273 CURVE SMOOTH",
"960 154 OFFCURVE",
"912 47 OFFCURVE",
"834 -31 CURVE SMOOTH",
"756 -109 OFFCURVE",
"649 -157 OFFCURVE",
"530 -157 CURVE SMOOTH"
);
},
{
closed = 1;
nodes = (
"200 182 OFFCURVE",
"237 100 OFFCURVE",
"297 40 CURVE SMOOTH",
"357 -20 OFFCURVE",
"439 -57 OFFCURVE",
"530 -57 CURVE SMOOTH",
"621 -57 OFFCURVE",
"703 -20 OFFCURVE",
"763 40 CURVE SMOOTH",
"823 100 OFFCURVE",
"860 182 OFFCURVE",
"860 273 CURVE SMOOTH",
"860 364 OFFCURVE",
"823 446 OFFCURVE",
"763 506 CURVE SMOOTH",
"703 566 OFFCURVE",
"621 603 OFFCURVE",
"530 603 CURVE SMOOTH",
"439 603 OFFCURVE",
"357 566 OFFCURVE",
"297 506 CURVE SMOOTH",
"237 446 OFFCURVE",
"200 364 OFFCURVE",
"200 273 CURVE SMOOTH"
);
}
);
width = 1060;
}
);
unicode = E005;
},
{
glyphname = circle.triangle.left.outline;
lastChange = "2014-06-03 15:49:42 +0000";
layers = (
{
hints = (
{
horizontal = 1;
origin = "{2, 11}";
target = "{0, 6}";
},
{
horizontal = 1;
origin = "{0, 20}";
target = "{2, 23}";
},
{
origin = "{2, 5}";
target = "{0, 10}";
},
{
origin = "{0, 0}";
target = "{2, 17}";
}
);
layerId = "D0C94BA9-7956-4545-877F-F891ABB04BC1";
name = Regular;
paths = (
{
closed = 1;
nodes = (
"608 78 LINE SMOOTH",
"608 70 OFFCURVE",
"604 64 OFFCURVE",
"596 59 CURVE",
"595 58 OFFCURVE",
"592 58 OFFCURVE",
"589 58 CURVE SMOOTH",
"582 58 OFFCURVE",
"578 60 OFFCURVE",
"575 64 CURVE",
"379 259 LINE",
"375 264 OFFCURVE",
"373 269 OFFCURVE",
"373 273 CURVE SMOOTH",
"373 278 OFFCURVE",
"375 283 OFFCURVE",
"379 287 CURVE SMOOTH",
"574 482 LINE SMOOTH",
"578 486 OFFCURVE",
"583 488 OFFCURVE",
"588 488 CURVE SMOOTH",
"591 488 OFFCURVE",
"593 487 OFFCURVE",
"596 486 CURVE",
"604 483 OFFCURVE",
"608 477 OFFCURVE",
"608 468 CURVE SMOOTH"
);
},
{
closed = 1;
nodes = (
"100 392 OFFCURVE",
"149 499 OFFCURVE",
"227 577 CURVE SMOOTH",
"305 655 OFFCURVE",
"411 703 OFFCURVE",
"530 703 CURVE SMOOTH",
"649 703 OFFCURVE",
"756 655 OFFCURVE",
"834 577 CURVE SMOOTH",
"912 499 OFFCURVE",
"960 392 OFFCURVE",
"960 273 CURVE SMOOTH",
"960 154 OFFCURVE",
"912 47 OFFCURVE",
"834 -31 CURVE SMOOTH",
"756 -109 OFFCURVE",
"649 -157 OFFCURVE",
"530 -157 CURVE SMOOTH",
"411 -157 OFFCURVE",
"305 -109 OFFCURVE",
"227 -31 CURVE SMOOTH",
"149 47 OFFCURVE",
"100 154 OFFCURVE",
"100 273 CURVE SMOOTH"
);
},
{
closed = 1;
nodes = (
"439 603 OFFCURVE",
"357 566 OFFCURVE",
"297 506 CURVE SMOOTH",
"237 446 OFFCURVE",
"200 364 OFFCURVE",
"200 273 CURVE SMOOTH",
"200 182 OFFCURVE",
"237 100 OFFCURVE",
"297 40 CURVE SMOOTH",
"357 -20 OFFCURVE",
"439 -57 OFFCURVE",
"530 -57 CURVE SMOOTH",
"621 -57 OFFCURVE",
"703 -20 OFFCURVE",
"763 40 CURVE SMOOTH",
"823 100 OFFCURVE",
"860 182 OFFCURVE",
"860 273 CURVE SMOOTH",
"860 364 OFFCURVE",
"823 446 OFFCURVE",
"763 506 CURVE SMOOTH",
"703 566 OFFCURVE",
"621 603 OFFCURVE",
"530 603 CURVE SMOOTH"
);
}
);
width = 1060;
}
);
unicode = E006;
},
{
glyphname = circle.triangle.right.outline;
lastChange = "2014-06-03 15:49:47 +0000";
layers = (
{
hints = (
{
horizontal = 1;
origin = "{2, 23}";
target = "{0, 20}";
},
{
horizontal = 1;
origin = "{0, 6}";
target = "{2, 11}";
},
{
origin = "{2, 17}";
target = "{0, 26}";
},
{
origin = "{0, 16}";
target = "{2, 5}";
}
);
layerId = "D0C94BA9-7956-4545-877F-F891ABB04BC1";
name = Regular;
paths = (
{
closed = 1;
nodes = (
"452 468 LINE SMOOTH",
"452 477 OFFCURVE",
"456 483 OFFCURVE",
"464 486 CURVE",
"467 487 OFFCURVE",
"469 488 OFFCURVE",
"472 488 CURVE SMOOTH",
"477 488 OFFCURVE",
"482 486 OFFCURVE",
"485 482 CURVE",
"681 287 LINE",
"685 282 OFFCURVE",
"687 277 OFFCURVE",
"687 273 CURVE SMOOTH",
"687 268 OFFCURVE",
"685 263 OFFCURVE",
"681 259 CURVE SMOOTH",
"486 64 LINE SMOOTH",
"482 60 OFFCURVE",
"477 58 OFFCURVE",
"471 58 CURVE SMOOTH",
"468 58 OFFCURVE",
"465 58 OFFCURVE",
"464 59 CURVE",
"456 64 OFFCURVE",
"452 70 OFFCURVE",
"452 78 CURVE SMOOTH"
);
},
{
closed = 1;
nodes = (
"960 154 OFFCURVE",
"912 47 OFFCURVE",
"834 -31 CURVE SMOOTH",
"756 -109 OFFCURVE",
"649 -157 OFFCURVE",
"530 -157 CURVE SMOOTH",
"411 -157 OFFCURVE",
"305 -109 OFFCURVE",
"227 -31 CURVE SMOOTH",
"149 47 OFFCURVE",
"100 154 OFFCURVE",
"100 273 CURVE SMOOTH",
"100 392 OFFCURVE",
"149 499 OFFCURVE",
"227 577 CURVE SMOOTH",
"305 655 OFFCURVE",
"411 703 OFFCURVE",
"530 703 CURVE SMOOTH",
"649 703 OFFCURVE",
"756 655 OFFCURVE",
"834 577 CURVE SMOOTH",
"912 499 OFFCURVE",
"960 392 OFFCURVE",
"960 273 CURVE SMOOTH"
);
},
{
closed = 1;
nodes = (
"621 -57 OFFCURVE",
"703 -20 OFFCURVE",
"763 40 CURVE SMOOTH",
"823 100 OFFCURVE",
"860 182 OFFCURVE",
"860 273 CURVE SMOOTH",
"860 364 OFFCURVE",
"823 446 OFFCURVE",
"763 506 CURVE SMOOTH",
"703 566 OFFCURVE",
"621 603 OFFCURVE",
"530 603 CURVE SMOOTH",
"439 603 OFFCURVE",
"357 566 OFFCURVE",
"297 506 CURVE SMOOTH",
"237 446 OFFCURVE",
"200 364 OFFCURVE",
"200 273 CURVE SMOOTH",
"200 182 OFFCURVE",
"237 100 OFFCURVE",
"297 40 CURVE SMOOTH",
"357 -20 OFFCURVE",
"439 -57 OFFCURVE",
"530 -57 CURVE SMOOTH"
);
}
);
width = 1060;
}
);
unicode = E007;
},
{
glyphname = circle.triangle.up;
lastChange = "2014-06-03 15:49:55 +0000";
layers = (
{
hints = (
{
horizontal = 1;
origin = "{1, 26}";
target = "{1, 16}";
},
{
origin = "{0, 11}";
target = "{0, 23}";
}
);
layerId = "D0C94BA9-7956-4545-877F-F891ABB04BC1";
name = Regular;
paths = (
{
closed = 1;
nodes = (
"960 155 OFFCURVE",
"912 48 OFFCURVE",
"834 -30 CURVE SMOOTH",
"756 -108 OFFCURVE",
"649 -156 OFFCURVE",
"530 -156 CURVE SMOOTH",
"411 -156 OFFCURVE",
"305 -108 OFFCURVE",
"227 -30 CURVE SMOOTH",
"149 48 OFFCURVE",
"100 155 OFFCURVE",
"100 274 CURVE SMOOTH",
"100 393 OFFCURVE",
"149 500 OFFCURVE",
"227 578 CURVE SMOOTH",
"305 656 OFFCURVE",
"411 704 OFFCURVE",
"530 704 CURVE SMOOTH",
"649 704 OFFCURVE",
"756 656 OFFCURVE",
"834 578 CURVE SMOOTH",
"912 500 OFFCURVE",
"960 393 OFFCURVE",
"960 274 CURVE SMOOTH"
);
},
{
closed = 1;
nodes = (
"725 184 LINE SMOOTH",
"734 184 OFFCURVE",
"740 188 OFFCURVE",
"743 196 CURVE",
"744 199 OFFCURVE",
"745 201 OFFCURVE",
"745 204 CURVE SMOOTH",
"745 209 OFFCURVE",
"743 214 OFFCURVE",
"739 217 CURVE",
"544 413 LINE",
"539 417 OFFCURVE",
"534 419 OFFCURVE",
"530 419 CURVE SMOOTH",
"526 419 OFFCURVE",
"521 417 OFFCURVE",
"516 413 CURVE",
"321 217 LINE",
"317 214 OFFCURVE",
"315 209 OFFCURVE",
"315 204 CURVE SMOOTH",
"315 201 OFFCURVE",
"316 199 OFFCURVE",
"317 196 CURVE",
"320 188 OFFCURVE",
"326 184 OFFCURVE",
"335 184 CURVE SMOOTH"
);
}
);
width = 1060;
}
);
unicode = E008;
},
{
glyphname = circle.triangle.down;
lastChange = "2014-06-03 15:50:01 +0000";
layers = (
{
hints = (
{
horizontal = 1;
origin = "{1, 10}";
target = "{1, 0}";
},
{
origin = "{0, 23}";
target = "{0, 11}";
}
);
layerId = "D0C94BA9-7956-4545-877F-F891ABB04BC1";
name = Regular;
paths = (
{
closed = 1;
nodes = (
"100 393 OFFCURVE",
"149 500 OFFCURVE",
"227 578 CURVE SMOOTH",
"305 656 OFFCURVE",
"411 704 OFFCURVE",
"530 704 CURVE SMOOTH",
"649 704 OFFCURVE",
"756 656 OFFCURVE",
"834 578 CURVE SMOOTH",
"912 500 OFFCURVE",
"960 393 OFFCURVE",
"960 274 CURVE SMOOTH",
"960 155 OFFCURVE",
"912 49 OFFCURVE",
"834 -29 CURVE SMOOTH",
"756 -107 OFFCURVE",
"649 -156 OFFCURVE",
"530 -156 CURVE SMOOTH",
"411 -156 OFFCURVE",
"305 -107 OFFCURVE",
"227 -29 CURVE SMOOTH",
"149 49 OFFCURVE",
"100 155 OFFCURVE",
"100 274 CURVE SMOOTH"
);
},
{
closed = 1;
nodes = (
"335 364 LINE SMOOTH",
"326 364 OFFCURVE",
"320 360 OFFCURVE",
"317 352 CURVE",
"316 349 OFFCURVE",
"315 347 OFFCURVE",
"315 344 CURVE SMOOTH",
"315 338 OFFCURVE",
"317 334 OFFCURVE",
"321 331 CURVE",
"516 135 LINE SMOOTH",
"520 131 OFFCURVE",
"525 129 OFFCURVE",
"530 129 CURVE SMOOTH",
"534 129 OFFCURVE",
"539 131 OFFCURVE",
"544 135 CURVE",
"739 331 LINE",
"743 334 OFFCURVE",
"745 338 OFFCURVE",
"745 344 CURVE SMOOTH",
"745 347 OFFCURVE",
"744 349 OFFCURVE",
"743 352 CURVE",
"740 360 OFFCURVE",
"734 364 OFFCURVE",
"725 364 CURVE SMOOTH"
);
}
);
width = 1060;
}
);
unicode = E009;
},
{
glyphname = circle.triangle.left;
lastChange = "2014-06-03 15:50:07 +0000";
layers = (
{
hints = (
{
horizontal = 1;
origin = "{0, 11}";
target = "{0, 23}";
},
{
origin = "{1, 16}";
target = "{1, 26}";
}
);
layerId = "D0C94BA9-7956-4545-877F-F891ABB04BC1";
name = Regular;
paths = (
{
closed = 1;
nodes = (
"649 704 OFFCURVE",
"756 656 OFFCURVE",
"834 578 CURVE SMOOTH",
"912 500 OFFCURVE",
"960 393 OFFCURVE",
"960 274 CURVE SMOOTH",
"960 155 OFFCURVE",
"912 48 OFFCURVE",
"834 -30 CURVE SMOOTH",
"756 -108 OFFCURVE",
"649 -156 OFFCURVE",
"530 -156 CURVE SMOOTH",
"411 -156 OFFCURVE",
"305 -108 OFFCURVE",
"227 -30 CURVE SMOOTH",
"149 48 OFFCURVE",
"100 155 OFFCURVE",
"100 274 CURVE SMOOTH",
"100 393 OFFCURVE",
"149 500 OFFCURVE",
"227 578 CURVE SMOOTH",
"305 656 OFFCURVE",
"411 704 OFFCURVE",
"530 704 CURVE SMOOTH"
);
},
{
closed = 1;
nodes = (
"619 469 LINE SMOOTH",
"619 478 OFFCURVE",
"615 484 OFFCURVE",
"607 487 CURVE",
"603 488 OFFCURVE",
"600 489 OFFCURVE",
"599 489 CURVE SMOOTH",
"594 489 OFFCURVE",
"590 487 OFFCURVE",
"586 483 CURVE SMOOTH",
"391 288 LINE SMOOTH",
"387 284 OFFCURVE",
"385 279 OFFCURVE",
"385 274 CURVE SMOOTH",
"385 270 OFFCURVE",
"387 265 OFFCURVE",
"391 260 CURVE",
"587 65 LINE",
"590 61 OFFCURVE",
"594 59 OFFCURVE",
"600 59 CURVE SMOOTH",
"603 59 OFFCURVE",
"606 59 OFFCURVE",
"607 60 CURVE",
"615 64 OFFCURVE",
"619 70 OFFCURVE",
"619 79 CURVE SMOOTH"
);
}
);
width = 1060;
}
);
unicode = E00A;
},
{
glyphname = circle.triangle.right;
lastChange = "2014-06-03 15:50:11 +0000";
layers = (
{
hints = (
{
horizontal = 1;
origin = "{0, 23}";
target = "{0, 11}";
},
{
origin = "{1, 0}";
target = "{1, 10}";
}
);
layerId = "D0C94BA9-7956-4545-877F-F891ABB04BC1";
name = Regular;
paths = (
{
closed = 1;
nodes = (
"411 -156 OFFCURVE",
"305 -108 OFFCURVE",
"227 -30 CURVE SMOOTH",
"149 48 OFFCURVE",
"100 155 OFFCURVE",
"100 274 CURVE SMOOTH",
"100 393 OFFCURVE",
"149 500 OFFCURVE",
"227 578 CURVE SMOOTH",
"305 656 OFFCURVE",
"411 704 OFFCURVE",
"530 704 CURVE SMOOTH",
"649 704 OFFCURVE",
"756 656 OFFCURVE",
"834 578 CURVE SMOOTH",
"912 500 OFFCURVE",
"960 393 OFFCURVE",
"960 274 CURVE SMOOTH",
"960 155 OFFCURVE",
"912 48 OFFCURVE",
"834 -30 CURVE SMOOTH",
"756 -108 OFFCURVE",
"649 -156 OFFCURVE",
"530 -156 CURVE SMOOTH"
);
},
{
closed = 1;
nodes = (
"440 79 LINE SMOOTH",
"440 71 OFFCURVE",
"444 65 OFFCURVE",
"452 60 CURVE",
"453 59 OFFCURVE",
"456 59 OFFCURVE",
"459 59 CURVE SMOOTH",
"465 59 OFFCURVE",
"470 61 OFFCURVE",
"473 65 CURVE",
"669 260 LINE SMOOTH",
"673 264 OFFCURVE",
"675 269 OFFCURVE",
"675 274 CURVE SMOOTH",
"675 278 OFFCURVE",
"673 283 OFFCURVE",
"669 288 CURVE",
"473 483 LINE",
"470 487 OFFCURVE",
"465 489 OFFCURVE",
"460 489 CURVE SMOOTH",
"457 489 OFFCURVE",
"455 488 OFFCURVE",
"452 487 CURVE",
"444 484 OFFCURVE",
"440 478 OFFCURVE",
"440 469 CURVE SMOOTH"
);
}
);
width = 1060;
}
);
unicode = E00B;
},
{
glyphname = square;
lastChange = "2014-06-03 15:50:15 +0000";
layers = (
{
hints = (
{
horizontal = 1;
origin = "{0, 14}";
target = "{0, 27}";
},
{
origin = "{0, 20}";
target = "{0, 7}";
}
);
layerId = "D0C94BA9-7956-4545-877F-F891ABB04BC1";
name = Regular;
paths = (
{
closed = 1;
nodes = (
"810 703 LINE SMOOTH",
"851 703 OFFCURVE",
"889 686 OFFCURVE",
"916 659 CURVE SMOOTH",
"943 632 OFFCURVE",
"960 594 OFFCURVE",
"960 553 CURVE SMOOTH",
"960 -7 LINE SMOOTH",
"960 -48 OFFCURVE",
"943 -86 OFFCURVE",
"916 -113 CURVE SMOOTH",
"889 -140 OFFCURVE",
"851 -157 OFFCURVE",
"810 -157 CURVE SMOOTH",
"250 -157 LINE SMOOTH",
"209 -157 OFFCURVE",
"171 -140 OFFCURVE",
"144 -113 CURVE SMOOTH",
"117 -86 OFFCURVE",
"100 -48 OFFCURVE",
"100 -7 CURVE SMOOTH",
"100 553 LINE SMOOTH",
"100 594 OFFCURVE",
"117 632 OFFCURVE",
"144 659 CURVE SMOOTH",
"171 686 OFFCURVE",
"209 703 OFFCURVE",
"250 703 CURVE SMOOTH"
);
}
);
width = 1060;
}
);
unicode = E01C;
},
{
glyphname = square.check;
lastChange = "2014-06-03 15:50:21 +0000";
layers = (
{
hints = (
{
horizontal = 1;
origin = "{0, 7}";
target = "{0, 20}";
},
{
origin = "{0, 13}";
target = "{0, 0}";
}
);
layerId = "D0C94BA9-7956-4545-877F-F891ABB04BC1";
name = Regular;
paths = (
{
closed = 1;
nodes = (
"960 -7 LINE SMOOTH",
"960 -48 OFFCURVE",
"943 -86 OFFCURVE",
"916 -113 CURVE SMOOTH",
"889 -140 OFFCURVE",
"851 -157 OFFCURVE",
"810 -157 CURVE SMOOTH",
"250 -157 LINE SMOOTH",
"209 -157 OFFCURVE",
"171 -140 OFFCURVE",
"144 -113 CURVE SMOOTH",
"117 -86 OFFCURVE",
"100 -48 OFFCURVE",
"100 -7 CURVE SMOOTH",
"100 553 LINE SMOOTH",
"100 594 OFFCURVE",
"117 632 OFFCURVE",
"144 659 CURVE SMOOTH",
"171 686 OFFCURVE",
"209 703 OFFCURVE",
"250 703 CURVE SMOOTH",
"810 703 LINE SMOOTH",
"851 703 OFFCURVE",
"889 686 OFFCURVE",
"916 659 CURVE SMOOTH",
"943 632 OFFCURVE",
"960 594 OFFCURVE",
"960 553 CURVE SMOOTH"
);
},
{
closed = 1;
nodes = (
"811 394 LINE",
"818 402 OFFCURVE",
"821 410 OFFCURVE",
"821 418 CURVE SMOOTH",
"821 426 OFFCURVE",
"818 434 OFFCURVE",
"811 442 CURVE",
"765 487 LINE",
"757 494 OFFCURVE",
"749 497 OFFCURVE",
"741 497 CURVE SMOOTH",
"732 497 OFFCURVE",
"725 494 OFFCURVE",
"718 487 CURVE SMOOTH",
"451 220 LINE",
"342 329 LINE",
"334 336 OFFCURVE",
"326 339 OFFCURVE",
"318 339 CURVE SMOOTH",
"309 339 OFFCURVE",
"302 336 OFFCURVE",
"295 329 CURVE SMOOTH",
"249 283 LINE SMOOTH",
"242 276 OFFCURVE",
"239 269 OFFCURVE",
"239 260 CURVE SMOOTH",
"239 251 OFFCURVE",
"242 243 OFFCURVE",
"249 236 CURVE SMOOTH",
"427 58 LINE",
"433 51 OFFCURVE",
"441 48 OFFCURVE",
"450 48 CURVE SMOOTH",
"459 48 OFFCURVE",
"467 51 OFFCURVE",
"474 58 CURVE SMOOTH"
);
}
);
width = 1060;
}
);
unicode = E01D;
},
{
glyphname = square.plus;
lastChange = "2014-06-03 15:50:26 +0000";
layers = (
{
hints = (
{
horizontal = 1;
origin = "{1, 21}";
target = "{1, 14}";
},
{
origin = "{1, 23}";
target = "{1, 30}";
}
);
layerId = "D0C94BA9-7956-4545-877F-F891ABB04BC1";
name = Regular;
paths = (
{
closed = 1;
nodes = (
"810 703 LINE SMOOTH",
"851 703 OFFCURVE",
"889 686 OFFCURVE",
"916 659 CURVE SMOOTH",
"943 632 OFFCURVE",
"960 594 OFFCURVE",
"960 553 CURVE SMOOTH",
"960 -7 LINE SMOOTH",
"960 -48 OFFCURVE",
"943 -86 OFFCURVE",
"916 -113 CURVE SMOOTH",
"889 -140 OFFCURVE",
"851 -157 OFFCURVE",
"810 -157 CURVE SMOOTH",
"250 -157 LINE SMOOTH",
"209 -157 OFFCURVE",
"171 -140 OFFCURVE",
"144 -113 CURVE SMOOTH",
"117 -86 OFFCURVE",
"100 -48 OFFCURVE",
"100 -7 CURVE SMOOTH",
"100 553 LINE SMOOTH",
"100 594 OFFCURVE",
"117 632 OFFCURVE",
"144 659 CURVE SMOOTH",
"171 686 OFFCURVE",
"209 703 OFFCURVE",
"250 703 CURVE SMOOTH"
);
},
{
closed = 1;
nodes = (
"820 303 LINE SMOOTH",
"820 326 OFFCURVE",
"803 343 OFFCURVE",
"780 343 CURVE SMOOTH",
"600 343 LINE",
"600 523 LINE SMOOTH",
"600 546 OFFCURVE",
"583 563 OFFCURVE",
"560 563 CURVE SMOOTH",
"500 563 LINE SMOOTH",
"477 563 OFFCURVE",
"460 546 OFFCURVE",
"460 523 CURVE SMOOTH",
"460 343 LINE",
"280 343 LINE SMOOTH",
"257 343 OFFCURVE",
"240 326 OFFCURVE",
"240 303 CURVE SMOOTH",
"240 243 LINE SMOOTH",
"240 220 OFFCURVE",
"257 203 OFFCURVE",
"280 203 CURVE SMOOTH",
"460 203 LINE",
"460 23 LINE SMOOTH",
"460 0 OFFCURVE",
"477 -17 OFFCURVE",
"500 -17 CURVE SMOOTH",
"560 -17 LINE SMOOTH",
"583 -17 OFFCURVE",
"600 0 OFFCURVE",
"600 23 CURVE SMOOTH",
"600 203 LINE",
"780 203 LINE SMOOTH",
"803 203 OFFCURVE",
"820 220 OFFCURVE",
"820 243 CURVE SMOOTH"
);
}
);
width = 1060;
}
);
unicode = E01E;
},
{
glyphname = square.minus;
lastChange = "2014-06-03 15:50:36 +0000";
layers = (
{
hints = (
{
horizontal = 1;
origin = "{1, 11}";
target = "{1, 4}";
},
{
origin = "{0, 20}";
target = "{0, 7}";
}
);
layerId = "D0C94BA9-7956-4545-877F-F891ABB04BC1";
name = Regular;
paths = (
{
closed = 1;
nodes = (
"810 703 LINE SMOOTH",
"851 703 OFFCURVE",
"889 686 OFFCURVE",
"916 659 CURVE SMOOTH",
"943 632 OFFCURVE",
"960 594 OFFCURVE",
"960 553 CURVE SMOOTH",
"960 -7 LINE SMOOTH",
"960 -48 OFFCURVE",
"943 -86 OFFCURVE",
"916 -113 CURVE SMOOTH",
"889 -140 OFFCURVE",
"851 -157 OFFCURVE",
"810 -157 CURVE SMOOTH",
"250 -157 LINE SMOOTH",
"209 -157 OFFCURVE",
"171 -140 OFFCURVE",
"144 -113 CURVE SMOOTH",
"117 -86 OFFCURVE",
"100 -48 OFFCURVE",
"100 -7 CURVE SMOOTH",
"100 553 LINE SMOOTH",
"100 594 OFFCURVE",
"117 632 OFFCURVE",
"144 659 CURVE SMOOTH",
"171 686 OFFCURVE",
"209 703 OFFCURVE",
"250 703 CURVE SMOOTH"
);
},
{
closed = 1;
nodes = (
"820 303 LINE SMOOTH",
"820 326 OFFCURVE",
"803 343 OFFCURVE",
"780 343 CURVE SMOOTH",
"280 343 LINE SMOOTH",
"257 343 OFFCURVE",
"240 326 OFFCURVE",
"240 303 CURVE SMOOTH",
"240 243 LINE SMOOTH",
"240 220 OFFCURVE",
"257 203 OFFCURVE",
"280 203 CURVE SMOOTH",
"780 203 LINE SMOOTH",
"803 203 OFFCURVE",
"820 220 OFFCURVE",
"820 243 CURVE SMOOTH"
);
}
);
width = 1060;
}
);
unicode = E01F;
},
{
glyphname = square.x;
lastChange = "2014-06-03 15:50:40 +0000";
layers = (
{
hints = (
{
horizontal = 1;
origin = "{0, 14}";
target = "{0, 27}";
},
{
origin = "{0, 20}";
target = "{0, 7}";
}
);
layerId = "D0C94BA9-7956-4545-877F-F891ABB04BC1";
name = Regular;
paths = (
{
closed = 1;
nodes = (
"810 703 LINE SMOOTH",
"851 703 OFFCURVE",
"889 686 OFFCURVE",
"916 659 CURVE SMOOTH",
"943 631 OFFCURVE",
"960 594 OFFCURVE",
"960 553 CURVE SMOOTH",
"960 -7 LINE SMOOTH",
"960 -48 OFFCURVE",
"943 -86 OFFCURVE",
"916 -113 CURVE SMOOTH",
"889 -140 OFFCURVE",
"851 -157 OFFCURVE",
"810 -157 CURVE SMOOTH",
"250 -157 LINE SMOOTH",
"209 -157 OFFCURVE",
"171 -140 OFFCURVE",
"144 -113 CURVE SMOOTH",
"117 -86 OFFCURVE",
"100 -48 OFFCURVE",
"100 -7 CURVE SMOOTH",
"100 553 LINE SMOOTH",
"100 594 OFFCURVE",
"117 631 OFFCURVE",
"144 659 CURVE SMOOTH",
"171 686 OFFCURVE",
"209 703 OFFCURVE",
"250 703 CURVE SMOOTH"
);
},
{
closed = 1;
nodes = (
"629 272 LINE",
"757 400 LINE SMOOTH",
"764 407 OFFCURVE",
"768 417 OFFCURVE",
"768 428 CURVE SMOOTH",
"768 438 OFFCURVE",
"764 447 OFFCURVE",
"757 456 CURVE",
"714 499 LINE",
"705 506 OFFCURVE",
"696 510 OFFCURVE",
"686 510 CURVE SMOOTH",
"675 510 OFFCURVE",
"665 506 OFFCURVE",
"658 499 CURVE SMOOTH",
"530 371 LINE",
"402 499 LINE SMOOTH",
"394 507 OFFCURVE",
"385 511 OFFCURVE",
"374 511 CURVE SMOOTH",
"363 511 OFFCURVE",
"353 507 OFFCURVE",
"346 499 CURVE",
"303 457 LINE",
"295 450 OFFCURVE",
"291 440 OFFCURVE",
"291 429 CURVE SMOOTH",
"291 418 OFFCURVE",
"295 408 OFFCURVE",
"303 400 CURVE SMOOTH",
"431 272 LINE",
"304 145 LINE SMOOTH",
"296 137 OFFCURVE",
"292 127 OFFCURVE",
"292 116 CURVE SMOOTH",
"292 105 OFFCURVE",
"296 96 OFFCURVE",
"304 88 CURVE SMOOTH",
"347 46 LINE SMOOTH",
"355 38 OFFCURVE",
"364 34 OFFCURVE",
"375 34 CURVE SMOOTH",
"386 34 OFFCURVE",
"395 38 OFFCURVE",
"403 46 CURVE SMOOTH",
"530 173 LINE",
"657 47 LINE SMOOTH",
"665 39 OFFCURVE",
"674 35 OFFCURVE",
"685 35 CURVE SMOOTH",
"696 35 OFFCURVE",
"705 39 OFFCURVE",
"713 47 CURVE SMOOTH",
"756 89 LINE SMOOTH",
"764 97 OFFCURVE",
"768 106 OFFCURVE",
"768 117 CURVE SMOOTH",
"768 128 OFFCURVE",
"764 138 OFFCURVE",
"756 146 CURVE SMOOTH"
);
}
);
width = 1060;
}
);
unicode = E020;
},
{
glyphname = square.outline;
lastChange = "2014-06-03 15:50:45 +0000";
layers = (
{
hints = (
{
horizontal = 1;
origin = "{0, 14}";
target = "{0, 27}";
},
{
origin = "{0, 20}";
target = "{0, 7}";
}
);
layerId = "D0C94BA9-7956-4545-877F-F891ABB04BC1";
name = Regular;
paths = (
{
closed = 1;
nodes = (
"789 703 LINE SMOOTH",
"836 703 OFFCURVE",
"878 684 OFFCURVE",
"910 653 CURVE SMOOTH",
"941 621 OFFCURVE",
"960 579 OFFCURVE",
"960 532 CURVE SMOOTH",
"960 14 LINE SMOOTH",
"960 -33 OFFCURVE",
"941 -76 OFFCURVE",
"910 -107 CURVE SMOOTH",
"878 -138 OFFCURVE",
"836 -157 OFFCURVE",
"789 -157 CURVE SMOOTH",
"271 -157 LINE SMOOTH",
"224 -157 OFFCURVE",
"181 -138 OFFCURVE",
"150 -107 CURVE SMOOTH",
"119 -76 OFFCURVE",
"100 -33 OFFCURVE",
"100 14 CURVE SMOOTH",
"100 532 LINE SMOOTH",
"100 579 OFFCURVE",
"119 621 OFFCURVE",
"150 653 CURVE SMOOTH",
"181 684 OFFCURVE",
"224 703 OFFCURVE",
"271 703 CURVE SMOOTH"
);
},
{
closed = 1;
nodes = (
"860 532 LINE SMOOTH",
"860 571 OFFCURVE",
"828 603 OFFCURVE",
"789 603 CURVE SMOOTH",
"271 603 LINE SMOOTH",
"232 603 OFFCURVE",
"200 571 OFFCURVE",
"200 532 CURVE SMOOTH",
"200 14 LINE SMOOTH",
"200 -25 OFFCURVE",
"232 -57 OFFCURVE",
"271 -57 CURVE SMOOTH",
"789 -57 LINE SMOOTH",
"828 -57 OFFCURVE",
"860 -25 OFFCURVE",
"860 14 CURVE SMOOTH"
);
}
);
width = 1060;
}
);
unicode = E021;
},
{
glyphname = square.check.outline;
lastChange = "2014-06-03 15:50:50 +0000";
layers = (
{
hints = (
{
horizontal = 1;
origin = "{1, 11}";
target = "{2, 6}";
},
{
horizontal = 1;
origin = "{2, 22}";
target = "{1, 4}";
},
{
origin = "{1, 8}";
target = "{2, 7}";
},
{
origin = "{2, 35}";
target = "{1, 15}";
}
);
layerId = "D0C94BA9-7956-4545-877F-F891ABB04BC1";
name = Regular;
paths = (
{
closed = 1;
nodes = (
"789 703 LINE SMOOTH",
"836 703 OFFCURVE",
"878 684 OFFCURVE",
"910 653 CURVE SMOOTH",
"941 621 OFFCURVE",
"960 579 OFFCURVE",
"960 532 CURVE SMOOTH",
"960 14 LINE SMOOTH",
"960 -33 OFFCURVE",
"941 -76 OFFCURVE",
"910 -107 CURVE SMOOTH",
"878 -138 OFFCURVE",
"836 -157 OFFCURVE",
"789 -157 CURVE SMOOTH",
"271 -157 LINE SMOOTH",
"224 -157 OFFCURVE",
"181 -138 OFFCURVE",
"150 -107 CURVE SMOOTH",
"119 -76 OFFCURVE",
"100 -33 OFFCURVE",
"100 14 CURVE SMOOTH",
"100 532 LINE SMOOTH",
"100 579 OFFCURVE",
"119 621 OFFCURVE",
"150 653 CURVE SMOOTH",
"181 684 OFFCURVE",
"224 703 OFFCURVE",
"271 703 CURVE SMOOTH"
);
},
{
closed = 1;
nodes = (
"860 532 LINE SMOOTH",
"860 571 OFFCURVE",
"828 603 OFFCURVE",
"789 603 CURVE SMOOTH",
"271 603 LINE SMOOTH",
"232 603 OFFCURVE",
"200 571 OFFCURVE",
"200 532 CURVE SMOOTH",
"200 14 LINE SMOOTH",
"200 -25 OFFCURVE",
"232 -57 OFFCURVE",
"271 -57 CURVE SMOOTH",
"789 -57 LINE SMOOTH",
"828 -57 OFFCURVE",
"860 -25 OFFCURVE",
"860 14 CURVE SMOOTH"
);
},
{
closed = 1;
nodes = (
"488 87 LINE",
"482 80 OFFCURVE",
"474 77 OFFCURVE",
"465 77 CURVE SMOOTH",
"456 77 OFFCURVE",
"448 80 OFFCURVE",
"441 87 CURVE SMOOTH",
"292 237 LINE SMOOTH",
"285 244 OFFCURVE",
"282 252 OFFCURVE",
"282 261 CURVE SMOOTH",
"282 270 OFFCURVE",
"285 278 OFFCURVE",
"292 284 CURVE",
"337 329 LINE SMOOTH",
"344 336 OFFCURVE",
"351 339 OFFCURVE",
"360 339 CURVE SMOOTH",
"368 339 OFFCURVE",
"376 336 OFFCURVE",
"384 329 CURVE",
"465 249 LINE",
"676 459 LINE",
"684 466 OFFCURVE",
"692 469 OFFCURVE",
"700 469 CURVE SMOOTH",
"707 469 OFFCURVE",
"715 466 OFFCURVE",
"723 459 CURVE",
"768 414 LINE SMOOTH",
"775 407 OFFCURVE",
"778 399 OFFCURVE",
"778 390 CURVE SMOOTH",
"778 381 OFFCURVE",
"775 373 OFFCURVE",
"768 367 CURVE"
);
}
);
width = 1060;
}
);
unicode = E022;
},
{
glyphname = square.plus.outline;
lastChange = "2014-06-03 15:50:54 +0000";
layers = (
{
hints = (
{
horizontal = 1;
origin = "{1, 11}";
target = "{2, 13}";
},
{
horizontal = 1;
origin = "{2, 30}";
target = "{1, 4}";
},
{
origin = "{1, 8}";
target = "{2, 21}";
},
{
origin = "{2, 4}";
target = "{1, 15}";
}
);
layerId = "D0C94BA9-7956-4545-877F-F891ABB04BC1";
name = Regular;
paths = (
{
closed = 1;
nodes = (
"789 703 LINE SMOOTH",
"836 703 OFFCURVE",
"878 684 OFFCURVE",
"910 653 CURVE SMOOTH",
"941 621 OFFCURVE",
"960 579 OFFCURVE",
"960 532 CURVE SMOOTH",
"960 14 LINE SMOOTH",
"960 -33 OFFCURVE",
"941 -76 OFFCURVE",
"910 -107 CURVE SMOOTH",
"878 -138 OFFCURVE",
"836 -157 OFFCURVE",
"789 -157 CURVE SMOOTH",
"271 -157 LINE SMOOTH",
"224 -157 OFFCURVE",
"181 -138 OFFCURVE",
"150 -107 CURVE SMOOTH",
"119 -76 OFFCURVE",
"100 -33 OFFCURVE",
"100 14 CURVE SMOOTH",
"100 532 LINE SMOOTH",
"100 579 OFFCURVE",
"119 621 OFFCURVE",
"150 653 CURVE SMOOTH",
"181 684 OFFCURVE",
"224 703 OFFCURVE",
"271 703 CURVE SMOOTH"
);
},
{
closed = 1;
nodes = (
"860 532 LINE SMOOTH",
"860 571 OFFCURVE",
"828 603 OFFCURVE",
"789 603 CURVE SMOOTH",
"271 603 LINE SMOOTH",
"232 603 OFFCURVE",
"200 571 OFFCURVE",
"200 532 CURVE SMOOTH",
"200 14 LINE SMOOTH",
"200 -25 OFFCURVE",
"232 -57 OFFCURVE",
"271 -57 CURVE SMOOTH",
"789 -57 LINE SMOOTH",
"828 -57 OFFCURVE",
"860 -25 OFFCURVE",
"860 14 CURVE SMOOTH"
);
},
{
closed = 1;
nodes = (
"699 343 LINE SMOOTH",
"722 343 OFFCURVE",
"739 326 OFFCURVE",
"739 303 CURVE SMOOTH",
"739 243 LINE SMOOTH",
"739 220 OFFCURVE",
"722 203 OFFCURVE",
"699 203 CURVE SMOOTH",
"600 203 LINE",
"600 103 LINE SMOOTH",
"600 80 OFFCURVE",
"583 63 OFFCURVE",
"560 63 CURVE SMOOTH",
"500 63 LINE SMOOTH",
"477 63 OFFCURVE",
"460 80 OFFCURVE",
"460 103 CURVE SMOOTH",
"460 203 LINE",
"359 203 LINE SMOOTH",
"336 203 OFFCURVE",
"319 220 OFFCURVE",
"319 243 CURVE SMOOTH",
"319 303 LINE SMOOTH",
"319 326 OFFCURVE",
"336 343 OFFCURVE",
"359 343 CURVE SMOOTH",
"460 343 LINE",
"460 443 LINE SMOOTH",
"460 466 OFFCURVE",
"477 483 OFFCURVE",
"500 483 CURVE SMOOTH",
"560 483 LINE SMOOTH",
"583 483 OFFCURVE",
"600 466 OFFCURVE",
"600 443 CURVE SMOOTH",
"600 343 LINE"
);
}
);
width = 1060;
}
);
unicode = E023;
},
{
glyphname = "square.minus-outline";
lastChange = "2014-06-03 15:50:58 +0000";
layers = (
{
hints = (
{
horizontal = 1;
origin = "{1, 11}";
target = "{2, 4}";
},
{
horizontal = 1;
origin = "{2, 11}";
target = "{1, 4}";
},
{
origin = "{1, 8}";
target = "{2, 7}";
},
{
origin = "{2, 0}";
target = "{1, 15}";
}
);
layerId = "D0C94BA9-7956-4545-877F-F891ABB04BC1";
name = Regular;
paths = (
{
closed = 1;
nodes = (
"789 703 LINE SMOOTH",
"836 703 OFFCURVE",
"878 684 OFFCURVE",
"910 653 CURVE SMOOTH",
"941 621 OFFCURVE",
"960 579 OFFCURVE",
"960 532 CURVE SMOOTH",
"960 14 LINE SMOOTH",
"960 -33 OFFCURVE",
"941 -76 OFFCURVE",
"910 -107 CURVE SMOOTH",
"878 -138 OFFCURVE",
"836 -157 OFFCURVE",
"789 -157 CURVE SMOOTH",
"271 -157 LINE SMOOTH",
"224 -157 OFFCURVE",
"181 -138 OFFCURVE",
"150 -107 CURVE SMOOTH",
"119 -76 OFFCURVE",
"100 -33 OFFCURVE",
"100 14 CURVE SMOOTH",
"100 532 LINE SMOOTH",
"100 579 OFFCURVE",
"119 621 OFFCURVE",
"150 653 CURVE SMOOTH",
"181 684 OFFCURVE",
"224 703 OFFCURVE",
"271 703 CURVE SMOOTH"
);
},
{
closed = 1;
nodes = (
"860 532 LINE SMOOTH",
"860 571 OFFCURVE",
"828 603 OFFCURVE",
"789 603 CURVE SMOOTH",
"271 603 LINE SMOOTH",
"232 603 OFFCURVE",
"200 571 OFFCURVE",
"200 532 CURVE SMOOTH",
"200 14 LINE SMOOTH",
"200 -25 OFFCURVE",
"232 -57 OFFCURVE",
"271 -57 CURVE SMOOTH",
"789 -57 LINE SMOOTH",
"828 -57 OFFCURVE",
"860 -25 OFFCURVE",
"860 14 CURVE SMOOTH"
);
},
{
closed = 1;
nodes = (
"739 243 LINE SMOOTH",
"739 220 OFFCURVE",
"722 203 OFFCURVE",
"699 203 CURVE SMOOTH",
"359 203 LINE SMOOTH",
"336 203 OFFCURVE",
"319 220 OFFCURVE",
"319 243 CURVE SMOOTH",
"319 303 LINE SMOOTH",
"319 326 OFFCURVE",
"336 343 OFFCURVE",
"359 343 CURVE SMOOTH",
"699 343 LINE SMOOTH",
"722 343 OFFCURVE",
"739 326 OFFCURVE",
"739 303 CURVE SMOOTH"
);
}
);
width = 1060;
}
);
unicode = E024;
},
{
glyphname = square.x.outline;
lastChange = "2014-06-03 15:51:04 +0000";
layers = (
{
hints = (
{
horizontal = 1;
origin = "{1, 11}";
target = "{2, 21}";
},
{
horizontal = 1;
origin = "{2, 45}";
target = "{1, 4}";
},
{
origin = "{1, 8}";
target = "{2, 30}";
},
{
origin = "{2, 6}";
target = "{1, 15}";
}
);
layerId = "D0C94BA9-7956-4545-877F-F891ABB04BC1";
name = Regular;
paths = (
{
closed = 1;
nodes = (
"789 703 LINE SMOOTH",
"837 703 OFFCURVE",
"879 684 OFFCURVE",
"910 653 CURVE SMOOTH",
"941 621 OFFCURVE",
"960 579 OFFCURVE",
"960 532 CURVE SMOOTH",
"960 14 LINE SMOOTH",
"960 -33 OFFCURVE",
"941 -76 OFFCURVE",
"910 -107 CURVE SMOOTH",
"879 -138 OFFCURVE",
"837 -157 OFFCURVE",
"789 -157 CURVE SMOOTH",
"271 -157 LINE SMOOTH",
"224 -157 OFFCURVE",
"181 -138 OFFCURVE",
"150 -107 CURVE SMOOTH",
"119 -76 OFFCURVE",
"100 -33 OFFCURVE",
"100 14 CURVE SMOOTH",
"100 532 LINE SMOOTH",
"100 579 OFFCURVE",
"119 621 OFFCURVE",
"150 653 CURVE SMOOTH",
"181 684 OFFCURVE",
"224 703 OFFCURVE",
"271 703 CURVE SMOOTH"
);
},
{
closed = 1;
nodes = (
"860 532 LINE SMOOTH",
"860 571 OFFCURVE",
"828 603 OFFCURVE",
"789 603 CURVE SMOOTH",
"271 603 LINE SMOOTH",
"232 603 OFFCURVE",
"200 571 OFFCURVE",
"200 532 CURVE SMOOTH",
"200 14 LINE SMOOTH",
"200 -25 OFFCURVE",
"232 -57 OFFCURVE",
"271 -57 CURVE SMOOTH",
"789 -57 LINE SMOOTH",
"828 -57 OFFCURVE",
"860 -25 OFFCURVE",
"860 14 CURVE SMOOTH"
);
},
{
closed = 1;
nodes = (
"700 203 LINE",
"707 194 OFFCURVE",
"711 185 OFFCURVE",
"711 174 CURVE SMOOTH",
"711 164 OFFCURVE",
"707 155 OFFCURVE",
"700 146 CURVE",
"657 104 LINE SMOOTH",
"649 96 OFFCURVE",
"639 92 OFFCURVE",
"628 92 CURVE SMOOTH",
"617 92 OFFCURVE",
"608 96 OFFCURVE",
"601 104 CURVE",
"531 174 LINE",
"460 103 LINE SMOOTH",
"452 95 OFFCURVE",
"442 91 OFFCURVE",
"431 91 CURVE SMOOTH",
"420 91 OFFCURVE",
"411 95 OFFCURVE",
"403 103 CURVE SMOOTH",
"361 145 LINE SMOOTH",
"353 153 OFFCURVE",
"349 162 OFFCURVE",
"349 173 CURVE SMOOTH",
"349 184 OFFCURVE",
"353 194 OFFCURVE",
"361 202 CURVE SMOOTH",
"432 273 LINE",
"360 344 LINE",
"352 351 OFFCURVE",
"348 361 OFFCURVE",
"348 372 CURVE SMOOTH",
"348 383 OFFCURVE",
"352 393 OFFCURVE",
"360 401 CURVE SMOOTH",
"403 443 LINE SMOOTH",
"411 451 OFFCURVE",
"421 455 OFFCURVE",
"432 455 CURVE SMOOTH",
"443 455 OFFCURVE",
"452 451 OFFCURVE",
"459 443 CURVE",
"531 372 LINE",
"601 442 LINE SMOOTH",
"609 450 OFFCURVE",
"618 454 OFFCURVE",
"629 454 CURVE SMOOTH",
"640 454 OFFCURVE",
"650 450 OFFCURVE",
"658 442 CURVE SMOOTH",
"700 400 LINE SMOOTH",
"708 392 OFFCURVE",
"712 382 OFFCURVE",
"712 371 CURVE SMOOTH",
"712 360 OFFCURVE",
"708 351 OFFCURVE",
"700 343 CURVE SMOOTH",
"630 273 LINE"
);
}
);
width = 1060;
}
);
unicode = E025;
},
{
glyphname = square.dash;
lastChange = "2014-06-03 16:01:26 +0000";
layers = (
{
hints = (
{
origin = "{3, 3}";
target = "{3, 5}";
},
{
origin = "{4, 0}";
},
{
horizontal = 1;
origin = "{10, 1}";
},
{
horizontal = 1;
origin = "{1, 1}";
}
);
layerId = "D0C94BA9-7956-4545-877F-F891ABB04BC1";
name = Regular;
paths = (
{
closed = 1;
nodes = (
"715 -157 LINE",
"715 -60 LINE",
"779 -60 LINE SMOOTH",
"806 -60 OFFCURVE",
"831 -48 OFFCURVE",
"847 -25 CURVE",
"925 -83 LINE",
"908 -106 OFFCURVE",
"887 -124 OFFCURVE",
"862 -137 CURVE SMOOTH",
"835 -150 OFFCURVE",
"808 -157 OFFCURVE",
"779 -157 CURVE SMOOTH"
);
},
{
closed = 1;
nodes = (
"647 -157 LINE",
"458 -157 LINE",
"458 -60 LINE",
"647 -60 LINE"
);
},
{
closed = 1;
nodes = (
"390 -157 LINE",
"281 -157 LINE SMOOTH",
"242 -157 OFFCURVE",
"208 -146 OFFCURVE",
"178 -124 CURVE",
"233 -45 LINE",
"247 -55 OFFCURVE",
"263 -60 OFFCURVE",
"281 -60 CURVE SMOOTH",
"390 -60 LINE"
);
},
{
closed = 1;
nodes = (
"119 -56 LINE",
"106 -31 OFFCURVE",
"100 -5 OFFCURVE",
"100 24 CURVE SMOOTH",
"100 153 LINE",
"197 153 LINE",
"197 24 LINE SMOOTH",
"197 12 OFFCURVE",
"200 0 OFFCURVE",
"205 -13 CURVE"
);
},
{
closed = 1;
nodes = (
"863 14 LINE",
"863 197 LINE",
"960 197 LINE",
"960 24 LINE SMOOTH",
"960 21 OFFCURVE",
"960 17 OFFCURVE",
"960 13 CURVE SMOOTH",
"960 9 OFFCURVE",
"960 5 OFFCURVE",
"959 2 CURVE"
);
},
{
closed = 1;
nodes = (
"197 221 LINE",
"100 221 LINE",
"100 410 LINE",
"197 410 LINE"
);
},
{
closed = 1;
nodes = (
"960 264 LINE",
"863 264 LINE",
"863 454 LINE",
"960 454 LINE"
);
},
{
closed = 1;
nodes = (
"197 477 LINE",
"100 477 LINE",
"100 522 LINE SMOOTH",
"100 590 OFFCURVE",
"137 651 OFFCURVE",
"197 682 CURVE",
"242 597 LINE",
"214 582 OFFCURVE",
"197 553 OFFCURVE",
"197 522 CURVE SMOOTH"
);
},
{
closed = 1;
nodes = (
"863 521 LINE",
"863 564 OFFCURVE",
"832 598 OFFCURVE",
"791 605 CURVE",
"805 701 LINE",
"848 694 OFFCURVE",
"887 673 OFFCURVE",
"915 641 CURVE SMOOTH",
"944 608 OFFCURVE",
"960 565 OFFCURVE",
"960 521 CURVE"
);
},
{
closed = 1;
nodes = (
"731 606 LINE",
"542 606 LINE",
"542 703 LINE",
"731 703 LINE"
);
},
{
closed = 1;
nodes = (
"474 606 LINE",
"285 606 LINE",
"285 703 LINE",
"474 703 LINE"
);
}
);
width = 1060;
}
);
unicode = E026;
},
{
glyphname = square.check.dash;
lastChange = "2014-06-03 15:51:14 +0000";
layers = (
{
hints = (
{
horizontal = 1;
origin = "{2, 8}";
target = "{11, 6}";
},
{
horizontal = 1;
origin = "{4, 1}";
target = "{6, 1}";
},
{
horizontal = 1;
origin = "{6, 2}";
target = "{8, 0}";
},
{
horizontal = 1;
origin = "{3, 4}";
target = "{5, 1}";
},
{
horizontal = 1;
origin = "{5, 2}";
target = "{7, 1}";
},
{
horizontal = 1;
origin = "{11, 22}";
target = "{10, 1}";
},
{
origin = "{3, 6}";
target = "{11, 7}";
},
{
origin = "{2, 0}";
target = "{1, 1}";
},
{
origin = "{1, 0}";
target = "{0, 0}";
},
{
origin = "{11, 35}";
target = "{4, 0}";
},
{
origin = "{3, 6}";
target = "{10, 1}";
},
{
origin = "{9, 0}";
target = "{8, 3}";
},
{
origin = "{10, 0}";
target = "{9, 1}";
}
);
layerId = "D0C94BA9-7956-4545-877F-F891ABB04BC1";
name = Regular;
paths = (
{
closed = 1;
nodes = (
"715 -157 LINE",
"715 -60 LINE",
"779 -60 LINE SMOOTH",
"806 -60 OFFCURVE",
"831 -48 OFFCURVE",
"847 -25 CURVE",
"925 -83 LINE",
"892 -128 OFFCURVE",
"839 -157 OFFCURVE",
"779 -157 CURVE SMOOTH"
);
},
{
closed = 1;
nodes = (
"647 -157 LINE",
"458 -157 LINE",
"458 -60 LINE",
"647 -60 LINE"
);
},
{
closed = 1;
nodes = (
"390 -157 LINE",
"282 -157 LINE SMOOTH",
"243 -157 OFFCURVE",
"209 -146 OFFCURVE",
"178 -124 CURVE",
"233 -45 LINE",
"248 -55 OFFCURVE",
"264 -60 OFFCURVE",
"282 -60 CURVE SMOOTH",
"390 -60 LINE"
);
},
{
closed = 1;
nodes = (
"119 -56 LINE",
"106 -31 OFFCURVE",
"100 -5 OFFCURVE",
"100 24 CURVE SMOOTH",
"100 153 LINE",
"197 153 LINE",
"197 24 LINE SMOOTH",
"197 11 OFFCURVE",
"200 -1 OFFCURVE",
"206 -13 CURVE"
);
},
{
closed = 1;
nodes = (
"863 14 LINE",
"863 197 LINE",
"960 197 LINE",
"960 24 LINE SMOOTH",
"960 21 OFFCURVE",
"960 17 OFFCURVE",
"960 13 CURVE SMOOTH",
"960 9 OFFCURVE",
"960 5 OFFCURVE",
"959 2 CURVE"
);
},
{
closed = 1;
nodes = (
"197 221 LINE",
"100 221 LINE",
"100 410 LINE",
"197 410 LINE"
);
},
{
closed = 1;
nodes = (
"960 264 LINE",
"863 264 LINE",
"863 454 LINE",
"960 454 LINE"
);
},
{
closed = 1;
nodes = (
"197 477 LINE",
"100 477 LINE",
"100 522 LINE SMOOTH",
"100 590 OFFCURVE",
"138 651 OFFCURVE",
"198 682 CURVE",
"242 597 LINE",
"214 582 OFFCURVE",
"197 553 OFFCURVE",
"197 522 CURVE SMOOTH"
);
},
{
closed = 1;
nodes = (
"863 521 LINE",
"863 564 OFFCURVE",
"832 598 OFFCURVE",
"791 605 CURVE",
"806 701 LINE",
"849 694 OFFCURVE",
"887 673 OFFCURVE",
"915 641 CURVE SMOOTH",
"944 608 OFFCURVE",
"960 565 OFFCURVE",
"960 521 CURVE"
);
},
{
closed = 1;
nodes = (
"731 606 LINE",
"542 606 LINE",
"542 703 LINE",
"731 703 LINE"
);
},
{
closed = 1;
nodes = (
"474 606 LINE",
"285 606 LINE",
"285 703 LINE",
"474 703 LINE"
);
},
{
closed = 1;
nodes = (
"489 87 LINE SMOOTH",
"482 80 OFFCURVE",
"475 77 OFFCURVE",
"466 77 CURVE SMOOTH",
"457 77 OFFCURVE",
"449 80 OFFCURVE",
"442 87 CURVE SMOOTH",
"292 237 LINE",
"285 243 OFFCURVE",
"282 251 OFFCURVE",
"282 260 CURVE SMOOTH",
"282 269 OFFCURVE",
"285 277 OFFCURVE",
"292 284 CURVE SMOOTH",
"337 329 LINE",
"345 336 OFFCURVE",
"353 339 OFFCURVE",
"361 339 CURVE SMOOTH",
"369 339 OFFCURVE",
"377 336 OFFCURVE",
"385 329 CURVE",
"465 249 LINE",
"676 459 LINE",
"684 466 OFFCURVE",
"692 469 OFFCURVE",
"700 469 CURVE SMOOTH",
"707 469 OFFCURVE",
"715 466 OFFCURVE",
"723 459 CURVE",
"769 414 LINE",
"776 408 OFFCURVE",
"779 400 OFFCURVE",
"779 391 CURVE SMOOTH",
"779 382 OFFCURVE",
"776 374 OFFCURVE",
"769 367 CURVE SMOOTH"
);
}
);
width = 1060;
}
);
unicode = E027;
},
{
glyphname = square.plus.dash;
lastChange = "2014-06-03 11:00:08 +0000";
layers = (
{
layerId = "D0C94BA9-7956-4545-877F-F891ABB04BC1";
name = Regular;
paths = (
{
closed = 1;
nodes = (
"715 -157 LINE",
"715 -60 LINE",
"779 -60 LINE SMOOTH",
"806 -60 OFFCURVE",
"831 -48 OFFCURVE",
"847 -25 CURVE",
"925 -83 LINE",
"892 -128 OFFCURVE",
"839 -157 OFFCURVE",
"779 -157 CURVE SMOOTH"
);
},
{
closed = 1;
nodes = (
"647 -157 LINE",
"458 -157 LINE",
"458 -60 LINE",
"647 -60 LINE"
);
},
{
closed = 1;
nodes = (
"390 -157 LINE",
"282 -157 LINE SMOOTH",
"243 -157 OFFCURVE",
"209 -146 OFFCURVE",
"178 -124 CURVE",
"233 -45 LINE",
"247 -55 OFFCURVE",
"263 -60 OFFCURVE",
"282 -60 CURVE SMOOTH",
"390 -60 LINE"
);
},
{
closed = 1;
nodes = (
"119 -56 LINE",
"106 -31 OFFCURVE",
"100 -5 OFFCURVE",
"100 24 CURVE SMOOTH",
"100 153 LINE",
"197 153 LINE",
"197 24 LINE SMOOTH",
"197 11 OFFCURVE",
"200 -1 OFFCURVE",
"206 -13 CURVE"
);
},
{
closed = 1;
nodes = (
"863 14 LINE",
"863 197 LINE",
"960 197 LINE",
"960 24 LINE SMOOTH",
"960 21 OFFCURVE",
"960 17 OFFCURVE",
"960 13 CURVE SMOOTH",
"960 9 OFFCURVE",
"960 5 OFFCURVE",
"959 2 CURVE"
);
},
{
closed = 1;
nodes = (
"197 221 LINE",
"100 221 LINE",
"100 410 LINE",
"197 410 LINE"
);
},
{
closed = 1;
nodes = (
"960 264 LINE",
"863 264 LINE",
"863 454 LINE",
"960 454 LINE"
);
},
{
closed = 1;
nodes = (
"197 477 LINE",
"100 477 LINE",
"100 522 LINE SMOOTH",
"100 590 OFFCURVE",
"137 651 OFFCURVE",
"197 682 CURVE",
"242 597 LINE",
"214 582 OFFCURVE",
"197 553 OFFCURVE",
"197 522 CURVE SMOOTH"
);
},
{
closed = 1;
nodes = (
"863 521 LINE",
"863 564 OFFCURVE",
"832 598 OFFCURVE",
"791 605 CURVE",
"806 701 LINE",
"849 694 OFFCURVE",
"887 673 OFFCURVE",
"915 641 CURVE SMOOTH",
"944 608 OFFCURVE",
"960 565 OFFCURVE",
"960 521 CURVE"
);
},
{
closed = 1;
nodes = (
"731 606 LINE",
"542 606 LINE",
"542 703 LINE",
"731 703 LINE"
);
},
{
closed = 1;
nodes = (
"474 606 LINE",
"285 606 LINE",
"285 703 LINE",
"474 703 LINE"
);
},
{
closed = 1;
nodes = (
"700 343 LINE SMOOTH",
"723 343 OFFCURVE",
"740 326 OFFCURVE",
"740 303 CURVE SMOOTH",
"740 243 LINE SMOOTH",
"740 220 OFFCURVE",
"723 203 OFFCURVE",
"700 203 CURVE SMOOTH",
"601 203 LINE",
"601 103 LINE SMOOTH",
"601 80 OFFCURVE",
"584 63 OFFCURVE",
"561 63 CURVE SMOOTH",
"501 63 LINE SMOOTH",
"478 63 OFFCURVE",
"461 80 OFFCURVE",
"461 103 CURVE SMOOTH",
"461 203 LINE",
"360 203 LINE SMOOTH",
"337 203 OFFCURVE",
"320 220 OFFCURVE",
"320 243 CURVE SMOOTH",
"320 303 LINE SMOOTH",
"320 326 OFFCURVE",
"337 343 OFFCURVE",
"360 343 CURVE SMOOTH",
"461 343 LINE",
"461 443 LINE SMOOTH",
"461 466 OFFCURVE",
"478 483 OFFCURVE",
"501 483 CURVE SMOOTH",
"561 483 LINE SMOOTH",
"584 483 OFFCURVE",
"601 466 OFFCURVE",
"601 443 CURVE SMOOTH",
"601 343 LINE"
);
}
);
width = 1060;
}
);
unicode = E028;
},
{
glyphname = square.minus.dash;
lastChange = "2014-06-03 11:00:08 +0000";
layers = (
{
layerId = "D0C94BA9-7956-4545-877F-F891ABB04BC1";
name = Regular;
paths = (
{
closed = 1;
nodes = (
"715 -157 LINE",
"715 -60 LINE",
"779 -60 LINE SMOOTH",
"807 -60 OFFCURVE",
"832 -48 OFFCURVE",
"848 -25 CURVE",
"926 -83 LINE",
"891 -128 OFFCURVE",
"838 -157 OFFCURVE",
"779 -157 CURVE SMOOTH"
);
},
{
closed = 1;
nodes = (
"647 -157 LINE",
"458 -157 LINE",
"458 -60 LINE",
"647 -60 LINE"
);
},
{
closed = 1;
nodes = (
"390 -157 LINE",
"282 -157 LINE SMOOTH",
"243 -157 OFFCURVE",
"209 -146 OFFCURVE",
"179 -124 CURVE",
"234 -45 LINE",
"248 -55 OFFCURVE",
"264 -60 OFFCURVE",
"282 -60 CURVE SMOOTH",
"390 -60 LINE"
);
},
{
closed = 1;
nodes = (
"119 -56 LINE",
"106 -29 OFFCURVE",
"100 -3 OFFCURVE",
"100 24 CURVE SMOOTH",
"100 153 LINE",
"197 153 LINE",
"197 24 LINE SMOOTH",
"197 11 OFFCURVE",
"200 -1 OFFCURVE",
"206 -13 CURVE"
);
},
{
closed = 1;
nodes = (
"863 14 LINE",
"863 197 LINE",
"960 197 LINE",
"960 24 LINE SMOOTH",
"960 21 OFFCURVE",
"960 17 OFFCURVE",
"960 13 CURVE SMOOTH",
"960 9 OFFCURVE",
"960 5 OFFCURVE",
"959 2 CURVE"
);
},
{
closed = 1;
nodes = (
"197 221 LINE",
"100 221 LINE",
"100 410 LINE",
"197 410 LINE"
);
},
{
closed = 1;
nodes = (
"960 264 LINE",
"863 264 LINE",
"863 454 LINE",
"960 454 LINE"
);
},
{
closed = 1;
nodes = (
"197 477 LINE",
"100 477 LINE",
"100 522 LINE SMOOTH",
"100 590 OFFCURVE",
"138 651 OFFCURVE",
"198 682 CURVE",
"243 597 LINE",
"214 582 OFFCURVE",
"197 553 OFFCURVE",
"197 522 CURVE SMOOTH"
);
},
{
closed = 1;
nodes = (
"863 521 LINE",
"863 564 OFFCURVE",
"834 598 OFFCURVE",
"791 605 CURVE",
"806 701 LINE",
"849 694 OFFCURVE",
"887 673 OFFCURVE",
"915 641 CURVE SMOOTH",
"944 608 OFFCURVE",
"960 565 OFFCURVE",
"960 521 CURVE"
);
},
{
closed = 1;
nodes = (
"731 606 LINE",
"542 606 LINE",
"542 703 LINE",
"731 703 LINE"
);
},
{
closed = 1;
nodes = (
"474 606 LINE",
"285 606 LINE",
"285 703 LINE",
"474 703 LINE"
);
},
{
closed = 1;
nodes = (
"740 243 LINE SMOOTH",
"740 220 OFFCURVE",
"723 203 OFFCURVE",
"700 203 CURVE SMOOTH",
"360 203 LINE SMOOTH",
"337 203 OFFCURVE",
"320 220 OFFCURVE",
"320 243 CURVE SMOOTH",
"320 303 LINE SMOOTH",
"320 326 OFFCURVE",
"337 343 OFFCURVE",
"360 343 CURVE SMOOTH",
"700 343 LINE SMOOTH",
"723 343 OFFCURVE",
"740 326 OFFCURVE",
"740 303 CURVE SMOOTH"
);
}
);
width = 1060;
}
);
unicode = E029;
},
{
glyphname = square.x.dash;
lastChange = "2014-06-03 11:00:08 +0000";
layers = (
{
layerId = "D0C94BA9-7956-4545-877F-F891ABB04BC1";
name = Regular;
paths = (
{
closed = 1;
nodes = (
"700 203 LINE",
"707 194 OFFCURVE",
"711 185 OFFCURVE",
"711 174 CURVE SMOOTH",
"711 164 OFFCURVE",
"707 155 OFFCURVE",
"700 146 CURVE",
"657 104 LINE SMOOTH",
"649 96 OFFCURVE",
"639 92 OFFCURVE",
"628 92 CURVE SMOOTH",
"617 92 OFFCURVE",
"608 96 OFFCURVE",
"601 104 CURVE",
"531 174 LINE",
"460 103 LINE SMOOTH",
"452 95 OFFCURVE",
"442 91 OFFCURVE",
"431 91 CURVE SMOOTH",
"420 91 OFFCURVE",
"411 95 OFFCURVE",
"403 103 CURVE SMOOTH",
"361 145 LINE SMOOTH",
"353 153 OFFCURVE",
"349 162 OFFCURVE",
"349 173 CURVE SMOOTH",
"349 184 OFFCURVE",
"353 194 OFFCURVE",
"361 202 CURVE SMOOTH",
"432 273 LINE",
"360 344 LINE",
"352 351 OFFCURVE",
"348 361 OFFCURVE",
"348 372 CURVE SMOOTH",
"348 383 OFFCURVE",
"352 393 OFFCURVE",
"360 401 CURVE SMOOTH",
"403 443 LINE SMOOTH",
"411 451 OFFCURVE",
"421 455 OFFCURVE",
"432 455 CURVE SMOOTH",
"443 455 OFFCURVE",
"452 451 OFFCURVE",
"459 443 CURVE",
"531 372 LINE",
"601 442 LINE SMOOTH",
"609 450 OFFCURVE",
"618 454 OFFCURVE",
"629 454 CURVE SMOOTH",
"640 454 OFFCURVE",
"650 450 OFFCURVE",
"658 442 CURVE SMOOTH",
"700 400 LINE SMOOTH",
"708 392 OFFCURVE",
"712 382 OFFCURVE",
"712 371 CURVE SMOOTH",
"712 360 OFFCURVE",
"708 351 OFFCURVE",
"700 343 CURVE SMOOTH",
"630 273 LINE"
);
},
{
closed = 1;
nodes = (
"715 -157 LINE",
"715 -60 LINE",
"779 -60 LINE SMOOTH",
"806 -60 OFFCURVE",
"831 -48 OFFCURVE",
"847 -25 CURVE",
"925 -83 LINE",
"892 -128 OFFCURVE",
"839 -157 OFFCURVE",
"779 -157 CURVE SMOOTH"
);
},
{
closed = 1;
nodes = (
"647 -157 LINE",
"458 -157 LINE",
"458 -60 LINE",
"647 -60 LINE"
);
},
{
closed = 1;
nodes = (
"390 -157 LINE",
"282 -157 LINE SMOOTH",
"243 -157 OFFCURVE",
"209 -146 OFFCURVE",
"178 -124 CURVE",
"233 -45 LINE",
"248 -55 OFFCURVE",
"264 -60 OFFCURVE",
"282 -60 CURVE SMOOTH",
"390 -60 LINE"
);
},
{
closed = 1;
nodes = (
"119 -56 LINE",
"106 -31 OFFCURVE",
"100 -5 OFFCURVE",
"100 24 CURVE SMOOTH",
"100 153 LINE",
"197 153 LINE",
"197 24 LINE SMOOTH",
"197 11 OFFCURVE",
"200 -1 OFFCURVE",
"206 -13 CURVE"
);
},
{
closed = 1;
nodes = (
"863 14 LINE",
"863 197 LINE",
"960 197 LINE",
"960 24 LINE SMOOTH",
"960 21 OFFCURVE",
"960 17 OFFCURVE",
"960 13 CURVE SMOOTH",
"960 9 OFFCURVE",
"960 5 OFFCURVE",
"959 2 CURVE"
);
},
{
closed = 1;
nodes = (
"197 221 LINE",
"100 221 LINE",
"100 410 LINE",
"197 410 LINE"
);
},
{
closed = 1;
nodes = (
"960 264 LINE",
"863 264 LINE",
"863 454 LINE",
"960 454 LINE"
);
},
{
closed = 1;
nodes = (
"197 477 LINE",
"100 477 LINE",
"100 522 LINE SMOOTH",
"100 590 OFFCURVE",
"137 651 OFFCURVE",
"198 682 CURVE",
"242 597 LINE",
"214 582 OFFCURVE",
"197 553 OFFCURVE",
"197 522 CURVE SMOOTH"
);
},
{
closed = 1;
nodes = (
"863 521 LINE",
"863 564 OFFCURVE",
"832 598 OFFCURVE",
"791 605 CURVE",
"806 701 LINE",
"849 694 OFFCURVE",
"887 673 OFFCURVE",
"915 641 CURVE SMOOTH",
"944 608 OFFCURVE",
"960 565 OFFCURVE",
"960 521 CURVE"
);
},
{
closed = 1;
nodes = (
"731 606 LINE",
"542 606 LINE",
"542 703 LINE",
"731 703 LINE"
);
},
{
closed = 1;
nodes = (
"474 606 LINE",
"285 606 LINE",
"285 703 LINE",
"474 703 LINE"
);
}
);
width = 1060;
}
);
unicode = E02A;
},
{
glyphname = circle.outline;
lastChange = "2014-06-03 11:00:08 +0000";
layers = (
{
layerId = "D0C94BA9-7956-4545-877F-F891ABB04BC1";
name = Regular;
paths = (
{
closed = 1;
nodes = (
"949 388 OFFCURVE",
"960 332 OFFCURVE",
"960 273 CURVE SMOOTH",
"960 156 OFFCURVE",
"914 48 OFFCURVE",
"834 -32 CURVE SMOOTH",
"755 -111 OFFCURVE",
"646 -157 OFFCURVE",
"530 -157 CURVE SMOOTH",
"413 -157 OFFCURVE",
"305 -111 OFFCURVE",
"225 -31 CURVE SMOOTH",
"146 48 OFFCURVE",
"100 156 OFFCURVE",
"100 273 CURVE SMOOTH",
"100 389 OFFCURVE",
"146 498 OFFCURVE",
"226 578 CURVE SMOOTH",
"305 657 OFFCURVE",
"413 703 OFFCURVE",
"530 703 CURVE SMOOTH",
"646 703 OFFCURVE",
"755 657 OFFCURVE",
"835 577 CURVE SMOOTH",
"875 537 OFFCURVE",
"905 491 OFFCURVE",
"926 440 CURVE SMOOTH"
);
},
{
closed = 1;
nodes = (
"851 186 OFFCURVE",
"860 228 OFFCURVE",
"860 273 CURVE SMOOTH",
"860 362 OFFCURVE",
"823 447 OFFCURVE",
"763 507 CURVE SMOOTH",
"704 566 OFFCURVE",
"619 603 OFFCURVE",
"530 603 CURVE SMOOTH",
"441 603 OFFCURVE",
"356 566 OFFCURVE",
"296 506 CURVE SMOOTH",
"237 447 OFFCURVE",
"200 362 OFFCURVE",
"200 273 CURVE SMOOTH",
"200 184 OFFCURVE",
"237 99 OFFCURVE",
"297 39 CURVE SMOOTH",
"356 -20 OFFCURVE",
"441 -57 OFFCURVE",
"530 -57 CURVE SMOOTH",
"619 -57 OFFCURVE",
"704 -20 OFFCURVE",
"764 40 CURVE SMOOTH",
"793 69 OFFCURVE",
"817 104 OFFCURVE",
"834 145 CURVE SMOOTH"
);
}
);
width = 1060;
}
);
unicode = E030;
},
{
glyphname = circle.check.outline;
lastChange = "2014-06-03 11:00:08 +0000";
layers = (
{
layerId = "D0C94BA9-7956-4545-877F-F891ABB04BC1";
name = Regular;
paths = (
{
closed = 1;
nodes = (
"949 388 OFFCURVE",
"960 332 OFFCURVE",
"960 273 CURVE SMOOTH",
"960 156 OFFCURVE",
"914 48 OFFCURVE",
"834 -32 CURVE SMOOTH",
"755 -111 OFFCURVE",
"646 -157 OFFCURVE",
"530 -157 CURVE SMOOTH",
"413 -157 OFFCURVE",
"307 -112 OFFCURVE",
"226 -31 CURVE SMOOTH",
"147 48 OFFCURVE",
"100 154 OFFCURVE",
"100 273 CURVE SMOOTH",
"100 392 OFFCURVE",
"147 498 OFFCURVE",
"226 577 CURVE SMOOTH",
"307 658 OFFCURVE",
"413 703 OFFCURVE",
"530 703 CURVE SMOOTH",
"646 703 OFFCURVE",
"755 657 OFFCURVE",
"835 577 CURVE SMOOTH",
"875 537 OFFCURVE",
"905 491 OFFCURVE",
"926 440 CURVE SMOOTH"
);
},
{
closed = 1;
nodes = (
"851 186 OFFCURVE",
"860 228 OFFCURVE",
"860 273 CURVE SMOOTH",
"860 362 OFFCURVE",
"827 443 OFFCURVE",
"763 507 CURVE SMOOTH",
"704 566 OFFCURVE",
"618 603 OFFCURVE",
"530 603 CURVE SMOOTH",
"441 603 OFFCURVE",
"356 566 OFFCURVE",
"296 506 CURVE SMOOTH",
"237 447 OFFCURVE",
"200 362 OFFCURVE",
"200 273 CURVE SMOOTH",
"200 184 OFFCURVE",
"237 99 OFFCURVE",
"297 39 CURVE SMOOTH",
"356 -20 OFFCURVE",
"441 -57 OFFCURVE",
"530 -57 CURVE SMOOTH",
"618 -57 OFFCURVE",
"704 -20 OFFCURVE",
"764 40 CURVE SMOOTH",
"795 71 OFFCURVE",
"819 106 OFFCURVE",
"834 145 CURVE SMOOTH"
);
},
{
closed = 1;
nodes = (
"488 87 LINE SMOOTH",
"481 80 OFFCURVE",
"473 77 OFFCURVE",
"464 77 CURVE SMOOTH",
"455 77 OFFCURVE",
"447 80 OFFCURVE",
"441 87 CURVE",
"292 237 LINE SMOOTH",
"285 244 OFFCURVE",
"282 252 OFFCURVE",
"282 261 CURVE SMOOTH",
"282 270 OFFCURVE",
"285 278 OFFCURVE",
"292 284 CURVE",
"337 329 LINE SMOOTH",
"344 336 OFFCURVE",
"351 339 OFFCURVE",
"360 339 CURVE SMOOTH",
"368 339 OFFCURVE",
"376 336 OFFCURVE",
"384 329 CURVE",
"465 248 LINE",
"652 435 LINE",
"658 442 OFFCURVE",
"666 445 OFFCURVE",
"675 445 CURVE SMOOTH",
"684 445 OFFCURVE",
"692 442 OFFCURVE",
"699 435 CURVE SMOOTH",
"745 390 LINE",
"752 384 OFFCURVE",
"755 376 OFFCURVE",
"755 367 CURVE SMOOTH",
"755 358 OFFCURVE",
"752 350 OFFCURVE",
"745 343 CURVE SMOOTH"
);
}
);
width = 1060;
}
);
unicode = E031;
},
{
glyphname = circle.plus.outline;
lastChange = "2014-06-03 11:00:08 +0000";
layers = (
{
layerId = "D0C94BA9-7956-4545-877F-F891ABB04BC1";
name = Regular;
paths = (
{
closed = 1;
nodes = (
"700 343 LINE SMOOTH",
"723 343 OFFCURVE",
"740 326 OFFCURVE",
"740 303 CURVE SMOOTH",
"740 243 LINE SMOOTH",
"740 220 OFFCURVE",
"723 203 OFFCURVE",
"700 203 CURVE SMOOTH",
"601 203 LINE",
"601 103 LINE SMOOTH",
"601 80 OFFCURVE",
"584 63 OFFCURVE",
"561 63 CURVE SMOOTH",
"501 63 LINE SMOOTH",
"478 63 OFFCURVE",
"461 80 OFFCURVE",
"461 103 CURVE SMOOTH",
"461 203 LINE",
"360 203 LINE SMOOTH",
"337 203 OFFCURVE",
"320 220 OFFCURVE",
"320 243 CURVE SMOOTH",
"320 303 LINE SMOOTH",
"320 326 OFFCURVE",
"337 343 OFFCURVE",
"360 343 CURVE SMOOTH",
"461 343 LINE",
"461 443 LINE SMOOTH",
"461 466 OFFCURVE",
"478 483 OFFCURVE",
"501 483 CURVE SMOOTH",
"561 483 LINE SMOOTH",
"584 483 OFFCURVE",
"601 466 OFFCURVE",
"601 443 CURVE SMOOTH",
"601 343 LINE"
);
},
{
closed = 1;
nodes = (
"949 388 OFFCURVE",
"960 332 OFFCURVE",
"960 273 CURVE SMOOTH",
"960 156 OFFCURVE",
"914 48 OFFCURVE",
"834 -32 CURVE SMOOTH",
"794 -72 OFFCURVE",
"749 -102 OFFCURVE",
"698 -123 CURVE SMOOTH",
"645 -146 OFFCURVE",
"589 -157 OFFCURVE",
"530 -157 CURVE SMOOTH",
"471 -157 OFFCURVE",
"415 -146 OFFCURVE",
"363 -123 CURVE",
"260 -82 OFFCURVE",
"178 2 OFFCURVE",
"134 106 CURVE SMOOTH",
"111 161 OFFCURVE",
"100 216 OFFCURVE",
"100 273 CURVE SMOOTH",
"100 386 OFFCURVE",
"147 498 OFFCURVE",
"226 577 CURVE SMOOTH",
"306 657 OFFCURVE",
"411 703 OFFCURVE",
"530 703 CURVE SMOOTH",
"589 703 OFFCURVE",
"645 692 OFFCURVE",
"698 669 CURVE SMOOTH",
"799 626 OFFCURVE",
"885 543 OFFCURVE",
"926 440 CURVE"
);
},
{
closed = 1;
nodes = (
"851 186 OFFCURVE",
"860 228 OFFCURVE",
"860 273 CURVE SMOOTH",
"860 362 OFFCURVE",
"827 443 OFFCURVE",
"764 506 CURVE SMOOTH",
"704 566 OFFCURVE",
"618 603 OFFCURVE",
"530 603 CURVE SMOOTH",
"441 603 OFFCURVE",
"354 566 OFFCURVE",
"297 506 CURVE SMOOTH",
"236 445 OFFCURVE",
"200 362 OFFCURVE",
"200 273 CURVE SMOOTH",
"200 184 OFFCURVE",
"236 101 OFFCURVE",
"297 40 CURVE SMOOTH",
"354 -20 OFFCURVE",
"441 -57 OFFCURVE",
"530 -57 CURVE SMOOTH",
"618 -57 OFFCURVE",
"704 -20 OFFCURVE",
"764 40 CURVE SMOOTH",
"795 71 OFFCURVE",
"819 106 OFFCURVE",
"834 145 CURVE SMOOTH"
);
}
);
width = 1060;
}
);
unicode = E032;
},
{
glyphname = circle.minus.outline;
lastChange = "2014-06-03 11:00:08 +0000";
layers = (
{
layerId = "D0C94BA9-7956-4545-877F-F891ABB04BC1";
name = Regular;
paths = (
{
closed = 1;
nodes = (
"739 243 LINE SMOOTH",
"739 220 OFFCURVE",
"722 203 OFFCURVE",
"699 203 CURVE SMOOTH",
"359 203 LINE SMOOTH",
"336 203 OFFCURVE",
"319 220 OFFCURVE",
"319 243 CURVE SMOOTH",
"319 303 LINE SMOOTH",
"319 326 OFFCURVE",
"336 343 OFFCURVE",
"359 343 CURVE SMOOTH",
"699 343 LINE SMOOTH",
"722 343 OFFCURVE",
"739 326 OFFCURVE",
"739 303 CURVE SMOOTH"
);
},
{
closed = 1;
nodes = (
"949 385 OFFCURVE",
"960 330 OFFCURVE",
"960 273 CURVE SMOOTH",
"960 160 OFFCURVE",
"913 48 OFFCURVE",
"834 -31 CURVE SMOOTH",
"753 -112 OFFCURVE",
"649 -157 OFFCURVE",
"530 -157 CURVE SMOOTH",
"471 -157 OFFCURVE",
"415 -146 OFFCURVE",
"362 -123 CURVE SMOOTH",
"259 -82 OFFCURVE",
"177 2 OFFCURVE",
"133 106 CURVE SMOOTH",
"111 159 OFFCURVE",
"100 214 OFFCURVE",
"100 273 CURVE SMOOTH",
"100 389 OFFCURVE",
"146 498 OFFCURVE",
"226 578 CURVE SMOOTH",
"265 617 OFFCURVE",
"311 648 OFFCURVE",
"362 669 CURVE SMOOTH",
"415 692 OFFCURVE",
"471 703 OFFCURVE",
"530 703 CURVE SMOOTH",
"649 703 OFFCURVE",
"753 657 OFFCURVE",
"834 577 CURVE SMOOTH",
"873 538 OFFCURVE",
"904 492 OFFCURVE",
"926 440 CURVE SMOOTH"
);
},
{
closed = 1;
nodes = (
"851 186 OFFCURVE",
"860 228 OFFCURVE",
"860 273 CURVE SMOOTH",
"860 362 OFFCURVE",
"824 445 OFFCURVE",
"763 506 CURVE SMOOTH",
"732 537 OFFCURVE",
"697 560 OFFCURVE",
"658 577 CURVE SMOOTH",
"617 594 OFFCURVE",
"575 603 OFFCURVE",
"530 603 CURVE SMOOTH",
"442 603 OFFCURVE",
"356 566 OFFCURVE",
"296 506 CURVE SMOOTH",
"235 445 OFFCURVE",
"200 365 OFFCURVE",
"200 273 CURVE SMOOTH",
"200 181 OFFCURVE",
"235 101 OFFCURVE",
"296 40 CURVE SMOOTH",
"356 -20 OFFCURVE",
"442 -57 OFFCURVE",
"530 -57 CURVE SMOOTH",
"575 -57 OFFCURVE",
"617 -48 OFFCURVE",
"658 -31 CURVE SMOOTH",
"697 -14 OFFCURVE",
"732 9 OFFCURVE",
"763 40 CURVE SMOOTH",
"794 71 OFFCURVE",
"817 106 OFFCURVE",
"834 145 CURVE SMOOTH"
);
}
);
width = 1060;
}
);
unicode = E033;
},
{
glyphname = circle.x.outline;
lastChange = "2014-06-03 11:00:08 +0000";
layers = (
{
layerId = "D0C94BA9-7956-4545-877F-F891ABB04BC1";
name = Regular;
paths = (
{
closed = 1;
nodes = (
"949 388 OFFCURVE",
"960 332 OFFCURVE",
"960 273 CURVE SMOOTH",
"960 156 OFFCURVE",
"914 48 OFFCURVE",
"834 -32 CURVE SMOOTH",
"794 -72 OFFCURVE",
"749 -102 OFFCURVE",
"698 -123 CURVE SMOOTH",
"645 -146 OFFCURVE",
"589 -157 OFFCURVE",
"530 -157 CURVE SMOOTH",
"471 -157 OFFCURVE",
"415 -146 OFFCURVE",
"363 -123 CURVE",
"260 -82 OFFCURVE",
"178 2 OFFCURVE",
"134 106 CURVE SMOOTH",
"111 161 OFFCURVE",
"100 216 OFFCURVE",
"100 273 CURVE SMOOTH",
"100 386 OFFCURVE",
"147 498 OFFCURVE",
"226 577 CURVE SMOOTH",
"306 657 OFFCURVE",
"411 703 OFFCURVE",
"530 703 CURVE SMOOTH",
"589 703 OFFCURVE",
"645 692 OFFCURVE",
"698 669 CURVE SMOOTH",
"799 626 OFFCURVE",
"885 543 OFFCURVE",
"926 440 CURVE"
);
},
{
closed = 1;
nodes = (
"851 184 OFFCURVE",
"860 226 OFFCURVE",
"860 273 CURVE SMOOTH",
"860 365 OFFCURVE",
"825 445 OFFCURVE",
"764 506 CURVE SMOOTH",
"704 566 OFFCURVE",
"618 603 OFFCURVE",
"530 603 CURVE SMOOTH",
"487 603 OFFCURVE",
"444 594 OFFCURVE",
"402 577 CURVE SMOOTH",
"363 560 OFFCURVE",
"328 537 OFFCURVE",
"297 506 CURVE SMOOTH",
"236 445 OFFCURVE",
"200 362 OFFCURVE",
"200 273 CURVE SMOOTH",
"200 184 OFFCURVE",
"236 101 OFFCURVE",
"297 40 CURVE SMOOTH",
"328 9 OFFCURVE",
"363 -14 OFFCURVE",
"402 -31 CURVE SMOOTH",
"444 -48 OFFCURVE",
"487 -57 OFFCURVE",
"530 -57 CURVE SMOOTH",
"618 -57 OFFCURVE",
"704 -20 OFFCURVE",
"764 40 CURVE SMOOTH",
"795 71 OFFCURVE",
"819 106 OFFCURVE",
"834 145 CURVE"
);
},
{
closed = 1;
nodes = (
"703 202 LINE SMOOTH",
"711 194 OFFCURVE",
"715 185 OFFCURVE",
"715 174 CURVE SMOOTH",
"715 163 OFFCURVE",
"711 153 OFFCURVE",
"703 146 CURVE",
"661 103 LINE",
"654 95 OFFCURVE",
"644 91 OFFCURVE",
"633 91 CURVE SMOOTH",
"622 91 OFFCURVE",
"612 95 OFFCURVE",
"604 103 CURVE SMOOTH",
"534 173 LINE",
"463 103 LINE SMOOTH",
"455 95 OFFCURVE",
"445 91 OFFCURVE",
"434 91 CURVE SMOOTH",
"423 91 OFFCURVE",
"414 95 OFFCURVE",
"407 103 CURVE",
"364 145 LINE",
"356 152 OFFCURVE",
"352 162 OFFCURVE",
"352 173 CURVE SMOOTH",
"352 184 OFFCURVE",
"356 194 OFFCURVE",
"364 202 CURVE SMOOTH",
"435 272 LINE",
"364 344 LINE SMOOTH",
"356 352 OFFCURVE",
"352 362 OFFCURVE",
"352 373 CURVE SMOOTH",
"352 384 OFFCURVE",
"356 393 OFFCURVE",
"364 400 CURVE",
"406 443 LINE",
"413 451 OFFCURVE",
"423 455 OFFCURVE",
"434 455 CURVE SMOOTH",
"445 455 OFFCURVE",
"455 451 OFFCURVE",
"463 443 CURVE SMOOTH",
"534 371 LINE",
"605 442 LINE",
"612 450 OFFCURVE",
"622 454 OFFCURVE",
"633 454 CURVE SMOOTH",
"644 454 OFFCURVE",
"653 450 OFFCURVE",
"661 442 CURVE SMOOTH",
"704 400 LINE",
"712 393 OFFCURVE",
"716 383 OFFCURVE",
"716 372 CURVE SMOOTH",
"716 361 OFFCURVE",
"712 351 OFFCURVE",
"704 343 CURVE SMOOTH",
"633 272 LINE"
);
}
);
width = 1060;
}
);
unicode = E034;
},
{
glyphname = circle.chevron.up;
lastChange = "2014-06-03 11:00:08 +0000";
layers = (
{
layerId = "D0C94BA9-7956-4545-877F-F891ABB04BC1";
name = Regular;
paths = (
{
closed = 1;
nodes = (
"649 704 OFFCURVE",
"757 656 OFFCURVE",
"835 578 CURVE SMOOTH",
"913 500 OFFCURVE",
"960 393 OFFCURVE",
"960 274 CURVE SMOOTH",
"960 155 OFFCURVE",
"913 49 OFFCURVE",
"835 -29 CURVE SMOOTH",
"757 -107 OFFCURVE",
"649 -156 OFFCURVE",
"530 -156 CURVE SMOOTH",
"411 -156 OFFCURVE",
"305 -107 OFFCURVE",
"227 -29 CURVE SMOOTH",
"149 49 OFFCURVE",
"100 155 OFFCURVE",
"100 274 CURVE SMOOTH",
"100 393 OFFCURVE",
"149 500 OFFCURVE",
"227 578 CURVE SMOOTH",
"305 656 OFFCURVE",
"411 704 OFFCURVE",
"530 704 CURVE SMOOTH"
);
},
{
closed = 1;
nodes = (
"748 217 OFFCURVE",
"746 228 OFFCURVE",
"737 237 CURVE SMOOTH",
"550 423 LINE",
"545 429 OFFCURVE",
"538 432 OFFCURVE",
"530 432 CURVE SMOOTH",
"523 432 OFFCURVE",
"516 429 OFFCURVE",
"510 423 CURVE SMOOTH",
"324 237 LINE SMOOTH",
"305 217 OFFCURVE",
"319 187 OFFCURVE",
"344 187 CURVE SMOOTH",
"444 187 LINE SMOOTH",
"451 187 OFFCURVE",
"457 190 OFFCURVE",
"463 196 CURVE SMOOTH",
"510 243 LINE SMOOTH",
"515 248 OFFCURVE",
"522 251 OFFCURVE",
"530 251 CURVE SMOOTH",
"538 251 OFFCURVE",
"545 248 OFFCURVE",
"550 243 CURVE SMOOTH",
"597 196 LINE SMOOTH",
"603 190 OFFCURVE",
"610 187 OFFCURVE",
"617 187 CURVE SMOOTH",
"717 187 LINE SMOOTH",
"729 187 OFFCURVE",
"738 193 OFFCURVE",
"743 205 CURVE SMOOTH"
);
}
);
width = 1060;
}
);
unicode = E014;
},
{
glyphname = circle.chevron.down;
lastChange = "2014-06-03 11:00:08 +0000";
layers = (
{
layerId = "D0C94BA9-7956-4545-877F-F891ABB04BC1";
name = Regular;
paths = (
{
closed = 1;
nodes = (
"411 -156 OFFCURVE",
"305 -107 OFFCURVE",
"227 -29 CURVE SMOOTH",
"149 49 OFFCURVE",
"100 155 OFFCURVE",
"100 274 CURVE SMOOTH",
"100 393 OFFCURVE",
"149 500 OFFCURVE",
"227 578 CURVE SMOOTH",
"305 656 OFFCURVE",
"411 704 OFFCURVE",
"530 704 CURVE SMOOTH",
"649 704 OFFCURVE",
"757 656 OFFCURVE",
"835 578 CURVE SMOOTH",
"913 500 OFFCURVE",
"960 393 OFFCURVE",
"960 274 CURVE SMOOTH",
"960 155 OFFCURVE",
"913 49 OFFCURVE",
"835 -29 CURVE SMOOTH",
"757 -107 OFFCURVE",
"649 -156 OFFCURVE",
"530 -156 CURVE SMOOTH"
);
},
{
closed = 1;
nodes = (
"317 340 OFFCURVE",
"316 337 OFFCURVE",
"316 332 CURVE SMOOTH",
"316 325 OFFCURVE",
"319 318 OFFCURVE",
"324 311 CURVE",
"510 125 LINE SMOOTH",
"516 119 OFFCURVE",
"523 116 OFFCURVE",
"530 116 CURVE SMOOTH",
"538 116 OFFCURVE",
"545 119 OFFCURVE",
"550 125 CURVE",
"737 311 LINE",
"742 318 OFFCURVE",
"745 325 OFFCURVE",
"745 332 CURVE SMOOTH",
"745 336 OFFCURVE",
"744 339 OFFCURVE",
"743 343 CURVE",
"738 355 OFFCURVE",
"729 361 OFFCURVE",
"717 361 CURVE SMOOTH",
"617 361 LINE SMOOTH",
"610 361 OFFCURVE",
"603 358 OFFCURVE",
"597 352 CURVE SMOOTH",
"550 305 LINE SMOOTH",
"545 300 OFFCURVE",
"538 297 OFFCURVE",
"530 297 CURVE SMOOTH",
"522 297 OFFCURVE",
"515 300 OFFCURVE",
"510 305 CURVE SMOOTH",
"463 352 LINE SMOOTH",
"457 358 OFFCURVE",
"451 361 OFFCURVE",
"444 361 CURVE SMOOTH",
"344 361 LINE SMOOTH",
"331 361 OFFCURVE",
"323 355 OFFCURVE",
"318 343 CURVE"
);
}
);
width = 1060;
}
);
unicode = E015;
},
{
glyphname = circle.chevron.left;
lastChange = "2014-06-03 11:00:08 +0000";
layers = (
{
layerId = "D0C94BA9-7956-4545-877F-F891ABB04BC1";
name = Regular;
paths = (
{
closed = 1;
nodes = (
"100 393 OFFCURVE",
"149 500 OFFCURVE",
"227 578 CURVE SMOOTH",
"305 656 OFFCURVE",
"411 704 OFFCURVE",
"530 704 CURVE SMOOTH",
"649 704 OFFCURVE",
"757 656 OFFCURVE",
"835 578 CURVE SMOOTH",
"913 500 OFFCURVE",
"960 393 OFFCURVE",
"960 274 CURVE SMOOTH",
"960 155 OFFCURVE",
"913 49 OFFCURVE",
"835 -29 CURVE SMOOTH",
"757 -107 OFFCURVE",
"649 -156 OFFCURVE",
"530 -156 CURVE SMOOTH",
"411 -156 OFFCURVE",
"305 -107 OFFCURVE",
"227 -29 CURVE SMOOTH",
"149 49 OFFCURVE",
"100 155 OFFCURVE",
"100 274 CURVE SMOOTH"
);
},
{
closed = 1;
nodes = (
"595 488 OFFCURVE",
"592 489 OFFCURVE",
"588 489 CURVE SMOOTH",
"579 489 OFFCURVE",
"573 486 OFFCURVE",
"568 480 CURVE",
"381 294 LINE SMOOTH",
"376 289 OFFCURVE",
"373 283 OFFCURVE",
"373 274 CURVE SMOOTH",
"373 265 OFFCURVE",
"376 259 OFFCURVE",
"381 254 CURVE SMOOTH",
"568 68 LINE",
"573 62 OFFCURVE",
"579 59 OFFCURVE",
"588 59 CURVE SMOOTH",
"592 59 OFFCURVE",
"595 60 OFFCURVE",
"599 61 CURVE",
"611 66 OFFCURVE",
"617 75 OFFCURVE",
"617 88 CURVE SMOOTH",
"617 187 LINE SMOOTH",
"617 195 OFFCURVE",
"614 202 OFFCURVE",
"608 207 CURVE",
"561 254 LINE SMOOTH",
"556 259 OFFCURVE",
"553 266 OFFCURVE",
"553 274 CURVE SMOOTH",
"553 282 OFFCURVE",
"556 289 OFFCURVE",
"561 294 CURVE SMOOTH",
"608 341 LINE",
"614 346 OFFCURVE",
"617 352 OFFCURVE",
"617 361 CURVE SMOOTH",
"617 460 LINE SMOOTH",
"617 473 OFFCURVE",
"611 482 OFFCURVE",
"599 487 CURVE"
);
}
);
width = 1060;
}
);
unicode = E016;
},
{
glyphname = circle.chevron.right;
lastChange = "2014-06-03 11:00:08 +0000";
layers = (
{
layerId = "D0C94BA9-7956-4545-877F-F891ABB04BC1";
name = Regular;
paths = (
{
closed = 1;
nodes = (
"960 155 OFFCURVE",
"913 49 OFFCURVE",
"835 -29 CURVE SMOOTH",
"757 -107 OFFCURVE",
"649 -156 OFFCURVE",
"530 -156 CURVE SMOOTH",
"411 -156 OFFCURVE",
"305 -107 OFFCURVE",
"227 -29 CURVE SMOOTH",
"149 49 OFFCURVE",
"100 155 OFFCURVE",
"100 274 CURVE SMOOTH",
"100 393 OFFCURVE",
"149 500 OFFCURVE",
"227 578 CURVE SMOOTH",
"305 656 OFFCURVE",
"411 704 OFFCURVE",
"530 704 CURVE SMOOTH",
"649 704 OFFCURVE",
"757 656 OFFCURVE",
"835 578 CURVE SMOOTH",
"913 500 OFFCURVE",
"960 393 OFFCURVE",
"960 274 CURVE SMOOTH"
);
},
{
closed = 1;
nodes = (
"474 56 OFFCURVE",
"484 59 OFFCURVE",
"493 68 CURVE SMOOTH",
"680 254 LINE SMOOTH",
"685 259 OFFCURVE",
"688 266 OFFCURVE",
"688 274 CURVE SMOOTH",
"688 282 OFFCURVE",
"685 289 OFFCURVE",
"680 294 CURVE SMOOTH",
"493 480 LINE SMOOTH",
"484 489 OFFCURVE",
"474 492 OFFCURVE",
"461 487 CURVE",
"450 482 OFFCURVE",
"443 472 OFFCURVE",
"443 460 CURVE SMOOTH",
"443 361 LINE SMOOTH",
"443 354 OFFCURVE",
"446 347 OFFCURVE",
"452 341 CURVE SMOOTH",
"499 294 LINE SMOOTH",
"504 289 OFFCURVE",
"507 282 OFFCURVE",
"507 274 CURVE SMOOTH",
"507 266 OFFCURVE",
"504 259 OFFCURVE",
"499 254 CURVE SMOOTH",
"452 207 LINE SMOOTH",
"446 201 OFFCURVE",
"443 194 OFFCURVE",
"443 187 CURVE SMOOTH",
"443 88 LINE SMOOTH",
"443 76 OFFCURVE",
"450 66 OFFCURVE",
"461 61 CURVE"
);
}
);
width = 1060;
}
);
unicode = E017;
},
{
glyphname = circle.chevron.up.outline;
lastChange = "2014-06-03 11:00:08 +0000";
layers = (
{
layerId = "D0C94BA9-7956-4545-877F-F891ABB04BC1";
name = Regular;
paths = (
{
closed = 1;
nodes = (
"752 236 LINE",
"758 231 OFFCURVE",
"761 224 OFFCURVE",
"761 216 CURVE SMOOTH",
"761 212 OFFCURVE",
"760 209 OFFCURVE",
"759 205 CURVE",
"754 193 OFFCURVE",
"745 187 OFFCURVE",
"732 187 CURVE SMOOTH",
"633 187 LINE SMOOTH",
"624 187 OFFCURVE",
"618 190 OFFCURVE",
"613 196 CURVE",
"566 243 LINE SMOOTH",
"561 248 OFFCURVE",
"554 251 OFFCURVE",
"546 251 CURVE SMOOTH",
"538 251 OFFCURVE",
"531 248 OFFCURVE",
"526 243 CURVE SMOOTH",
"479 196 LINE",
"474 190 OFFCURVE",
"467 187 OFFCURVE",
"459 187 CURVE SMOOTH",
"360 187 LINE SMOOTH",
"347 187 OFFCURVE",
"338 193 OFFCURVE",
"333 205 CURVE",
"332 209 OFFCURVE",
"331 212 OFFCURVE",
"331 216 CURVE SMOOTH",
"331 224 OFFCURVE",
"334 231 OFFCURVE",
"340 236 CURVE",
"526 423 LINE SMOOTH",
"531 428 OFFCURVE",
"537 431 OFFCURVE",
"546 431 CURVE SMOOTH",
"555 431 OFFCURVE",
"561 428 OFFCURVE",
"566 423 CURVE SMOOTH"
);
},
{
closed = 1;
nodes = (
"670 720 OFFCURVE",
"781 670 OFFCURVE",
"862 590 CURVE SMOOTH",
"943 509 OFFCURVE",
"993 397 OFFCURVE",
"993 274 CURVE SMOOTH",
"993 150 OFFCURVE",
"943 39 OFFCURVE",
"862 -42 CURVE SMOOTH",
"781 -123 OFFCURVE",
"670 -173 OFFCURVE",
"546 -173 CURVE SMOOTH",
"422 -173 OFFCURVE",
"311 -123 OFFCURVE",
"231 -42 CURVE SMOOTH",
"150 39 OFFCURVE",
"100 150 OFFCURVE",
"100 274 CURVE SMOOTH",
"100 397 OFFCURVE",
"150 509 OFFCURVE",
"231 590 CURVE SMOOTH",
"311 670 OFFCURVE",
"422 720 OFFCURVE",
"546 720 CURVE SMOOTH"
);
},
{
closed = 1;
nodes = (
"642 -73 OFFCURVE",
"728 -34 OFFCURVE",
"791 29 CURVE SMOOTH",
"854 92 OFFCURVE",
"893 178 OFFCURVE",
"893 274 CURVE SMOOTH",
"893 370 OFFCURVE",
"854 456 OFFCURVE",
"791 519 CURVE SMOOTH",
"728 582 OFFCURVE",
"642 620 OFFCURVE",
"546 620 CURVE SMOOTH",
"450 620 OFFCURVE",
"364 582 OFFCURVE",
"301 519 CURVE SMOOTH",
"238 456 OFFCURVE",
"200 370 OFFCURVE",
"200 274 CURVE SMOOTH",
"200 178 OFFCURVE",
"238 92 OFFCURVE",
"301 29 CURVE SMOOTH",
"364 -34 OFFCURVE",
"450 -73 OFFCURVE",
"546 -73 CURVE SMOOTH"
);
}
);
width = 1093;
}
);
unicode = E010;
},
{
glyphname = circle.chevron.right.outline;
lastChange = "2014-06-03 11:00:08 +0000";
layers = (
{
layerId = "D0C94BA9-7956-4545-877F-F891ABB04BC1";
name = Regular;
paths = (
{
closed = 1;
nodes = (
"670 720 OFFCURVE",
"781 670 OFFCURVE",
"862 590 CURVE SMOOTH",
"943 509 OFFCURVE",
"993 397 OFFCURVE",
"993 274 CURVE SMOOTH",
"993 150 OFFCURVE",
"943 39 OFFCURVE",
"862 -42 CURVE SMOOTH",
"781 -123 OFFCURVE",
"670 -173 OFFCURVE",
"546 -173 CURVE SMOOTH",
"422 -173 OFFCURVE",
"311 -123 OFFCURVE",
"231 -42 CURVE SMOOTH",
"150 39 OFFCURVE",
"100 150 OFFCURVE",
"100 274 CURVE SMOOTH",
"100 397 OFFCURVE",
"150 509 OFFCURVE",
"231 590 CURVE SMOOTH",
"311 670 OFFCURVE",
"422 720 OFFCURVE",
"546 720 CURVE SMOOTH"
);
},
{
closed = 1;
nodes = (
"642 -73 OFFCURVE",
"728 -34 OFFCURVE",
"791 29 CURVE SMOOTH",
"854 92 OFFCURVE",
"893 178 OFFCURVE",
"893 274 CURVE SMOOTH",
"893 370 OFFCURVE",
"854 456 OFFCURVE",
"791 519 CURVE SMOOTH",
"728 582 OFFCURVE",
"642 620 OFFCURVE",
"546 620 CURVE SMOOTH",
"450 620 OFFCURVE",
"364 582 OFFCURVE",
"301 519 CURVE SMOOTH",
"238 456 OFFCURVE",
"200 370 OFFCURVE",
"200 274 CURVE SMOOTH",
"200 178 OFFCURVE",
"238 92 OFFCURVE",
"301 29 CURVE SMOOTH",
"364 -34 OFFCURVE",
"450 -73 OFFCURVE",
"546 -73 CURVE SMOOTH"
);
},
{
closed = 1;
nodes = (
"509 67 LINE",
"502 62 OFFCURVE",
"495 59 OFFCURVE",
"488 59 CURVE SMOOTH",
"484 59 OFFCURVE",
"481 60 OFFCURVE",
"477 61 CURVE",
"465 66 OFFCURVE",
"459 75 OFFCURVE",
"459 88 CURVE SMOOTH",
"459 187 LINE SMOOTH",
"459 195 OFFCURVE",
"462 202 OFFCURVE",
"468 207 CURVE",
"515 254 LINE SMOOTH",
"520 259 OFFCURVE",
"523 266 OFFCURVE",
"523 274 CURVE SMOOTH",
"523 282 OFFCURVE",
"520 289 OFFCURVE",
"515 294 CURVE SMOOTH",
"468 341 LINE",
"462 346 OFFCURVE",
"459 352 OFFCURVE",
"459 360 CURVE SMOOTH",
"459 460 LINE SMOOTH",
"459 473 OFFCURVE",
"465 481 OFFCURVE",
"477 486 CURVE",
"480 487 OFFCURVE",
"483 488 OFFCURVE",
"488 488 CURVE SMOOTH",
"495 488 OFFCURVE",
"502 485 OFFCURVE",
"509 480 CURVE",
"695 294 LINE SMOOTH",
"701 288 OFFCURVE",
"704 281 OFFCURVE",
"704 274 CURVE SMOOTH",
"704 265 OFFCURVE",
"701 259 OFFCURVE",
"695 254 CURVE"
);
}
);
width = 1093;
}
);
unicode = E011;
},
{
glyphname = circle.chevron.down.outline;
lastChange = "2014-06-03 11:00:08 +0000";
layers = (
{
layerId = "D0C94BA9-7956-4545-877F-F891ABB04BC1";
name = Regular;
paths = (
{
closed = 1;
nodes = (
"670 721 OFFCURVE",
"781 671 OFFCURVE",
"862 590 CURVE SMOOTH",
"943 509 OFFCURVE",
"993 398 OFFCURVE",
"993 274 CURVE SMOOTH",
"993 150 OFFCURVE",
"943 39 OFFCURVE",
"862 -41 CURVE SMOOTH",
"781 -122 OFFCURVE",
"670 -172 OFFCURVE",
"546 -172 CURVE SMOOTH",
"423 -172 OFFCURVE",
"311 -122 OFFCURVE",
"231 -41 CURVE SMOOTH",
"150 39 OFFCURVE",
"100 150 OFFCURVE",
"100 274 CURVE SMOOTH",
"100 398 OFFCURVE",
"150 509 OFFCURVE",
"231 590 CURVE SMOOTH",
"311 671 OFFCURVE",
"423 721 OFFCURVE",
"546 721 CURVE SMOOTH"
);
},
{
closed = 1;
nodes = (
"642 -72 OFFCURVE",
"728 -34 OFFCURVE",
"792 29 CURVE SMOOTH",
"855 92 OFFCURVE",
"893 178 OFFCURVE",
"893 274 CURVE SMOOTH",
"893 370 OFFCURVE",
"855 456 OFFCURVE",
"792 519 CURVE SMOOTH",
"728 582 OFFCURVE",
"642 621 OFFCURVE",
"546 621 CURVE SMOOTH",
"450 621 OFFCURVE",
"364 582 OFFCURVE",
"301 519 CURVE SMOOTH",
"238 456 OFFCURVE",
"200 370 OFFCURVE",
"200 274 CURVE SMOOTH",
"200 178 OFFCURVE",
"238 92 OFFCURVE",
"301 29 CURVE SMOOTH",
"364 -34 OFFCURVE",
"450 -72 OFFCURVE",
"546 -72 CURVE SMOOTH"
);
},
{
closed = 1;
nodes = (
"340 311 LINE",
"335 318 OFFCURVE",
"332 325 OFFCURVE",
"332 332 CURVE SMOOTH",
"332 337 OFFCURVE",
"333 340 OFFCURVE",
"334 343 CURVE",
"339 355 OFFCURVE",
"347 361 OFFCURVE",
"360 361 CURVE SMOOTH",
"460 361 LINE SMOOTH",
"467 361 OFFCURVE",
"473 358 OFFCURVE",
"479 352 CURVE SMOOTH",
"526 305 LINE SMOOTH",
"531 300 OFFCURVE",
"538 297 OFFCURVE",
"546 297 CURVE SMOOTH",
"554 297 OFFCURVE",
"561 300 OFFCURVE",
"566 305 CURVE SMOOTH",
"613 352 LINE SMOOTH",
"619 358 OFFCURVE",
"626 361 OFFCURVE",
"633 361 CURVE SMOOTH",
"733 361 LINE SMOOTH",
"745 361 OFFCURVE",
"754 355 OFFCURVE",
"759 343 CURVE",
"760 339 OFFCURVE",
"761 336 OFFCURVE",
"761 332 CURVE SMOOTH",
"761 325 OFFCURVE",
"758 318 OFFCURVE",
"753 311 CURVE",
"566 125 LINE",
"561 119 OFFCURVE",
"554 116 OFFCURVE",
"546 116 CURVE SMOOTH",
"539 116 OFFCURVE",
"532 119 OFFCURVE",
"526 125 CURVE SMOOTH"
);
}
);
width = 1093;
}
);
unicode = E012;
},
{
glyphname = circle.chevron.left.outline;
lastChange = "2014-06-03 11:00:08 +0000";
layers = (
{
layerId = "D0C94BA9-7956-4545-877F-F891ABB04BC1";
name = Regular;
paths = (
{
closed = 1;
nodes = (
"670 721 OFFCURVE",
"781 671 OFFCURVE",
"862 590 CURVE SMOOTH",
"943 509 OFFCURVE",
"993 398 OFFCURVE",
"993 274 CURVE SMOOTH",
"993 150 OFFCURVE",
"943 39 OFFCURVE",
"862 -41 CURVE SMOOTH",
"781 -122 OFFCURVE",
"670 -172 OFFCURVE",
"546 -172 CURVE SMOOTH",
"423 -172 OFFCURVE",
"311 -122 OFFCURVE",
"231 -41 CURVE SMOOTH",
"150 39 OFFCURVE",
"100 150 OFFCURVE",
"100 274 CURVE SMOOTH",
"100 398 OFFCURVE",
"150 509 OFFCURVE",
"231 590 CURVE SMOOTH",
"311 671 OFFCURVE",
"423 721 OFFCURVE",
"546 721 CURVE SMOOTH"
);
},
{
closed = 1;
nodes = (
"642 -72 OFFCURVE",
"728 -34 OFFCURVE",
"792 29 CURVE SMOOTH",
"855 92 OFFCURVE",
"893 178 OFFCURVE",
"893 274 CURVE SMOOTH",
"893 370 OFFCURVE",
"855 456 OFFCURVE",
"792 519 CURVE SMOOTH",
"728 582 OFFCURVE",
"642 621 OFFCURVE",
"546 621 CURVE SMOOTH",
"450 621 OFFCURVE",
"364 582 OFFCURVE",
"301 519 CURVE SMOOTH",
"238 456 OFFCURVE",
"200 370 OFFCURVE",
"200 274 CURVE SMOOTH",
"200 178 OFFCURVE",
"238 92 OFFCURVE",
"301 29 CURVE SMOOTH",
"364 -34 OFFCURVE",
"450 -72 OFFCURVE",
"546 -72 CURVE SMOOTH"
);
},
{
closed = 1;
nodes = (
"584 480 LINE",
"589 486 OFFCURVE",
"595 489 OFFCURVE",
"604 489 CURVE SMOOTH",
"608 489 OFFCURVE",
"611 488 OFFCURVE",
"615 487 CURVE",
"627 482 OFFCURVE",
"633 473 OFFCURVE",
"633 460 CURVE SMOOTH",
"633 361 LINE SMOOTH",
"633 352 OFFCURVE",
"630 346 OFFCURVE",
"624 341 CURVE",
"577 294 LINE SMOOTH",
"572 289 OFFCURVE",
"569 282 OFFCURVE",
"569 274 CURVE SMOOTH",
"569 266 OFFCURVE",
"572 259 OFFCURVE",
"577 254 CURVE SMOOTH",
"624 207 LINE",
"630 202 OFFCURVE",
"633 195 OFFCURVE",
"633 187 CURVE SMOOTH",
"633 88 LINE SMOOTH",
"633 75 OFFCURVE",
"627 66 OFFCURVE",
"615 61 CURVE",
"611 60 OFFCURVE",
"608 59 OFFCURVE",
"604 59 CURVE SMOOTH",
"595 59 OFFCURVE",
"589 62 OFFCURVE",
"584 68 CURVE",
"397 254 LINE SMOOTH",
"392 259 OFFCURVE",
"389 266 OFFCURVE",
"389 274 CURVE SMOOTH",
"389 282 OFFCURVE",
"392 289 OFFCURVE",
"397 294 CURVE SMOOTH"
);
}
);
width = 1093;
}
);
unicode = E013;
},
{
glyphname = circle;
lastChange = "2014-06-03 11:00:08 +0000";
layers = (
{
layerId = "D0C94BA9-7956-4545-877F-F891ABB04BC1";
name = Regular;
paths = (
{
closed = 1;
nodes = (
"960 154 OFFCURVE",
"912 48 OFFCURVE",
"834 -30 CURVE SMOOTH",
"756 -108 OFFCURVE",
"649 -157 OFFCURVE",
"530 -157 CURVE SMOOTH",
"411 -157 OFFCURVE",
"305 -108 OFFCURVE",
"227 -30 CURVE SMOOTH",
"149 48 OFFCURVE",
"100 154 OFFCURVE",
"100 273 CURVE SMOOTH",
"100 392 OFFCURVE",
"149 499 OFFCURVE",
"227 577 CURVE SMOOTH",
"305 655 OFFCURVE",
"411 703 OFFCURVE",
"530 703 CURVE SMOOTH",
"649 703 OFFCURVE",
"756 655 OFFCURVE",
"834 577 CURVE SMOOTH",
"912 499 OFFCURVE",
"960 392 OFFCURVE",
"960 273 CURVE SMOOTH"
);
}
);
width = 1060;
}
);
unicode = E02B;
},
{
glyphname = circle.check;
lastChange = "2014-06-03 11:00:08 +0000";
layers = (
{
layerId = "D0C94BA9-7956-4545-877F-F891ABB04BC1";
name = Regular;
paths = (
{
closed = 1;
nodes = (
"649 703 OFFCURVE",
"756 655 OFFCURVE",
"834 577 CURVE SMOOTH",
"912 499 OFFCURVE",
"960 392 OFFCURVE",
"960 273 CURVE SMOOTH",
"960 154 OFFCURVE",
"912 48 OFFCURVE",
"834 -30 CURVE SMOOTH",
"756 -108 OFFCURVE",
"649 -157 OFFCURVE",
"530 -157 CURVE SMOOTH",
"411 -157 OFFCURVE",
"305 -108 OFFCURVE",
"227 -30 CURVE SMOOTH",
"149 48 OFFCURVE",
"100 154 OFFCURVE",
"100 273 CURVE SMOOTH",
"100 392 OFFCURVE",
"149 499 OFFCURVE",
"227 577 CURVE SMOOTH",
"305 655 OFFCURVE",
"411 703 OFFCURVE",
"530 703 CURVE SMOOTH"
);
},
{
closed = 1;
nodes = (
"788 372 LINE",
"795 378 OFFCURVE",
"798 386 OFFCURVE",
"798 395 CURVE SMOOTH",
"798 404 OFFCURVE",
"795 412 OFFCURVE",
"788 419 CURVE SMOOTH",
"743 465 LINE",
"735 472 OFFCURVE",
"727 475 OFFCURVE",
"719 475 CURVE SMOOTH",
"710 475 OFFCURVE",
"703 472 OFFCURVE",
"696 465 CURVE SMOOTH",
"451 220 LINE",
"342 329 LINE",
"334 336 OFFCURVE",
"326 339 OFFCURVE",
"318 339 CURVE SMOOTH",
"309 339 OFFCURVE",
"302 336 OFFCURVE",
"295 329 CURVE SMOOTH",
"249 284 LINE SMOOTH",
"242 277 OFFCURVE",
"239 269 OFFCURVE",
"239 260 CURVE SMOOTH",
"239 251 OFFCURVE",
"242 243 OFFCURVE",
"249 237 CURVE",
"427 58 LINE",
"433 51 OFFCURVE",
"441 48 OFFCURVE",
"450 48 CURVE SMOOTH",
"459 48 OFFCURVE",
"467 51 OFFCURVE",
"474 58 CURVE SMOOTH"
);
}
);
width = 1060;
}
);
unicode = E02C;
},
{
glyphname = circle.plus;
lastChange = "2014-06-03 11:00:08 +0000";
layers = (
{
layerId = "D0C94BA9-7956-4545-877F-F891ABB04BC1";
name = Regular;
paths = (
{
closed = 1;
nodes = (
"649 703 OFFCURVE",
"756 655 OFFCURVE",
"834 577 CURVE SMOOTH",
"912 499 OFFCURVE",
"960 392 OFFCURVE",
"960 273 CURVE SMOOTH",
"960 154 OFFCURVE",
"912 48 OFFCURVE",
"834 -30 CURVE SMOOTH",
"756 -108 OFFCURVE",
"649 -157 OFFCURVE",
"530 -157 CURVE SMOOTH",
"411 -157 OFFCURVE",
"305 -108 OFFCURVE",
"227 -30 CURVE SMOOTH",
"149 48 OFFCURVE",
"100 154 OFFCURVE",
"100 273 CURVE SMOOTH",
"100 392 OFFCURVE",
"149 499 OFFCURVE",
"227 577 CURVE SMOOTH",
"305 655 OFFCURVE",
"411 703 OFFCURVE",
"530 703 CURVE SMOOTH"
);
},
{
closed = 1;
nodes = (
"820 303 LINE SMOOTH",
"820 326 OFFCURVE",
"803 343 OFFCURVE",
"780 343 CURVE SMOOTH",
"601 343 LINE",
"601 523 LINE SMOOTH",
"601 546 OFFCURVE",
"584 563 OFFCURVE",
"561 563 CURVE SMOOTH",
"501 563 LINE SMOOTH",
"478 563 OFFCURVE",
"461 546 OFFCURVE",
"461 523 CURVE SMOOTH",
"461 343 LINE",
"280 343 LINE SMOOTH",
"257 343 OFFCURVE",
"240 326 OFFCURVE",
"240 303 CURVE SMOOTH",
"240 243 LINE SMOOTH",
"240 220 OFFCURVE",
"257 203 OFFCURVE",
"280 203 CURVE SMOOTH",
"461 203 LINE",
"461 23 LINE SMOOTH",
"461 0 OFFCURVE",
"478 -17 OFFCURVE",
"501 -17 CURVE SMOOTH",
"561 -17 LINE SMOOTH",
"584 -17 OFFCURVE",
"601 0 OFFCURVE",
"601 23 CURVE SMOOTH",
"601 203 LINE",
"780 203 LINE SMOOTH",
"803 203 OFFCURVE",
"820 220 OFFCURVE",
"820 243 CURVE SMOOTH"
);
}
);
width = 1060;
}
);
unicode = E02D;
},
{
glyphname = circle.minus;
lastChange = "2014-06-03 16:05:44 +0000";
layers = (
{
hints = (
{
horizontal = 1;
origin = "{0, 11}";
target = "{0, 23}";
},
{
horizontal = 1;
origin = "{1, 12}";
target = "{1, 3}";
}
);
layerId = "D0C94BA9-7956-4545-877F-F891ABB04BC1";
name = Regular;
paths = (
{
closed = 1;
nodes = (
"649 703 OFFCURVE",
"756 655 OFFCURVE",
"834 577 CURVE SMOOTH",
"912 499 OFFCURVE",
"960 392 OFFCURVE",
"960 273 CURVE SMOOTH",
"960 154 OFFCURVE",
"912 48 OFFCURVE",
"834 -30 CURVE SMOOTH",
"756 -108 OFFCURVE",
"649 -157 OFFCURVE",
"530 -157 CURVE SMOOTH",
"411 -157 OFFCURVE",
"305 -108 OFFCURVE",
"227 -30 CURVE SMOOTH",
"149 48 OFFCURVE",
"100 154 OFFCURVE",
"100 273 CURVE SMOOTH",
"100 392 OFFCURVE",
"149 499 OFFCURVE",
"227 577 CURVE SMOOTH",
"305 655 OFFCURVE",
"411 703 OFFCURVE",
"530 703 CURVE SMOOTH"
);
},
{
closed = 1;
nodes = (
"820 303 LINE SMOOTH",
"820 326 OFFCURVE",
"803 343 OFFCURVE",
"780 343 CURVE SMOOTH",
"280 343 LINE SMOOTH",
"257 343 OFFCURVE",
"240 326 OFFCURVE",
"240 303 CURVE SMOOTH",
"240 243 LINE SMOOTH",
"240 220 OFFCURVE",
"257 203 OFFCURVE",
"280 203 CURVE SMOOTH",
"780 203 LINE SMOOTH",
"803 203 OFFCURVE",
"820 220 OFFCURVE",
"820 243 CURVE SMOOTH"
);
}
);
width = 1060;
}
);
unicode = E02E;
},
{
glyphname = circle.x;
lastChange = "2014-06-03 11:00:08 +0000";
layers = (
{
layerId = "D0C94BA9-7956-4545-877F-F891ABB04BC1";
name = Regular;
paths = (
{
closed = 1;
nodes = (
"649 703 OFFCURVE",
"756 655 OFFCURVE",
"834 577 CURVE SMOOTH",
"912 499 OFFCURVE",
"960 392 OFFCURVE",
"960 273 CURVE SMOOTH",
"960 154 OFFCURVE",
"912 48 OFFCURVE",
"834 -30 CURVE SMOOTH",
"756 -108 OFFCURVE",
"649 -157 OFFCURVE",
"530 -157 CURVE SMOOTH",
"411 -157 OFFCURVE",
"305 -108 OFFCURVE",
"227 -30 CURVE SMOOTH",
"149 48 OFFCURVE",
"100 154 OFFCURVE",
"100 273 CURVE SMOOTH",
"100 392 OFFCURVE",
"149 499 OFFCURVE",
"227 577 CURVE SMOOTH",
"305 655 OFFCURVE",
"411 703 OFFCURVE",
"530 703 CURVE SMOOTH"
);
},
{
closed = 1;
nodes = (
"629 269 LINE",
"757 396 LINE",
"765 403 OFFCURVE",
"769 413 OFFCURVE",
"769 424 CURVE SMOOTH",
"769 435 OFFCURVE",
"765 445 OFFCURVE",
"757 453 CURVE SMOOTH",
"714 495 LINE SMOOTH",
"706 503 OFFCURVE",
"696 507 OFFCURVE",
"685 507 CURVE SMOOTH",
"674 507 OFFCURVE",
"665 503 OFFCURVE",
"658 495 CURVE",
"530 368 LINE",
"402 496 LINE SMOOTH",
"394 504 OFFCURVE",
"385 508 OFFCURVE",
"374 508 CURVE SMOOTH",
"363 508 OFFCURVE",
"353 504 OFFCURVE",
"346 496 CURVE",
"303 454 LINE",
"295 447 OFFCURVE",
"291 437 OFFCURVE",
"291 426 CURVE SMOOTH",
"291 415 OFFCURVE",
"295 405 OFFCURVE",
"303 397 CURVE SMOOTH",
"431 269 LINE",
"304 142 LINE SMOOTH",
"296 134 OFFCURVE",
"292 124 OFFCURVE",
"292 113 CURVE SMOOTH",
"292 102 OFFCURVE",
"296 93 OFFCURVE",
"304 85 CURVE SMOOTH",
"347 43 LINE SMOOTH",
"355 35 OFFCURVE",
"364 31 OFFCURVE",
"375 31 CURVE SMOOTH",
"386 31 OFFCURVE",
"395 35 OFFCURVE",
"403 43 CURVE SMOOTH",
"530 170 LINE",
"657 44 LINE SMOOTH",
"665 36 OFFCURVE",
"674 32 OFFCURVE",
"685 32 CURVE SMOOTH",
"696 32 OFFCURVE",
"705 36 OFFCURVE",
"713 44 CURVE SMOOTH",
"756 86 LINE SMOOTH",
"764 94 OFFCURVE",
"768 103 OFFCURVE",
"768 114 CURVE SMOOTH",
"768 125 OFFCURVE",
"764 135 OFFCURVE",
"756 143 CURVE SMOOTH"
);
}
);
width = 1060;
}
);
unicode = E02F;
},
{
glyphname = clock;
lastChange = "2014-06-03 11:00:08 +0000";
layers = (
{
layerId = "D0C94BA9-7956-4545-877F-F891ABB04BC1";
name = Regular;
paths = (
{
closed = 1;
nodes = (
"949 388 OFFCURVE",
"960 332 OFFCURVE",
"960 273 CURVE SMOOTH",
"960 156 OFFCURVE",
"914 48 OFFCURVE",
"835 -31 CURVE SMOOTH",
"755 -111 OFFCURVE",
"646 -157 OFFCURVE",
"530 -157 CURVE SMOOTH",
"413 -157 OFFCURVE",
"305 -111 OFFCURVE",
"226 -32 CURVE SMOOTH",
"146 48 OFFCURVE",
"100 156 OFFCURVE",
"100 273 CURVE SMOOTH",
"100 389 OFFCURVE",
"146 498 OFFCURVE",
"225 577 CURVE SMOOTH",
"305 657 OFFCURVE",
"413 703 OFFCURVE",
"530 703 CURVE SMOOTH",
"646 703 OFFCURVE",
"755 657 OFFCURVE",
"834 578 CURVE SMOOTH",
"875 537 OFFCURVE",
"905 491 OFFCURVE",
"926 440 CURVE SMOOTH"
);
},
{
closed = 1;
nodes = (
"851 186 OFFCURVE",
"860 228 OFFCURVE",
"860 273 CURVE SMOOTH",
"860 362 OFFCURVE",
"823 447 OFFCURVE",
"764 506 CURVE SMOOTH",
"704 566 OFFCURVE",
"619 603 OFFCURVE",
"530 603 CURVE SMOOTH",
"441 603 OFFCURVE",
"356 566 OFFCURVE",
"297 507 CURVE SMOOTH",
"237 447 OFFCURVE",
"200 362 OFFCURVE",
"200 273 CURVE SMOOTH",
"200 184 OFFCURVE",
"237 99 OFFCURVE",
"296 40 CURVE SMOOTH",
"356 -20 OFFCURVE",
"441 -57 OFFCURVE",
"530 -57 CURVE SMOOTH",
"619 -57 OFFCURVE",
"704 -20 OFFCURVE",
"763 39 CURVE SMOOTH",
"793 69 OFFCURVE",
"817 104 OFFCURVE",
"834 145 CURVE SMOOTH"
);
},
{
closed = 1;
nodes = (
"705 80 OFFCURVE",
"693 75 OFFCURVE",
"678 75 CURVE SMOOTH",
"664 75 OFFCURVE",
"652 80 OFFCURVE",
"643 89 CURVE SMOOTH",
"498 234 LINE",
"486 245 OFFCURVE",
"480 258 OFFCURVE",
"480 273 CURVE SMOOTH",
"480 483 LINE SMOOTH",
"480 511 OFFCURVE",
"502 533 OFFCURVE",
"530 533 CURVE SMOOTH",
"558 533 OFFCURVE",
"580 511 OFFCURVE",
"580 483 CURVE SMOOTH",
"580 294 LINE",
"714 160 LINE",
"723 149 OFFCURVE",
"728 137 OFFCURVE",
"728 124 CURVE SMOOTH",
"728 111 OFFCURVE",
"723 100 OFFCURVE",
"714 89 CURVE"
);
}
);
width = 1060;
}
);
unicode = E039;
},
{
glyphname = clock.invert;
lastChange = "2014-06-03 11:00:08 +0000";
layers = (
{
layerId = "D0C94BA9-7956-4545-877F-F891ABB04BC1";
name = Regular;
paths = (
{
closed = 1;
nodes = (
"949 388 OFFCURVE",
"960 332 OFFCURVE",
"960 273 CURVE SMOOTH",
"960 156 OFFCURVE",
"914 48 OFFCURVE",
"835 -31 CURVE SMOOTH",
"755 -111 OFFCURVE",
"646 -157 OFFCURVE",
"530 -157 CURVE SMOOTH",
"413 -157 OFFCURVE",
"305 -111 OFFCURVE",
"226 -32 CURVE SMOOTH",
"146 48 OFFCURVE",
"100 156 OFFCURVE",
"100 273 CURVE SMOOTH",
"100 389 OFFCURVE",
"146 498 OFFCURVE",
"225 577 CURVE SMOOTH",
"305 657 OFFCURVE",
"413 703 OFFCURVE",
"530 703 CURVE SMOOTH",
"646 703 OFFCURVE",
"755 657 OFFCURVE",
"834 578 CURVE SMOOTH",
"875 537 OFFCURVE",
"905 491 OFFCURVE",
"926 440 CURVE SMOOTH"
);
},
{
closed = 1;
nodes = (
"723 100 OFFCURVE",
"728 111 OFFCURVE",
"728 124 CURVE SMOOTH",
"728 137 OFFCURVE",
"723 149 OFFCURVE",
"714 160 CURVE",
"580 294 LINE",
"580 483 LINE SMOOTH",
"580 511 OFFCURVE",
"558 533 OFFCURVE",
"530 533 CURVE SMOOTH",
"502 533 OFFCURVE",
"480 511 OFFCURVE",
"480 483 CURVE SMOOTH",
"480 273 LINE SMOOTH",
"480 258 OFFCURVE",
"486 245 OFFCURVE",
"498 234 CURVE",
"643 89 LINE SMOOTH",
"652 80 OFFCURVE",
"664 75 OFFCURVE",
"678 75 CURVE SMOOTH",
"693 75 OFFCURVE",
"705 80 OFFCURVE",
"714 89 CURVE"
);
}
);
width = 1060;
}
);
unicode = E03A;
},
{
glyphname = clock.reverse;
lastChange = "2014-06-03 11:00:08 +0000";
layers = (
{
layerId = "D0C94BA9-7956-4545-877F-F891ABB04BC1";
name = Regular;
paths = (
{
closed = 1;
nodes = (
"784 80 OFFCURVE",
"772 75 OFFCURVE",
"758 75 CURVE SMOOTH",
"743 75 OFFCURVE",
"732 80 OFFCURVE",
"723 89 CURVE SMOOTH",
"578 234 LINE",
"566 244 OFFCURVE",
"560 257 OFFCURVE",
"560 273 CURVE SMOOTH",
"560 483 LINE SMOOTH",
"560 511 OFFCURVE",
"582 533 OFFCURVE",
"610 533 CURVE SMOOTH",
"637 533 OFFCURVE",
"660 511 OFFCURVE",
"660 483 CURVE SMOOTH",
"660 294 LINE",
"793 160 LINE SMOOTH",
"803 150 OFFCURVE",
"808 138 OFFCURVE",
"808 124 CURVE SMOOTH",
"808 111 OFFCURVE",
"803 99 OFFCURVE",
"793 89 CURVE SMOOTH"
);
},
{
closed = 1;
nodes = (
"1029 385 OFFCURVE",
"1040 330 OFFCURVE",
"1040 273 CURVE SMOOTH",
"1040 160 OFFCURVE",
"993 48 OFFCURVE",
"914 -31 CURVE SMOOTH",
"833 -112 OFFCURVE",
"733 -153 OFFCURVE",
"622 -157 CURVE",
"615 -157 OFFCURVE",
"610 -152 OFFCURVE",
"610 -145 CURVE SMOOTH",
"610 -69 LINE SMOOTH",
"610 -61 OFFCURVE",
"614 -57 OFFCURVE",
"621 -57 CURVE SMOOTH",
"701 -56 OFFCURVE",
"783 -21 OFFCURVE",
"843 40 CURVE SMOOTH",
"903 100 OFFCURVE",
"940 185 OFFCURVE",
"940 273 CURVE SMOOTH",
"940 362 OFFCURVE",
"904 445 OFFCURVE",
"843 506 CURVE SMOOTH",
"812 537 OFFCURVE",
"777 560 OFFCURVE",
"738 577 CURVE SMOOTH",
"696 594 OFFCURVE",
"653 603 OFFCURVE",
"610 603 CURVE SMOOTH",
"522 603 OFFCURVE",
"436 566 OFFCURVE",
"376 506 CURVE SMOOTH",
"345 475 OFFCURVE",
"322 440 OFFCURVE",
"305 401 CURVE SMOOTH",
"288 361 OFFCURVE",
"280 317 OFFCURVE",
"280 273 CURVE",
"348 273 LINE SMOOTH",
"354 273 OFFCURVE",
"358 271 OFFCURVE",
"359 266 CURVE",
"360 265 OFFCURVE",
"360 263 OFFCURVE",
"360 261 CURVE SMOOTH",
"360 258 OFFCURVE",
"359 255 OFFCURVE",
"357 252 CURVE",
"239 134 LINE SMOOTH",
"237 132 OFFCURVE",
"234 131 OFFCURVE",
"230 131 CURVE SMOOTH",
"227 131 OFFCURVE",
"224 132 OFFCURVE",
"222 134 CURVE SMOOTH",
"104 252 LINE SMOOTH",
"101 255 OFFCURVE",
"100 258 OFFCURVE",
"100 261 CURVE SMOOTH",
"100 263 OFFCURVE",
"100 265 OFFCURVE",
"101 266 CURVE",
"103 271 OFFCURVE",
"107 273 OFFCURVE",
"112 273 CURVE SMOOTH",
"180 273 LINE",
"180 389 OFFCURVE",
"225 496 OFFCURVE",
"306 577 CURVE SMOOTH",
"345 616 OFFCURVE",
"391 647 OFFCURVE",
"442 669 CURVE SMOOTH",
"495 692 OFFCURVE",
"551 703 OFFCURVE",
"610 703 CURVE SMOOTH",
"729 703 OFFCURVE",
"834 656 OFFCURVE",
"913 577 CURVE SMOOTH",
"954 536 OFFCURVE",
"985 491 OFFCURVE",
"1006 440 CURVE SMOOTH"
);
}
);
width = 1140;
}
);
unicode = E03B;
},
{
glyphname = stopwatch;
lastChange = "2014-06-03 11:00:08 +0000";
layers = (
{
layerId = "D0C94BA9-7956-4545-877F-F891ABB04BC1";
name = Regular;
paths = (
{
closed = 1;
nodes = (
"445 653 LINE",
"445 681 OFFCURVE",
"467 703 OFFCURVE",
"495 703 CURVE SMOOTH",
"523 703 OFFCURVE",
"545 681 OFFCURVE",
"545 650 CURVE",
"529 652 OFFCURVE",
"512 653 OFFCURVE",
"495 653 CURVE SMOOTH"
);
},
{
closed = 1;
nodes = (
"880 344 OFFCURVE",
"890 293 OFFCURVE",
"890 238 CURVE SMOOTH",
"890 129 OFFCURVE",
"847 31 OFFCURVE",
"775 -41 CURVE SMOOTH",
"702 -114 OFFCURVE",
"604 -157 OFFCURVE",
"495 -157 CURVE SMOOTH",
"386 -157 OFFCURVE",
"288 -114 OFFCURVE",
"216 -42 CURVE SMOOTH",
"143 31 OFFCURVE",
"100 129 OFFCURVE",
"100 238 CURVE SMOOTH",
"100 347 OFFCURVE",
"143 445 OFFCURVE",
"215 517 CURVE SMOOTH",
"288 590 OFFCURVE",
"386 633 OFFCURVE",
"495 633 CURVE SMOOTH",
"604 633 OFFCURVE",
"702 590 OFFCURVE",
"774 518 CURVE SMOOTH",
"811 481 OFFCURVE",
"839 439 OFFCURVE",
"859 392 CURVE SMOOTH"
);
},
{
closed = 1;
nodes = (
"790 157 OFFCURVE",
"798 196 OFFCURVE",
"798 238 CURVE SMOOTH",
"798 321 OFFCURVE",
"766 395 OFFCURVE",
"709 452 CURVE SMOOTH",
"652 509 OFFCURVE",
"578 541 OFFCURVE",
"495 541 CURVE SMOOTH",
"411 541 OFFCURVE",
"338 509 OFFCURVE",
"281 452 CURVE SMOOTH",
"224 395 OFFCURVE",
"192 321 OFFCURVE",
"192 238 CURVE SMOOTH",
"192 154 OFFCURVE",
"224 81 OFFCURVE",
"281 24 CURVE SMOOTH",
"338 -33 OFFCURVE",
"411 -65 OFFCURVE",
"495 -65 CURVE SMOOTH",
"578 -65 OFFCURVE",
"652 -33 OFFCURVE",
"709 24 CURVE SMOOTH",
"738 53 OFFCURVE",
"759 85 OFFCURVE",
"774 120 CURVE SMOOTH"
);
},
{
closed = 1;
nodes = (
"662 618 OFFCURVE",
"647 625 OFFCURVE",
"631 630 CURVE",
"633 633 LINE",
"641 652 OFFCURVE",
"658 661 OFFCURVE",
"677 661 CURVE SMOOTH",
"693 661 OFFCURVE",
"711 653 OFFCURVE",
"721 638 CURVE SMOOTH",
"726 630 OFFCURVE",
"728 621 OFFCURVE",
"728 612 CURVE SMOOTH",
"728 604 OFFCURVE",
"726 596 OFFCURVE",
"722 588 CURVE",
"721 585 LINE",
"706 594 OFFCURVE",
"692 603 OFFCURVE",
"677 610 CURVE"
);
},
{
closed = 1;
nodes = (
"520 477 OFFCURVE",
"541 456 OFFCURVE",
"541 431 CURVE SMOOTH",
"541 261 LINE SMOOTH",
"541 236 OFFCURVE",
"520 215 OFFCURVE",
"495 215 CURVE SMOOTH",
"470 215 OFFCURVE",
"449 236 OFFCURVE",
"449 261 CURVE SMOOTH",
"449 431 LINE SMOOTH",
"449 456 OFFCURVE",
"470 477 OFFCURVE",
"495 477 CURVE SMOOTH"
);
}
);
width = 990;
}
);
unicode = E03C;
},
{
glyphname = stopwatch.invert;
lastChange = "2014-06-03 11:00:08 +0000";
layers = (
{
layerId = "D0C94BA9-7956-4545-877F-F891ABB04BC1";
name = Regular;
paths = (
{
closed = 1;
nodes = (
"445 653 LINE",
"445 681 OFFCURVE",
"467 703 OFFCURVE",
"495 703 CURVE SMOOTH",
"523 703 OFFCURVE",
"545 681 OFFCURVE",
"545 650 CURVE",
"529 652 OFFCURVE",
"512 653 OFFCURVE",
"495 653 CURVE SMOOTH"
);
},
{
closed = 1;
nodes = (
"662 618 OFFCURVE",
"647 625 OFFCURVE",
"631 630 CURVE",
"633 633 LINE",
"641 652 OFFCURVE",
"658 661 OFFCURVE",
"677 661 CURVE SMOOTH",
"693 661 OFFCURVE",
"711 653 OFFCURVE",
"721 638 CURVE SMOOTH",
"726 630 OFFCURVE",
"728 621 OFFCURVE",
"728 612 CURVE SMOOTH",
"728 604 OFFCURVE",
"726 596 OFFCURVE",
"722 588 CURVE",
"721 585 LINE",
"706 594 OFFCURVE",
"692 603 OFFCURVE",
"677 610 CURVE"
);
},
{
closed = 1;
nodes = (
"880 344 OFFCURVE",
"890 293 OFFCURVE",
"890 238 CURVE SMOOTH",
"890 129 OFFCURVE",
"847 31 OFFCURVE",
"775 -41 CURVE SMOOTH",
"702 -114 OFFCURVE",
"604 -157 OFFCURVE",
"495 -157 CURVE SMOOTH",
"386 -157 OFFCURVE",
"288 -114 OFFCURVE",
"216 -42 CURVE SMOOTH",
"143 31 OFFCURVE",
"100 129 OFFCURVE",
"100 238 CURVE SMOOTH",
"100 347 OFFCURVE",
"143 445 OFFCURVE",
"215 517 CURVE SMOOTH",
"288 590 OFFCURVE",
"386 633 OFFCURVE",
"495 633 CURVE SMOOTH",
"604 633 OFFCURVE",
"702 590 OFFCURVE",
"774 518 CURVE SMOOTH",
"811 481 OFFCURVE",
"839 439 OFFCURVE",
"859 392 CURVE SMOOTH"
);
},
{
closed = 1;
nodes = (
"541 431 LINE SMOOTH",
"541 456 OFFCURVE",
"520 477 OFFCURVE",
"495 477 CURVE SMOOTH",
"470 477 OFFCURVE",
"449 456 OFFCURVE",
"449 431 CURVE SMOOTH",
"449 261 LINE SMOOTH",
"449 236 OFFCURVE",
"470 215 OFFCURVE",
"495 215 CURVE SMOOTH",
"520 215 OFFCURVE",
"541 236 OFFCURVE",
"541 261 CURVE SMOOTH"
);
}
);
width = 990;
}
);
unicode = E03D;
},
{
glyphname = alarm.clock;
lastChange = "2014-06-03 11:00:08 +0000";
layers = (
{
layerId = "D0C94BA9-7956-4545-877F-F891ABB04BC1";
name = Regular;
paths = (
{
closed = 1;
nodes = (
"853 487 OFFCURVE",
"778 562 OFFCURVE",
"683 602 CURVE SMOOTH",
"635 623 OFFCURVE",
"584 633 OFFCURVE",
"529 633 CURVE SMOOTH",
"420 633 OFFCURVE",
"322 590 OFFCURVE",
"249 517 CURVE SMOOTH",
"177 445 OFFCURVE",
"134 347 OFFCURVE",
"134 238 CURVE SMOOTH",
"134 129 OFFCURVE",
"177 31 OFFCURVE",
"250 -42 CURVE SMOOTH",
"322 -114 OFFCURVE",
"420 -157 OFFCURVE",
"529 -157 CURVE SMOOTH",
"638 -157 OFFCURVE",
"736 -114 OFFCURVE",
"809 -41 CURVE SMOOTH",
"881 31 OFFCURVE",
"924 129 OFFCURVE",
"924 238 CURVE SMOOTH",
"924 293 OFFCURVE",
"914 344 OFFCURVE",
"893 392 CURVE SMOOTH"
);
},
{
closed = 1;
nodes = (
"779 49 OFFCURVE",
"718 -12 OFFCURVE",
"647 -41 CURVE SMOOTH",
"610 -57 OFFCURVE",
"570 -65 OFFCURVE",
"529 -65 CURVE SMOOTH",
"445 -65 OFFCURVE",
"372 -33 OFFCURVE",
"315 24 CURVE SMOOTH",
"258 81 OFFCURVE",
"226 154 OFFCURVE",
"226 238 CURVE SMOOTH",
"226 321 OFFCURVE",
"258 395 OFFCURVE",
"315 452 CURVE SMOOTH",
"372 509 OFFCURVE",
"445 541 OFFCURVE",
"529 541 CURVE SMOOTH",
"612 541 OFFCURVE",
"686 509 OFFCURVE",
"743 452 CURVE SMOOTH",
"800 395 OFFCURVE",
"832 321 OFFCURVE",
"832 238 CURVE SMOOTH",
"832 196 OFFCURVE",
"824 157 OFFCURVE",
"808 120 CURVE SMOOTH"
);
},
{
closed = 1;
nodes = (
"575 257 LINE",
"575 431 LINE SMOOTH",
"575 456 OFFCURVE",
"554 477 OFFCURVE",
"529 477 CURVE SMOOTH",
"504 477 OFFCURVE",
"483 456 OFFCURVE",
"483 431 CURVE SMOOTH",
"483 238 LINE SMOOTH",
"483 223 OFFCURVE",
"489 211 OFFCURVE",
"500 203 CURVE",
"633 69 LINE SMOOTH",
"642 60 OFFCURVE",
"653 55 OFFCURVE",
"665 55 CURVE SMOOTH",
"690 55 OFFCURVE",
"711 76 OFFCURVE",
"711 101 CURVE SMOOTH",
"711 114 OFFCURVE",
"707 125 OFFCURVE",
"698 134 CURVE SMOOTH"
);
},
{
closed = 1;
nodes = (
"682 691 OFFCURVE",
"714 701 OFFCURVE",
"749 703 CURVE",
"758 703 LINE SMOOTH",
"811 703 OFFCURVE",
"860 683 OFFCURVE",
"896 649 CURVE SMOOTH",
"932 615 OFFCURVE",
"955 566 OFFCURVE",
"958 513 CURVE",
"958 501 LINE SMOOTH",
"958 470 OFFCURVE",
"951 441 OFFCURVE",
"938 413 CURVE",
"914 477 OFFCURVE",
"875 533 OFFCURVE",
"826 577 CURVE SMOOTH",
"777 621 OFFCURVE",
"717 655 OFFCURVE",
"652 672 CURVE"
);
},
{
closed = 1;
nodes = (
"376 691 OFFCURVE",
"344 701 OFFCURVE",
"309 703 CURVE",
"300 703 LINE SMOOTH",
"247 703 OFFCURVE",
"198 683 OFFCURVE",
"162 649 CURVE SMOOTH",
"126 615 OFFCURVE",
"103 566 OFFCURVE",
"100 513 CURVE",
"100 501 LINE SMOOTH",
"100 470 OFFCURVE",
"107 441 OFFCURVE",
"120 413 CURVE",
"144 477 OFFCURVE",
"183 533 OFFCURVE",
"232 577 CURVE SMOOTH",
"281 621 OFFCURVE",
"341 655 OFFCURVE",
"406 672 CURVE"
);
}
);
width = 1058;
}
);
unicode = E03E;
},
{
glyphname = alarm.clock.invert;
lastChange = "2014-06-03 11:00:08 +0000";
layers = (
{
layerId = "D0C94BA9-7956-4545-877F-F891ABB04BC1";
name = Regular;
paths = (
{
closed = 1;
nodes = (
"914 344 OFFCURVE",
"924 293 OFFCURVE",
"924 238 CURVE SMOOTH",
"924 129 OFFCURVE",
"881 31 OFFCURVE",
"809 -41 CURVE SMOOTH",
"736 -114 OFFCURVE",
"638 -157 OFFCURVE",
"529 -157 CURVE SMOOTH",
"420 -157 OFFCURVE",
"322 -114 OFFCURVE",
"250 -42 CURVE SMOOTH",
"177 31 OFFCURVE",
"134 129 OFFCURVE",
"134 238 CURVE SMOOTH",
"134 347 OFFCURVE",
"177 445 OFFCURVE",
"249 517 CURVE SMOOTH",
"322 590 OFFCURVE",
"420 633 OFFCURVE",
"529 633 CURVE SMOOTH",
"638 633 OFFCURVE",
"736 590 OFFCURVE",
"808 518 CURVE SMOOTH",
"845 481 OFFCURVE",
"873 439 OFFCURVE",
"893 392 CURVE SMOOTH"
);
},
{
closed = 1;
nodes = (
"707 78 OFFCURVE",
"711 88 OFFCURVE",
"711 101 CURVE SMOOTH",
"711 114 OFFCURVE",
"707 125 OFFCURVE",
"698 134 CURVE SMOOTH",
"575 257 LINE",
"575 431 LINE SMOOTH",
"575 456 OFFCURVE",
"554 477 OFFCURVE",
"529 477 CURVE SMOOTH",
"504 477 OFFCURVE",
"483 456 OFFCURVE",
"483 431 CURVE SMOOTH",
"483 238 LINE SMOOTH",
"483 223 OFFCURVE",
"489 211 OFFCURVE",
"500 203 CURVE",
"633 69 LINE SMOOTH",
"642 60 OFFCURVE",
"653 55 OFFCURVE",
"665 55 CURVE SMOOTH",
"678 55 OFFCURVE",
"689 60 OFFCURVE",
"698 69 CURVE SMOOTH"
);
},
{
closed = 1;
nodes = (
"682 691 OFFCURVE",
"714 701 OFFCURVE",
"749 703 CURVE",
"758 703 LINE SMOOTH",
"811 703 OFFCURVE",
"860 683 OFFCURVE",
"896 649 CURVE SMOOTH",
"932 615 OFFCURVE",
"955 566 OFFCURVE",
"958 513 CURVE",
"958 501 LINE SMOOTH",
"958 470 OFFCURVE",
"951 441 OFFCURVE",
"938 413 CURVE",
"914 477 OFFCURVE",
"875 533 OFFCURVE",
"826 577 CURVE SMOOTH",
"777 621 OFFCURVE",
"717 655 OFFCURVE",
"652 672 CURVE"
);
},
{
closed = 1;
nodes = (
"341 655 OFFCURVE",
"281 621 OFFCURVE",
"232 577 CURVE SMOOTH",
"183 533 OFFCURVE",
"144 477 OFFCURVE",
"120 413 CURVE",
"107 441 OFFCURVE",
"100 470 OFFCURVE",
"100 501 CURVE SMOOTH",
"100 513 LINE",
"103 566 OFFCURVE",
"126 615 OFFCURVE",
"162 649 CURVE SMOOTH",
"198 683 OFFCURVE",
"247 703 OFFCURVE",
"300 703 CURVE SMOOTH",
"309 703 LINE",
"344 701 OFFCURVE",
"376 691 OFFCURVE",
"406 672 CURVE"
);
}
);
width = 1058;
}
);
unicode = E03F;
},
{
glyphname = comment.outline;
lastChange = "2014-06-03 11:00:08 +0000";
layers = (
{
layerId = "D0C94BA9-7956-4545-877F-F891ABB04BC1";
name = Regular;
paths = (
{
closed = 1;
nodes = (
"289 -131 OFFCURVE",
"283 -129 OFFCURVE",
"276 -126 CURVE",
"266 -118 OFFCURVE",
"261 -109 OFFCURVE",
"261 -99 CURVE SMOOTH",
"261 -96 OFFCURVE",
"261 -93 OFFCURVE",
"262 -92 CURVE",
"296 0 LINE",
"267 0 LINE SMOOTH",
"223 0 OFFCURVE",
"181 17 OFFCURVE",
"149 49 CURVE SMOOTH",
"118 80 OFFCURVE",
"100 122 OFFCURVE",
"100 166 CURVE SMOOTH",
"100 465 LINE SMOOTH",
"100 510 OFFCURVE",
"119 552 OFFCURVE",
"149 581 CURVE SMOOTH",
"179 610 OFFCURVE",
"221 629 OFFCURVE",
"266 629 CURVE SMOOTH",
"794 629 LINE SMOOTH",
"838 629 OFFCURVE",
"880 612 OFFCURVE",
"911 581 CURVE SMOOTH",
"942 550 OFFCURVE",
"960 509 OFFCURVE",
"960 465 CURVE SMOOTH",
"960 165 LINE SMOOTH",
"960 120 OFFCURVE",
"942 79 OFFCURVE",
"912 49 CURVE SMOOTH",
"882 19 OFFCURVE",
"840 0 OFFCURVE",
"795 0 CURVE SMOOTH",
"461 0 LINE",
"313 -125 LINE SMOOTH",
"308 -129 OFFCURVE",
"302 -131 OFFCURVE",
"295 -131 CURVE SMOOTH"
);
},
{
closed = 1;
nodes = (
"795 80 LINE SMOOTH",
"842 80 OFFCURVE",
"880 118 OFFCURVE",
"880 165 CURVE SMOOTH",
"880 465 LINE SMOOTH",
"880 486 OFFCURVE",
"871 508 OFFCURVE",
"854 524 CURVE SMOOTH",
"837 541 OFFCURVE",
"817 549 OFFCURVE",
"794 549 CURVE SMOOTH",
"266 549 LINE SMOOTH",
"242 549 OFFCURVE",
"221 540 OFFCURVE",
"206 525 CURVE SMOOTH",
"190 509 OFFCURVE",
"180 488 OFFCURVE",
"180 465 CURVE SMOOTH",
"180 166 LINE SMOOTH",
"180 118 OFFCURVE",
"220 80 OFFCURVE",
"267 80 CURVE SMOOTH"
);
}
);
width = 1060;
}
);
unicode = E035;
},
{
glyphname = comment;
lastChange = "2014-06-03 11:00:08 +0000";
layers = (
{
layerId = "D0C94BA9-7956-4545-877F-F891ABB04BC1";
name = Regular;
paths = (
{
closed = 1;
nodes = (
"289 -131 OFFCURVE",
"283 -129 OFFCURVE",
"276 -126 CURVE",
"266 -118 OFFCURVE",
"261 -109 OFFCURVE",
"261 -99 CURVE SMOOTH",
"261 -96 OFFCURVE",
"261 -93 OFFCURVE",
"262 -92 CURVE",
"296 0 LINE",
"267 0 LINE SMOOTH",
"223 0 OFFCURVE",
"181 17 OFFCURVE",
"149 49 CURVE SMOOTH",
"118 80 OFFCURVE",
"100 122 OFFCURVE",
"100 166 CURVE SMOOTH",
"100 465 LINE SMOOTH",
"100 510 OFFCURVE",
"119 552 OFFCURVE",
"149 581 CURVE SMOOTH",
"179 610 OFFCURVE",
"219 629 OFFCURVE",
"266 629 CURVE SMOOTH",
"794 629 LINE SMOOTH",
"838 629 OFFCURVE",
"880 612 OFFCURVE",
"911 581 CURVE SMOOTH",
"942 550 OFFCURVE",
"960 509 OFFCURVE",
"960 465 CURVE SMOOTH",
"960 165 LINE SMOOTH",
"960 120 OFFCURVE",
"942 79 OFFCURVE",
"912 49 CURVE SMOOTH",
"882 19 OFFCURVE",
"840 0 OFFCURVE",
"795 0 CURVE SMOOTH",
"461 0 LINE",
"313 -125 LINE SMOOTH",
"308 -129 OFFCURVE",
"302 -131 OFFCURVE",
"295 -131 CURVE SMOOTH"
);
}
);
width = 1060;
}
);
unicode = E036;
},
{
glyphname = reply;
lastChange = "2014-06-03 11:00:08 +0000";
layers = (
{
layerId = "D0C94BA9-7956-4545-877F-F891ABB04BC1";
name = Regular;
paths = (
{
closed = 1;
nodes = (
"536 366 LINE SMOOTH",
"512 366 OFFCURVE",
"491 356 OFFCURVE",
"476 341 CURVE SMOOTH",
"460 325 OFFCURVE",
"450 303 OFFCURVE",
"450 279 CURVE SMOOTH",
"450 98 LINE SMOOTH",
"450 91 OFFCURVE",
"447 88 OFFCURVE",
"440 88 CURVE SMOOTH",
"405 88 LINE",
"283 -15 LINE",
"278 -18 OFFCURVE",
"272 -20 OFFCURVE",
"267 -20 CURVE SMOOTH",
"264 -20 OFFCURVE",
"259 -19 OFFCURVE",
"252 -16 CURVE",
"243 -9 OFFCURVE",
"239 -2 OFFCURVE",
"239 7 CURVE SMOOTH",
"239 10 OFFCURVE",
"239 12 OFFCURVE",
"240 13 CURVE",
"268 88 LINE",
"230 88 LINE SMOOTH",
"194 88 OFFCURVE",
"162 103 OFFCURVE",
"138 127 CURVE SMOOTH",
"114 150 OFFCURVE",
"100 182 OFFCURVE",
"100 218 CURVE SMOOTH",
"100 515 LINE SMOOTH",
"100 551 OFFCURVE",
"114 583 OFFCURVE",
"138 607 CURVE SMOOTH",
"162 631 OFFCURVE",
"194 645 OFFCURVE",
"230 645 CURVE SMOOTH",
"731 645 LINE SMOOTH",
"767 645 OFFCURVE",
"799 631 OFFCURVE",
"823 607 CURVE SMOOTH",
"847 583 OFFCURVE",
"861 551 OFFCURVE",
"861 515 CURVE SMOOTH",
"861 376 LINE SMOOTH",
"861 369 OFFCURVE",
"858 366 OFFCURVE",
"851 366 CURVE SMOOTH"
);
},
{
closed = 1;
nodes = (
"590 286 LINE SMOOTH",
"557 286 OFFCURVE",
"530 259 OFFCURVE",
"530 226 CURVE SMOOTH",
"530 45 LINE SMOOTH",
"530 12 OFFCURVE",
"557 -15 OFFCURVE",
"590 -15 CURVE SMOOTH",
"752 -15 LINE",
"855 -102 LINE",
"860 -105 OFFCURVE",
"866 -107 OFFCURVE",
"871 -107 CURVE SMOOTH",
"876 -107 OFFCURVE",
"881 -106 OFFCURVE",
"886 -103 CURVE",
"895 -96 OFFCURVE",
"899 -89 OFFCURVE",
"899 -80 CURVE SMOOTH",
"899 -77 OFFCURVE",
"899 -75 OFFCURVE",
"898 -74 CURVE",
"877 -15 LINE",
"900 -15 LINE SMOOTH",
"933 -15 OFFCURVE",
"960 12 OFFCURVE",
"960 45 CURVE SMOOTH",
"960 226 LINE SMOOTH",
"960 259 OFFCURVE",
"933 286 OFFCURVE",
"900 286 CURVE SMOOTH"
);
}
);
width = 1060;
}
);
unicode = E037;
},
{
glyphname = reply.outline;
lastChange = "2014-06-03 11:00:08 +0000";
layers = (
{
layerId = "D0C94BA9-7956-4545-877F-F891ABB04BC1";
name = Regular;
paths = (
{
closed = 1;
nodes = (
"590 286 LINE SMOOTH",
"557 286 OFFCURVE",
"530 259 OFFCURVE",
"530 226 CURVE SMOOTH",
"530 45 LINE SMOOTH",
"530 12 OFFCURVE",
"557 -15 OFFCURVE",
"590 -15 CURVE SMOOTH",
"752 -15 LINE",
"855 -102 LINE",
"860 -105 OFFCURVE",
"866 -107 OFFCURVE",
"871 -107 CURVE SMOOTH",
"876 -107 OFFCURVE",
"881 -106 OFFCURVE",
"886 -103 CURVE",
"895 -96 OFFCURVE",
"899 -89 OFFCURVE",
"899 -80 CURVE SMOOTH",
"899 -77 OFFCURVE",
"899 -75 OFFCURVE",
"898 -74 CURVE",
"877 -15 LINE",
"900 -15 LINE SMOOTH",
"933 -15 OFFCURVE",
"960 12 OFFCURVE",
"960 45 CURVE SMOOTH",
"960 226 LINE SMOOTH",
"960 259 OFFCURVE",
"933 286 OFFCURVE",
"900 286 CURVE SMOOTH"
);
},
{
closed = 1;
nodes = (
"861 376 LINE SMOOTH",
"861 369 OFFCURVE",
"858 366 OFFCURVE",
"851 366 CURVE SMOOTH",
"791 366 LINE SMOOTH",
"784 366 OFFCURVE",
"781 369 OFFCURVE",
"781 376 CURVE SMOOTH",
"781 515 LINE SMOOTH",
"781 542 OFFCURVE",
"759 565 OFFCURVE",
"731 565 CURVE SMOOTH",
"230 565 LINE SMOOTH",
"202 565 OFFCURVE",
"180 542 OFFCURVE",
"180 515 CURVE SMOOTH",
"180 218 LINE SMOOTH",
"180 191 OFFCURVE",
"202 168 OFFCURVE",
"230 168 CURVE SMOOTH",
"440 168 LINE SMOOTH",
"447 168 OFFCURVE",
"450 165 OFFCURVE",
"450 158 CURVE SMOOTH",
"450 98 LINE SMOOTH",
"450 91 OFFCURVE",
"447 88 OFFCURVE",
"440 88 CURVE SMOOTH",
"405 88 LINE",
"283 -15 LINE",
"278 -18 OFFCURVE",
"272 -20 OFFCURVE",
"267 -20 CURVE SMOOTH",
"264 -20 OFFCURVE",
"259 -19 OFFCURVE",
"252 -16 CURVE",
"243 -9 OFFCURVE",
"239 -2 OFFCURVE",
"239 7 CURVE SMOOTH",
"239 10 OFFCURVE",
"239 12 OFFCURVE",
"240 13 CURVE",
"268 88 LINE",
"230 88 LINE SMOOTH",
"194 88 OFFCURVE",
"162 103 OFFCURVE",
"138 127 CURVE SMOOTH",
"114 150 OFFCURVE",
"100 182 OFFCURVE",
"100 218 CURVE SMOOTH",
"100 515 LINE SMOOTH",
"100 551 OFFCURVE",
"114 583 OFFCURVE",
"138 607 CURVE SMOOTH",
"162 631 OFFCURVE",
"194 645 OFFCURVE",
"230 645 CURVE SMOOTH",
"731 645 LINE SMOOTH",
"767 645 OFFCURVE",
"799 631 OFFCURVE",
"823 607 CURVE SMOOTH",
"847 583 OFFCURVE",
"861 551 OFFCURVE",
"861 515 CURVE SMOOTH"
);
}
);
width = 1060;
}
);
unicode = E038;
},
{
glyphname = reorder;
lastChange = "2014-06-03 16:16:13 +0000";
layers = (
{
hints = (
{
horizontal = 1;
origin = "{2, 12}";
target = "{2, 3}";
},
{
horizontal = 1;
origin = "{1, 12}";
target = "{1, 3}";
},
{
horizontal = 1;
origin = "{0, 12}";
target = "{0, 3}";
},
{
origin = "{1, 0}";
target = "{1, 7}";
}
);
layerId = "D0C94BA9-7956-4545-877F-F891ABB04BC1";
name = Regular;
paths = (
{
closed = 1;
nodes = (
"100 20 LINE SMOOTH",
"100 40 OFFCURVE",
"116 56 OFFCURVE",
"136 56 CURVE SMOOTH",
"923 56 LINE SMOOTH",
"943 56 OFFCURVE",
"959 40 OFFCURVE",
"959 20 CURVE SMOOTH",
"959 -48 LINE SMOOTH",
"959 -68 OFFCURVE",
"943 -84 OFFCURVE",
"923 -84 CURVE SMOOTH",
"136 -84 LINE SMOOTH",
"116 -84 OFFCURVE",
"100 -68 OFFCURVE",
"100 -48 CURVE SMOOTH"
);
},
{
closed = 1;
nodes = (
"100 301 LINE SMOOTH",
"100 320 OFFCURVE",
"116 336 OFFCURVE",
"136 336 CURVE SMOOTH",
"923 336 LINE SMOOTH",
"943 336 OFFCURVE",
"959 320 OFFCURVE",
"959 301 CURVE SMOOTH",
"959 231 LINE SMOOTH",
"959 212 OFFCURVE",
"943 196 OFFCURVE",
"923 196 CURVE SMOOTH",
"136 196 LINE SMOOTH",
"116 196 OFFCURVE",
"100 212 OFFCURVE",
"100 231 CURVE SMOOTH"
);
},
{
closed = 1;
nodes = (
"100 580 LINE SMOOTH",
"100 600 OFFCURVE",
"116 616 OFFCURVE",
"136 616 CURVE SMOOTH",
"923 616 LINE SMOOTH",
"943 616 OFFCURVE",
"959 600 OFFCURVE",
"959 580 CURVE SMOOTH",
"959 512 LINE SMOOTH",
"959 492 OFFCURVE",
"943 476 OFFCURVE",
"923 476 CURVE SMOOTH",
"136 476 LINE SMOOTH",
"116 476 OFFCURVE",
"100 492 OFFCURVE",
"100 512 CURVE SMOOTH"
);
}
);
width = 1059;
}
);
unicode = E044;
},
{
glyphname = ul;
lastChange = "2014-06-03 16:19:00 +0000";
layers = (
{
hints = (
{
horizontal = 1;
origin = "{0, 12}";
target = "{0, 3}";
},
{
horizontal = 1;
origin = "{1, 12}";
target = "{1, 3}";
},
{
horizontal = 1;
origin = "{2, 12}";
target = "{2, 3}";
},
{
origin = "{4, 0}";
target = "{4, 7}";
},
{
origin = "{2, 0}";
target = "{2, 7}";
}
);
layerId = "D0C94BA9-7956-4545-877F-F891ABB04BC1";
name = Regular;
paths = (
{
closed = 1;
nodes = (
"350 20 LINE SMOOTH",
"350 40 OFFCURVE",
"366 56 OFFCURVE",
"386 56 CURVE SMOOTH",
"924 56 LINE SMOOTH",
"944 56 OFFCURVE",
"960 40 OFFCURVE",
"960 20 CURVE SMOOTH",
"960 -48 LINE SMOOTH",
"960 -68 OFFCURVE",
"944 -84 OFFCURVE",
"924 -84 CURVE SMOOTH",
"386 -84 LINE SMOOTH",
"366 -84 OFFCURVE",
"350 -68 OFFCURVE",
"350 -48 CURVE SMOOTH"
);
},
{
closed = 1;
nodes = (
"350 301 LINE SMOOTH",
"350 320 OFFCURVE",
"366 336 OFFCURVE",
"386 336 CURVE SMOOTH",
"924 336 LINE SMOOTH",
"944 336 OFFCURVE",
"960 320 OFFCURVE",
"960 301 CURVE SMOOTH",
"960 231 LINE SMOOTH",
"960 212 OFFCURVE",
"944 196 OFFCURVE",
"924 196 CURVE SMOOTH",
"386 196 LINE SMOOTH",
"366 196 OFFCURVE",
"350 212 OFFCURVE",
"350 231 CURVE SMOOTH"
);
},
{
closed = 1;
nodes = (
"350 580 LINE SMOOTH",
"350 600 OFFCURVE",
"366 616 OFFCURVE",
"386 616 CURVE SMOOTH",
"924 616 LINE SMOOTH",
"944 616 OFFCURVE",
"960 600 OFFCURVE",
"960 580 CURVE SMOOTH",
"960 512 LINE SMOOTH",
"960 492 OFFCURVE",
"944 476 OFFCURVE",
"924 476 CURVE SMOOTH",
"386 476 LINE SMOOTH",
"366 476 OFFCURVE",
"350 492 OFFCURVE",
"350 512 CURVE SMOOTH"
);
},
{
closed = 1;
nodes = (
"100 301 LINE SMOOTH",
"100 320 OFFCURVE",
"115 336 OFFCURVE",
"132 336 CURVE SMOOTH",
"210 336 LINE SMOOTH",
"229 336 OFFCURVE",
"243 320 OFFCURVE",
"243 301 CURVE SMOOTH",
"243 231 LINE SMOOTH",
"243 212 OFFCURVE",
"229 196 OFFCURVE",
"210 196 CURVE SMOOTH",
"132 196 LINE SMOOTH",
"115 196 OFFCURVE",
"100 212 OFFCURVE",
"100 231 CURVE SMOOTH"
);
},
{
closed = 1;
nodes = (
"100 20 LINE SMOOTH",
"100 40 OFFCURVE",
"115 56 OFFCURVE",
"132 56 CURVE SMOOTH",
"210 56 LINE SMOOTH",
"229 56 OFFCURVE",
"243 40 OFFCURVE",
"243 20 CURVE SMOOTH",
"243 -48 LINE SMOOTH",
"243 -68 OFFCURVE",
"229 -84 OFFCURVE",
"210 -84 CURVE SMOOTH",
"132 -84 LINE SMOOTH",
"115 -84 OFFCURVE",
"100 -68 OFFCURVE",
"100 -48 CURVE SMOOTH"
);
},
{
closed = 1;
nodes = (
"100 580 LINE SMOOTH",
"100 600 OFFCURVE",
"115 616 OFFCURVE",
"132 616 CURVE SMOOTH",
"210 616 LINE SMOOTH",
"229 616 OFFCURVE",
"243 600 OFFCURVE",
"243 580 CURVE SMOOTH",
"243 512 LINE SMOOTH",
"243 492 OFFCURVE",
"229 476 OFFCURVE",
"210 476 CURVE SMOOTH",
"132 476 LINE SMOOTH",
"115 476 OFFCURVE",
"100 492 OFFCURVE",
"100 512 CURVE SMOOTH"
);
}
);
width = 1060;
}
);
unicode = E045;
},
{
glyphname = sapo;
lastChange = "2014-06-03 11:00:08 +0000";
layers = (
{
layerId = "D0C94BA9-7956-4545-877F-F891ABB04BC1";
name = Regular;
paths = (
{
closed = 1;
nodes = (
"975 465 OFFCURVE",
"992 482 OFFCURVE",
"1013 482 CURVE SMOOTH",
"1034 482 OFFCURVE",
"1051 465 OFFCURVE",
"1051 444 CURVE SMOOTH",
"1051 423 OFFCURVE",
"1034 406 OFFCURVE",
"1013 406 CURVE SMOOTH",
"992 406 OFFCURVE",
"975 423 OFFCURVE",
"975 444 CURVE SMOOTH"
);
},
{
closed = 1;
nodes = (
"1243 372 LINE",
"549 -83 LINE",
"982 623 LINE"
);
},
{
closed = 1;
nodes = (
"1090 486 OFFCURVE",
"1057 520 OFFCURVE",
"1014 520 CURVE SMOOTH",
"971 521 OFFCURVE",
"937 488 OFFCURVE",
"937 445 CURVE SMOOTH",
"936 402 OFFCURVE",
"969 368 OFFCURVE",
"1012 368 CURVE SMOOTH",
"1055 367 OFFCURVE",
"1088 400 OFFCURVE",
"1089 443 CURVE SMOOTH"
);
},
{
closed = 1;
nodes = (
"331 168 LINE",
"966 619 LINE",
"536 -83 LINE"
);
},
{
closed = 1;
nodes = (
"499 -83 LINE",
"186 -83 LINE",
"100 179 LINE"
);
},
{
closed = 1;
nodes = (
"1238 356 LINE",
"940 -83 LINE",
"571 -83 LINE"
);
},
{
closed = 1;
nodes = (
"189 324 LINE",
"521 -83 LINE",
"100 193 LINE"
);
}
);
width = 1343;
}
);
unicode = E0E0;
},
{
glyphname = cal;
lastChange = "2014-06-03 15:51:28 +0000";
layers = (
{
hints = (
{
horizontal = 1;
origin = "{2, 25}";
target = "{4, 1}";
},
{
horizontal = 1;
origin = "{4, 2}";
target = "{3, 3}";
},
{
horizontal = 1;
origin = "{3, 0}";
target = "{2, 13}";
},
{
horizontal = 1;
origin = "{1, 10}";
target = "{2, 18}";
},
{
origin = "{2, 22}";
target = "{3, 3}";
},
{
origin = "{3, 2}";
target = "{5, 3}";
},
{
origin = "{5, 2}";
target = "{7, 3}";
},
{
origin = "{8, 0}";
target = "{2, 29}";
},
{
origin = "{1, 7}";
target = "{1, 13}";
},
{
origin = "{2, 10}";
target = "{2, 7}";
}
);
layerId = "D0C94BA9-7956-4545-877F-F891ABB04BC1";
name = Regular;
paths = (
{
closed = 1;
nodes = (
"750 513 LINE SMOOTH",
"750 485 OFFCURVE",
"728 463 OFFCURVE",
"700 463 CURVE SMOOTH",
"672 463 OFFCURVE",
"650 485 OFFCURVE",
"650 513 CURVE SMOOTH",
"650 583 LINE SMOOTH",
"650 610 OFFCURVE",
"672 633 OFFCURVE",
"700 633 CURVE SMOOTH",
"728 633 OFFCURVE",
"750 610 OFFCURVE",
"750 583 CURVE SMOOTH"
);
},
{
closed = 1;
nodes = (
"410 583 LINE SMOOTH",
"410 610 OFFCURVE",
"388 633 OFFCURVE",
"360 633 CURVE SMOOTH",
"332 633 OFFCURVE",
"310 610 OFFCURVE",
"310 583 CURVE SMOOTH",
"310 513 LINE SMOOTH",
"310 485 OFFCURVE",
"332 463 OFFCURVE",
"360 463 CURVE SMOOTH",
"388 463 OFFCURVE",
"410 485 OFFCURVE",
"410 513 CURVE SMOOTH"
);
},
{
closed = 1;
nodes = (
"800 543 LINE",
"800 513 LINE SMOOTH",
"800 457 OFFCURVE",
"756 413 OFFCURVE",
"700 413 CURVE SMOOTH",
"644 413 OFFCURVE",
"600 457 OFFCURVE",
"600 513 CURVE SMOOTH",
"600 543 LINE",
"460 543 LINE",
"460 513 LINE SMOOTH",
"460 457 OFFCURVE",
"416 413 OFFCURVE",
"360 413 CURVE SMOOTH",
"304 413 OFFCURVE",
"260 457 OFFCURVE",
"260 513 CURVE SMOOTH",
"260 543 LINE",
"128 543 LINE SMOOTH",
"113 543 OFFCURVE",
"100 530 OFFCURVE",
"100 514 CURVE SMOOTH",
"100 -59 LINE SMOOTH",
"100 -75 OFFCURVE",
"113 -87 OFFCURVE",
"128 -87 CURVE SMOOTH",
"932 -87 LINE SMOOTH",
"947 -87 OFFCURVE",
"960 -75 OFFCURVE",
"960 -59 CURVE SMOOTH",
"960 514 LINE SMOOTH",
"960 530 OFFCURVE",
"947 543 OFFCURVE",
"932 543 CURVE SMOOTH"
);
},
{
closed = 1;
nodes = (
"289 308 LINE",
"389 308 LINE",
"389 208 LINE",
"289 208 LINE"
);
},
{
closed = 1;
nodes = (
"390 18 LINE",
"290 18 LINE",
"290 118 LINE",
"390 118 LINE"
);
},
{
closed = 1;
nodes = (
"480 308 LINE",
"580 308 LINE",
"580 208 LINE",
"480 208 LINE"
);
},
{
closed = 1;
nodes = (
"581 18 LINE",
"481 18 LINE",
"481 118 LINE",
"581 118 LINE"
);
},
{
closed = 1;
nodes = (
"669 308 LINE",
"769 308 LINE",
"769 208 LINE",
"669 208 LINE"
);
},
{
closed = 1;
nodes = (
"770 18 LINE",
"670 18 LINE",
"670 118 LINE",
"770 118 LINE"
);
}
);
width = 1060;
}
);
unicode = E041;
},
{
glyphname = cal.day;
lastChange = "2014-06-03 15:02:56 +0000";
layers = (
{
layerId = "D0C94BA9-7956-4545-877F-F891ABB04BC1";
name = Regular;
paths = (
{
closed = 1;
nodes = (
"800 543 LINE",
"800 513 LINE SMOOTH",
"800 485 OFFCURVE",
"789 461 OFFCURVE",
"771 443 CURVE SMOOTH",
"753 425 OFFCURVE",
"728 413 OFFCURVE",
"700 413 CURVE SMOOTH",
"644 413 OFFCURVE",
"600 457 OFFCURVE",
"600 513 CURVE SMOOTH",
"600 543 LINE",
"460 543 LINE",
"460 513 LINE SMOOTH",
"460 485 OFFCURVE",
"449 461 OFFCURVE",
"431 443 CURVE SMOOTH",
"413 425 OFFCURVE",
"388 413 OFFCURVE",
"360 413 CURVE SMOOTH",
"304 413 OFFCURVE",
"260 457 OFFCURVE",
"260 513 CURVE SMOOTH",
"260 543 LINE",
"129 543 LINE SMOOTH",
"113 543 OFFCURVE",
"100 530 OFFCURVE",
"100 514 CURVE SMOOTH",
"100 -59 LINE SMOOTH",
"100 -75 OFFCURVE",
"113 -87 OFFCURVE",
"129 -87 CURVE SMOOTH",
"932 -87 LINE SMOOTH",
"948 -87 OFFCURVE",
"960 -75 OFFCURVE",
"960 -59 CURVE SMOOTH",
"960 514 LINE SMOOTH",
"960 530 OFFCURVE",
"948 543 OFFCURVE",
"932 543 CURVE SMOOTH"
);
},
{
closed = 1;
nodes = (
"616 241 LINE",
"565 185 OFFCURVE",
"553 135 OFFCURVE",
"545 64 CURVE SMOOTH",
"543 40 LINE",
"486 40 LINE",
"488 64 LINE SMOOTH",
"492 99 OFFCURVE",
"499 130 OFFCURVE",
"511 161 CURVE SMOOTH",
"523 191 OFFCURVE",
"540 218 OFFCURVE",
"561 241 CURVE",
"439 241 LINE",
"439 285 LINE",
"616 285 LINE"
);
},
{
closed = 1;
nodes = (
"750 513 LINE SMOOTH",
"750 485 OFFCURVE",
"728 463 OFFCURVE",
"700 463 CURVE SMOOTH",
"673 463 OFFCURVE",
"650 485 OFFCURVE",
"650 513 CURVE SMOOTH",
"650 583 LINE SMOOTH",
"650 610 OFFCURVE",
"673 633 OFFCURVE",
"700 633 CURVE SMOOTH",
"728 633 OFFCURVE",
"750 610 OFFCURVE",
"750 583 CURVE SMOOTH"
);
},
{
closed = 1;
nodes = (
"411 513 LINE SMOOTH",
"411 485 OFFCURVE",
"388 463 OFFCURVE",
"361 463 CURVE SMOOTH",
"333 463 OFFCURVE",
"311 485 OFFCURVE",
"311 513 CURVE SMOOTH",
"311 583 LINE SMOOTH",
"311 610 OFFCURVE",
"333 633 OFFCURVE",
"361 633 CURVE SMOOTH",
"388 633 OFFCURVE",
"411 610 OFFCURVE",
"411 583 CURVE SMOOTH"
);
}
);
width = 1060;
}
);
unicode = E043;
},
{
glyphname = cal.day.outline;
lastChange = "2014-06-03 15:02:48 +0000";
layers = (
{
layerId = "D0C94BA9-7956-4545-877F-F891ABB04BC1";
name = Regular;
paths = (
{
closed = 1;
nodes = (
"960 -59 LINE SMOOTH",
"960 -74 OFFCURVE",
"947 -87 OFFCURVE",
"932 -87 CURVE SMOOTH",
"128 -87 LINE SMOOTH",
"113 -87 OFFCURVE",
"100 -74 OFFCURVE",
"100 -59 CURVE SMOOTH",
"100 515 LINE SMOOTH",
"100 530 OFFCURVE",
"113 543 OFFCURVE",
"128 543 CURVE SMOOTH",
"172 543 LINE SMOOTH",
"187 543 OFFCURVE",
"200 530 OFFCURVE",
"200 515 CURVE SMOOTH",
"200 13 LINE",
"860 13 LINE",
"860 515 LINE SMOOTH",
"860 530 OFFCURVE",
"873 543 OFFCURVE",
"888 543 CURVE SMOOTH",
"932 543 LINE SMOOTH",
"947 543 OFFCURVE",
"960 530 OFFCURVE",
"960 515 CURVE SMOOTH"
);
},
{
closed = 1;
nodes = (
"410 513 LINE SMOOTH",
"410 485 OFFCURVE",
"388 463 OFFCURVE",
"360 463 CURVE SMOOTH",
"332 463 OFFCURVE",
"310 485 OFFCURVE",
"310 513 CURVE SMOOTH",
"310 583 LINE SMOOTH",
"310 611 OFFCURVE",
"332 633 OFFCURVE",
"360 633 CURVE SMOOTH",
"388 633 OFFCURVE",
"410 611 OFFCURVE",
"410 583 CURVE SMOOTH"
);
},
{
closed = 1;
nodes = (
"750 513 LINE SMOOTH",
"750 485 OFFCURVE",
"728 463 OFFCURVE",
"700 463 CURVE SMOOTH",
"672 463 OFFCURVE",
"650 485 OFFCURVE",
"650 513 CURVE SMOOTH",
"650 583 LINE SMOOTH",
"650 611 OFFCURVE",
"672 633 OFFCURVE",
"700 633 CURVE SMOOTH",
"728 633 OFFCURVE",
"750 611 OFFCURVE",
"750 583 CURVE SMOOTH"
);
},
{
closed = 1;
nodes = (
"628 322 LINE",
"604 295 OFFCURVE",
"587 268 OFFCURVE",
"578 241 CURVE",
"567 214 OFFCURVE",
"562 182 OFFCURVE",
"558 145 CURVE SMOOTH",
"556 121 LINE",
"499 121 LINE",
"501 145 LINE SMOOTH",
"506 214 OFFCURVE",
"531 275 OFFCURVE",
"574 322 CURVE",
"452 322 LINE",
"452 366 LINE",
"628 366 LINE"
);
}
);
width = 1060;
}
);
unicode = E042;
},
{
glyphname = cal.outline;
lastChange = "2014-06-03 15:02:52 +0000";
layers = (
{
layerId = "D0C94BA9-7956-4545-877F-F891ABB04BC1";
name = Regular;
paths = (
{
closed = 1;
nodes = (
"960 -59 LINE SMOOTH",
"960 -74 OFFCURVE",
"947 -87 OFFCURVE",
"932 -87 CURVE SMOOTH",
"128 -87 LINE SMOOTH",
"113 -87 OFFCURVE",
"100 -74 OFFCURVE",
"100 -59 CURVE SMOOTH",
"100 515 LINE SMOOTH",
"100 530 OFFCURVE",
"113 543 OFFCURVE",
"128 543 CURVE SMOOTH",
"172 543 LINE SMOOTH",
"187 543 OFFCURVE",
"200 530 OFFCURVE",
"200 515 CURVE SMOOTH",
"200 13 LINE",
"860 13 LINE",
"860 515 LINE SMOOTH",
"860 530 OFFCURVE",
"873 543 OFFCURVE",
"888 543 CURVE SMOOTH",
"932 543 LINE SMOOTH",
"947 543 OFFCURVE",
"960 530 OFFCURVE",
"960 515 CURVE SMOOTH"
);
},
{
closed = 1;
nodes = (
"410 513 LINE SMOOTH",
"410 485 OFFCURVE",
"388 463 OFFCURVE",
"360 463 CURVE SMOOTH",
"332 463 OFFCURVE",
"310 485 OFFCURVE",
"310 513 CURVE SMOOTH",
"310 583 LINE SMOOTH",
"310 611 OFFCURVE",
"332 633 OFFCURVE",
"360 633 CURVE SMOOTH",
"388 633 OFFCURVE",
"410 611 OFFCURVE",
"410 583 CURVE SMOOTH"
);
},
{
closed = 1;
nodes = (
"750 513 LINE SMOOTH",
"750 485 OFFCURVE",
"728 463 OFFCURVE",
"700 463 CURVE SMOOTH",
"672 463 OFFCURVE",
"650 485 OFFCURVE",
"650 513 CURVE SMOOTH",
"650 583 LINE SMOOTH",
"650 611 OFFCURVE",
"672 633 OFFCURVE",
"700 633 CURVE SMOOTH",
"728 633 OFFCURVE",
"750 611 OFFCURVE",
"750 583 CURVE SMOOTH"
);
},
{
closed = 1;
nodes = (
"389 293 LINE",
"289 293 LINE",
"289 393 LINE",
"389 393 LINE"
);
},
{
closed = 1;
nodes = (
"580 293 LINE",
"480 293 LINE",
"480 393 LINE",
"580 393 LINE"
);
},
{
closed = 1;
nodes = (
"769 293 LINE",
"669 293 LINE",
"669 393 LINE",
"769 393 LINE"
);
},
{
closed = 1;
nodes = (
"390 103 LINE",
"290 103 LINE",
"290 203 LINE",
"390 203 LINE"
);
},
{
closed = 1;
nodes = (
"581 103 LINE",
"481 103 LINE",
"481 203 LINE",
"581 203 LINE"
);
},
{
closed = 1;
nodes = (
"770 103 LINE",
"670 103 LINE",
"670 203 LINE",
"770 203 LINE"
);
}
